<mxfile host="app.diagrams.net" modified="2023-06-17T06:40:09.881Z" agent="Mozilla/5.0 (Windows NT 10.0; Win64; x64) AppleWebKit/537.36 (KHTML, like Gecko) Chrome/114.0.0.0 Safari/537.36" etag="PZm3Nzk1LGEN7VjQTr3U" version="21.4.0" type="device">
  <diagram name="Page-1" id="ATx1mPQx4Ldfx3AxLYyO">
    <mxGraphModel dx="1434" dy="707" grid="1" gridSize="10" guides="1" tooltips="1" connect="1" arrows="1" fold="1" page="1" pageScale="1" pageWidth="1169" pageHeight="827" math="0" shadow="0">
      <root>
        <mxCell id="0" />
        <mxCell id="1" parent="0" />
        <mxCell id="FixOYD4-snbmeL3foWsd-2" value="" style="shape=image;verticalLabelPosition=bottom;labelBackgroundColor=default;verticalAlign=top;aspect=fixed;imageAspect=0;image=data:image/png,iVBORw0KGgoAAAANSUhEUgAAAMoAAALaCAYAAABwLMwaAAAgAElEQVR4nOydeZwcRd3/33V0z8ye2YScQAh3LiDcZ+RSEEQBERRFEfBRedBH8aePeDxeiI8+jwfgIw8CoiKoj6AcCgKKCiiEQ64QIJADkhBC7mR3Z2e6u6p+f1T17O5sNgkQIJvM5/Xq12zP9HZXVdf3/ta3xCEXXOeakrUYa3FJE1IqynEVgNgCQIoDIArnGeEPJADCsU44se7vG9g8IBxYa1Fa175z1q7nP/rjtb5f+xr/Xw4y7zb6+WH+yvwLUfYf4b5RoZ2uzi5GF1eh/+80y3Ytc+kplynGYKylEq5ssQ6EwCmBEIIafQjAOZxY/6AORkANvPlwztFnigD4d9x78sY26M2EC/NYZgAkogWAp6pv5cc/vp7VlX3QcRyHQYPMGKwxWAVKaU8Qgw2YEP0HtoEhBf/uJNYYpFLg6rha/fn68GoZ4mudPpvquXlfw2dOD8ViEWMMQkh0p5IMFytRBYsWDiLQrsn/o0qBXhGp+rQvH+gGhiiEBJchhcW/0Vcz6wInfrP45at9bvg/VzsN/QhqZyFoSkVrKVjLqkiitdbYbHAVylmH61XiXmXLGtjs4DbeFtlaYZ3DOYezFt2VRSjVgskyRBA5SiT+SicRAnROeuFT1P5ePxdqGPNDAFIAbp08cIM25mt8v6/VhH2t06u3f7H/CDaKw89/IzRGaKzI0EorrDHruZvobZHp7ZrbCB22YctvvmjYl68MWpIR2SwYMrnylutaGSCwwlOcFN5mwUoEomaimECJOH+dCmK9l2Jl3WcdNuA9GxSO0O4+unLfCVBPqWKQ7zcWdXPLEcajNl5xuKzi22G9VefEwH4LIWoSV9TUoLwf/d3vfXTfcL/wWcesRF+J7xsYoAe2w4EQOYMcbPw3YINaXffAuuduyCs66HM38HyR5Q2o+8zHS/c/r6FufAeZD/n7yFRCJhOsyEdwMNR5ATZLCAGIV+al2WSPFgMna96evG3r/H3TPb/f+eBXbvJnbw0QwbMrhET3o+kBnKGIlyj+KoU37oUs+J9Ft//eBC9ZsG1q8RXh6bCXY+acoB6v1nvWR1L14w51nKrG4Tb0nA1woAHIPJ0GSZpL4JrOG2hGuL6qbe8gizrbr5dv1T+3//NFLmGkANsbDxlgE9ZLrMEM+HxcNmN+2A95/+sl72Dvr/Z9GN9X6MgQQr2yGersEBhJIYKB+gY/s+/nK/19kzVDDDhvSJHXhnz8tBMZEONw3u4AEF3h04EUaFf0p2ECOrrDzzknTfp9ihCHcfV0uCGOtiEMoNM6zpvbLE6s+54bnDN1F2xogve1HYQA6nX+Prpyv1sMolvntxV5alDO6QeRME4F9S4/D2+wpu5F/e8vZPgtW/f9BnRzA+/lVfPN+nmw7nEYeF397/Xza7D2rlsyD8Cg/78hG2Uow7k6w971vthBX3D9D/0jtgMg3xzbqIZ19bHvua3v8BDQCDYz5DaohhhEpf8gBwmCc2BFL6PJjVMZJEk+7jKPbPa3VQZ6vXIvST1l19kug3mrBtOlB7u+7w/rFAqDcLZ6b0g+LANsuJIXzS54v2qcuxz+PXjBbF/JIjChH6qeg4VxqfHXXLLUnreO8cs9fTlRCICQkiLqxjU/H/BeBjl/zd7BwSRF/e+v0us2QAJsyMast5FzmyUf13x8gs3Xhwm+6hyUQT1hm7OHbBOgXu93zm2cTfQqx2Wwca59X283DgU7cjA413us8+c3p2/OObRw2kfgcVDzzuSUl7ttwqlqgUqFaqGExVF0FX9VpRsRF0CWcNaSMdxfTifWObQq4JxDuFw3DjZNTQKFOM5gNkw9xdsg8WQdJ5e9GQV9v3cyP6+E80L4NRcVlfCZ21y6/2d4rpWdvl+u5Mcrt81c5j3U4XqBb1+KQwhBhAiB2wSEQDkvmXuvJ0jrkPbtTIizhDwsq8P/h8ix8/EZ67zdKDAgBS6IPCdkaI9vn7L9OacRxfCc0L2ajVk3/laAlJClEEW9cSFV6fd/LvTXInHOoVzQKPIHhOfXXouo9HuaqmmGUXisrPs9xOWExmQGGRHmk/V2c+3Gg9g0rk6jGUyTWI+NMvgvOWVb23sEik7TDGtszbgXUoEx/uVbh7UWYwzWObIsJTMGobW/h/KdRQZDtK/B/EqPVwmX5/CEg408pFRYYwfaAn3umUsbk5nedR5R7i5ej3OgjpMaYzB914b0aW/Nv587V+o47To5b642W0uaZuGrDYyhjiDNPJEkyfqvrT2mV+K+Yi+plCAlUsp1e+ykQsUxWWYwfebfGwEpnQVs4ObSH04CCpSESGHD0ZOO4spf3s3EaZexy9Qfcuv9z7PMjsRGzVjdREaK05YeOZ5LrrqdcXtewYT9fspPfn4b1XQY4CCpoOKm8IyqP6zxR22yiP6HM/0OJ3pwosdzWJF5Tuk0mHDkybBiLYi1CFv2h2lCmCaUS1AuQYgyQpTxnEbjJWkWOH8CsgKygkN77p+VULSC0mAsWAlWYihiRQkpC5AJVrAD//Pr+xi3+5Vc+tMlUDEgi15i2ZwzR72TQZhwJCBThDBIm6KdQzoHIgWXeA7qbHCBK4SV/nD+nQnh+sSsQLkIZbR/rovpZicuu+YfTDz4cr539TzW6m46o7J///R9//56qmUoaJBViFJve4ly7bnYIthirV3KlVH0gFAIqRFSeGIJ41l7D7aIsEWU0yina/epNcNZhLUo5w8n/IE0IA0R/iDLQsZveG9Ybxi/2mTo9RHKxlzUlzM466gaSwpcddXtSKmQgQvk3K6np4df/vJpqtYzpPy3TY716LOvB4RUWOu89FwXN05TL3mEwIT8uTRNPaeskw4Dby48AeYGfKR7n2GDHaSkP/I29L1Xn3uuU1L0ybKo9GxMZwXEkZ+MadL73Yb+R0hQyve5j9TbKOSaS5Da+ZyxuaS2gTjiuHb/deJ1mBN6gGckfO25VoYz1uu/1uF0hapbSwpMmdzKnfd1cv+jEcfu5zsSFyJwjj/fvYwFy2D69Cnce+8sukVCJTIUMolQGpumOAsqd68WCv7FK0HaUyZSXgSDn2BOCK+60QzOIdKqVwdEHAa3M7ykIs5akqiAEBLlIqw1RFqHyd0T1A8FWoNswpkMK+KQjtKDkAKTJv5/wgpPYXpAa2zFoOPIe1FMCgjQGpVJ/3LD2umObCH/duphfPr0I5CR9i9YSrBdfVRHCbKl9mK9zp1P/sBhogK1XDYL1mmklFAQpD0VomgY1mSgEpIkJVbKZ1GICOecX2uiwOC9cMYJEmcwDpJUIWu6ebH/6w82hBMSNFSzGOEEkdIIKRGuhM1SpFwDQJoV0FphXStpmhGrLt9OpXHVBHQBoTRp6sdZu8yrdUb496J9e22UIKXCJcKrX9bbdMKliLiErYIxDi0ESI0TJd9PlWKyDK2VH2uRE1GuLsb9+zfARlm316sv1mujOGNrenGaZSilMdaiBJz5oQ8RS/j5NddgjME5h0l9gy+77DL2m7YN06ZNQwgw1tTyopzJEEIgVS9HMNWqX1mZJGgdgVK4wLWddYg4xqYpmAxnsl7plKV+UpletU2E/8myjErOOqtVz+Wc8xM6isAYsiTBGEuW+QmapP5FRVqT9bknzkGaIrXyhJsmgZCBJPFtiwPRBv1fx7EnEudAa1ya+WfnNk61irMGZw3VahVjrb9PzlWbSr12oRQQx5i871mGkAJrMoyxSKmIY28I97UP1pWHZq3daIbrnMNYSxz5e8sowhqDMxkyTG60Jor9REyzjGKx6IkEcNVqYHCQVCokSRIkg/PvDkBH3oaNPRElSYIsFPz70hFEEVJKbKXSr03GWpIkRUpFlqZIJbG5HWU3jabRm+sl0DZXDIWjdw1jQOqQSnojNnOoRBNnBZolTBjdxCknT+Pmmx9jwdwD2XHHHcms45677+aFRRUu/OaxLFrc6bWGDLSVOCWxztGtJvD8/Of57tWLueuuv7BsRZmWlgInHj2O008/nWP3KWNsilZFMAkPzB7Nddf9ktv/0cm8BQtp0bDTTuN57+FtnPLudzNuW0FBF1jZPZ6//vWvXP37ecyY8QQuhZbWAicdNoHph03nhOMExWIzZbk7V11zFX99oMA99/yTxIJWsMu2grccfjjnnT2VUaNG0c5CrLGYwkics/z9mVZ+8Ytf8POb5yG1Zq+RMSedfBLX//GvLFiwmMUPno1WBcpiZ6655hq+/d1ZfPrT7+ZjZ49ARoKu9FAOPugTdCVwz93Xc/Uv/sTv//B7Fj/3EsM7JOefuTcf/vCHKYh/IlNLkQi0YlU6lQfue4CvX/JXnn76RbqByZPH8+ETj+F737uKt+wPl1/+XZrN0yil+sQxInCgBOAcygliodFALCyyxjnLYWaECS/aAHh8YQcXXvhNnp3Xxssvr6CceW3sgAOHc/r7Tufst42iWkkoxMO5/dbf829feYQT3nkk3//Czog4QigDCFAdvDB/DkeffAMTJ3Zw53XHgpBUxShWrVrFj29IuOWWXzBrfjfGwLGH7swHP/hBTjjME5aIVpMkKR/9+O08+NACvv+TT9Fd7uYnl/6B2c8uoijhssv+hSMPGg4OCnpp6NdgOWwbiu8MxHoj8yIKniohiQsFssShlcJZb3ecfPJJXP/bx7jmml/wta99FSkFN950D6PHwAnveAc/+t+biTUorUizjFhYoqYmZj06i3M/fi2zloIWnnl0d1f53c3zuf/+b3HdxYcyZcoUtNDMnTuXj3zsh7z8MqxyvmvVDJ6bs4Arn4W2tjbOPHMfjMm48sorufrqJ1lYhUh523/16io3/mE2d9wxm3e94yNopalWqjz80JPcfXcfwWDg2QWOxb/6G/Nm/Y2LL/4UbcMdqlSi3FPlqaee4vSz/kx3GYgVNklZuDDlh5dexxrnCU0r7SVlH8lurEEpSZb5T2OgJ4UT3nkqL6zy1xQsLF9h+eEP/0m5XOZT5+6HUlFQxxzXXnstF1/8AC8nIUlGwZNPLuA7z1xFuWYC2UAkwuvxuW3QR48XQngJJHrP12c7LnlpCQ8+mNKTrcAYTyRJCg8/vJKHHvwRY749keOOOw6bJBxy6CEo/Qh33PFX1p43kvYxowHflizLuOWWW7AWPvShDwEvg3OsWLGcf//8tdz2oB+/xHjfwf33z+Xef3yNq7+7D0ceeSSRNBiTIZWkqwL/9d+X8PTT3scg6HUq9vU6ei/fRlDARkL3p6q6LEynvWoTdOdEWlJpKUuoasHRe0pOOwIuvxlO/bdxrFmyhN/9Db7/5R0Ynj0LsgnjILaWJiXRahuWvbScU8+5ljVr4Fff3Jm3vvVo2poEXd1d/PbOZXz963fy3cv+wZVXnEGPXMJt9zzG0uXwtmOncNGnd2bChB2pZhFPznySm353O+3Nyyg5h8gMX/vfJ0mB+6+cxgEHHACFAgsXLuTBWWv4+c/+SpPzRvDI+AWuvfQjpAgirXEhsv7P2ZKvf+MK7nwUbnuozCePV5BUWbh2T95/7qWIMpx7xiT+7UMT2G677ehco7j33r9z4hefI80MhaDaFSgTm24SAamIaUWClqyRBWRwyrQOl9zxtZ058sgj0aqdW2++iVO/9Bzfv+4Zvnju/ojMUGYcD814iC9//wEyAz+/cDxvfevRDGsfxpJFi/jub1/iqqv+Tk9w/GFjPzllOdhBwUNmvQooqRKJ1GslrujjHjgQuvd6QLounHOcsE/ES/8813vdlL9Hd1cXV/1+FRd+8za+cskz7HfMZxgpHqS9XXLUu/bg2mtncuNdMzn9fVNw2QtEWrMk3ZNLrksY0wKnHjeeiqhgreWMC+7gvvvhkyfBh848jam7diCE4A93r+VLX/wln77oEX5/0IeZWniK1lILK0wbawG7CC46bwrnnf2WoEoTnCWdgTia/DjUMiYGyxmrj7MMvm5qw7JnHVwnPxVCcPxxB6MU/O53N3L99dfT3AzHHX8cgDeu8CWQsjSjWq0yY8YMurrgU586nZNOPJG2Ni/m29vbOfXUUznoIHhgho8jJEmKMb6T48fvwHbbbQdSoJRijz334Ktf/RKnnPIehJK1zihg4sSJSCkxmWH8+B049thj+dWvv+NZT5ri0hSpFHEUk2YZaZaRGcPOO+/MRz/6TrSCZcuW+diBMcx4YAZd3XDE4S189nOfY/wOE5BKUygUeNvb3orNsnW8DKimvTENazKstTVz6Te/+Q1HHHEESkkwhmPedgyHHLIP5W7HE48/DlohpOD22/9MksH555/BKae8m5aWVjCWMdtuyyGHHloL6diNiFnkHNf2OZdS+ZiWG2jTIKV3tDhvU2RpSrFY5L3vfS977QmLF4eAZ3BQnHHGGWgFP/vp0yRJigri+s9//jOdnXDWWZO8se4cS5cu5e//WMCBB27L17/+BSZMmFCzofbbbz/OOvsAurpg4cKFKCnJgv2hJXzlKydw5pkf9sSrZG9cq2/7N7HnS/fGEBwDKEpUAIcLFKdQCCeRFrSLKLKId79zGhdd8SjXXH075bXw6U8eTkezA7cW53whvUQJEi1QtoP7HpqDMvC/l/yKb13c/3Fx6FurhYcffZ7D95NMm7wTPXIJ37viNp5bdAB777030yZL9tpzL8baR7zuGHl/+pF7lnjyyR4OP/OPHHXUURy493B23nk7xoxyxHFEqy6TmiqV4u5Uq1XuebTAP/7+dx55chVd3d08/MRPfbeB1EkoeG/QIw/NpVqF448eS3thLlQrWGsolrLQfOPVHrzq05QImo0kAly6hmo2DCEFFVNFFqGUQnu8EisMKZaYTqKioKQMMVAx22DtSCpmOPfeDy3AsdO3R9glaCWAdsgy4qi5plkVigJXLde5hpPQmz5eHRHKF7oi/eMmpjdiHrSWVXYkq15exW/vrPLoo4+yfFmJp556iuVrf4LSUDCQ2QpCS9I0Y68JCe+YDrfdDXc/HnHcIUWcdVzxk+uwAk54+ySEmUtRjeCZJx4G4L4ZL9K813+CEBSQCCmpZClEirYMHn90Me/cqxktwamUqoVt2lbRUlgCWacn5pDpMNBdPJgceOWZW68tezhw+3POOYf/+PKPKMhcmsyHKPLeCeMlj5QSm1oWLSp7T2qI70kVyiHVOKPvhjGGNLVMnz6db3/nMC695BJuv/1B7rjjQYrBcXL+qfDxj3+QbUaVQCn+53/+h2984xvc8OcXmDPvRn7hvbdMGA+f++xJvPvwVqJCgWWdXVxwwfe4+S4/zhUXgsJBxfcro513uRaLnqsJ2HnnnXuHOopreVW1yVkLlvZCaW+3WGMplopkWe58szjpvIdIeqliraVqwTmLjGKUkyxY6BnnLrvsAmopLkkR+JQSa2zNG5oOFjnvE2uqj5RLqbB5sHcdkfA77riDb397BvOXh74EL7gFTAYF4WMcaZoRxTFd1ZTjjtuP2+5+mNtuvZVjDtyXJ598kjlzujn11AMYN26c91plGYsWLerNjNIRJksxzvj2SAGpQUf481pXHJEKtpU1CB2FQPnrH6FfP6GIDHBIpwGR858ggxLvTrGGdxzdxhWXwnGHCyaO74FqD6gSeW6RMK0I00pLybL9WIXA8IPv/T/OOLaLLDNo7V+6jPEqQE+C0J1+wITkzLcX+cDb/oU1Ly9j3rx5zHh4LddfP5vv3ABzmcdPvzYRZzN2GP0IV1xyHJcT88gjj/DCnG7uuutRrrkfTjv3Jmb98XTG7zCe/7t1MTffBWPa4BOfOIj9JxYYOXIko7bfjX8+/E9O+PAdFGxGHEVkPRWKw4qUHSxbvBo5rUC3i1BOUdQKstRXrzFhxjpBog09+WpPSkQoLAIqFWIHqYNYRmghQ4Z1EYRFZJYC+Ei2LROLkXS0wJIueGlRwugdNWWT0FTsDiksTd6pJEHrdvKSBl5KAKY52B4VsNYzIaEQEspmLVa2kzlA52v/fRFERQHrHJ/6qleTzzkZjj32bYxtrrLH1Kl0Rjvx0Y99lr/c59VIZRVY6Ihe5LRjJ/Kt/3mC6298kE994iR+fsPvkVV434n7EhUMmIzUtjB8m5EU1VLOOeddfP/8nbxKHHl3ftlAoVCAJExPm4BzFKylYKEsm+iWTbTYLmpE0o/IX9kKxo3Bq84eBmrBs/b2dv5051f44he/hFYaiiVwFlmXi2StZfLkyQDc8NsbSNMMHUVkmfER3BA3ELkrylowGUprIq0ZNWoUh00/jHPPPZeLLjoNa2HBCwvIQl5UHjuIooh99tmH977vfVx++bfYfbcd0REsW74Mkxnu+stfcA6+/Z/v4f3v/wD7H3AAY8eNQyuF1gopfUwgj8vsvvtuSOCRRx5BCEGhUPDc12SYJMGzEXpdaH363BfWOdKQ5uaHL9h/1tY4ugSEkCB8vtOUKf61P/3001hraWltBXz7enr8xDIZVKvVdb4bP5P9EcURaZqRWSgVSwAoqXDWgPLZEzry8YyZM5+gswumTBnPNy/8BkcccQTTpk2rxUwKhRCTDlkZ/pkSHUW8+5RT6Engphtv4je/WcRe02DatGk+BmUsQggmTZqEc/Cb39xCunoVGINQ3jsKPqMhf68+S6A+aPjGQtZyZOibM5Mfed6Xh3YW7SxeG68EMnMMM0sZIVbSGnUSm6WQebZpbBkLFOmhJCpo8xLvOHIKYzvg7/e8wNmff4DbH96eZWZPlplpPLJoN668eS0fOO9qVtuprLK78K9f+Clf/u6j/OXR4aRMpifdjRfLgkfnL6cINMkyyJE8/MgLnHzunVx9W5HH5g9nld2bTjOWB55cTVbpJpbQHkPBVZiw3TaUYrj5D0+w5OUCq5IDeHHNHvzfzWv4/mVPEQFNOsI6gRWSow8YzTYFuOxXCZdd+zyreyaRiH254e4S//If91GVkCmwtop1CcgYqYtoAZEw+FQshxMSg9ftYyOQ1qFzkSAFThmcAG01WI1yizjphN1YDXzmG5dy70NNrOjaj/kr9uGGOy2X/fAWrPN8SWvXm/MmUrx9UgVThsxCZlHSARlKQzmRLE8msiKdxMvpVJYnk+k2+7G2sic9WTvDttkdIeHxWQuY8fgaVlfGsjKbzP1PKr7yvb9z7+OSgoWii3yemkv9nJGO047ZhpEKvvHDB1lh4LwzJ1MyszA2wlBEyAq77rYtBx84grWr4eCP3shV97WxuPsAVtojWLD2AG79R4nPXfQ7HnxWkUpJai0GTSag5CqUbKXPvH190DdxduNtlMG8CEribNC1TeYV6pCHo7VC5R4450AqOrbZhq9//fP8x1e+w21/fJLb/vhFYhkC7AqSzBuvOVauslx/x1+4+uq/0Jx6r0e37k11+vi552JtD0II7rtvDvfeewna+GZon/3OCgEHH7wnkydPRinJaaedxm9+8zi33vYst9/+UR8sD8/bfixkfWpBRFozefJunHPORC6+7Bm+/e2f8L1v/QQhIJXQ1ubbLlT/nLb6WmnOOaz1i6NN36GUwXKuX7rsfJX5k086iYnX/oxnZi/ljDMvoaChM/Me0dKIAhqfeJBlZt2qugxeISnJTEYcx5QzuOKKX/PDq35NlkFraE9svA1y/FvhO//1WY477i3cccc9nHHG93AOmkLKWk8TtLZGfXY16DNHoogxY0bzznfGXPWHhI5hcPDBB/v4Urg+y1K0jvjKV7/KOef8G4/PXMu/nvdfjAj3T0M/pIN3ntADRK9PruArgBwYR5H0y8qlNxtXqE6EXUl7E8RyHlbEWFlASOu5SpSA6PIrHpWjw8xlXAwy60GZCrhOEGVOO2Ylf/vtO/jAKcOYugt+YjvYdRx85L2t/O6aQ2iL5lOQc7joq8fzmbO359ApPvE21bDjMDjzXa3c/9u3c+weK4mLVfbZa0eu+ub+fOSdMH40NAloiWHaFLjqy9tx08WHonU3QpfZf8Jz3Pqz/ThkD2iV0FGAY6fDld+dyg8ums7ICJqz53Cqh4wuhhee4YJPTueiL+zFpB09UbS0wVnvi7jpV2fToWBsKScGSyyWU1CrGCFhGzWHpGxwRtMsVjCiCO1FKKq5fl5bh6MTa1fT4Z5mXBFgNdhVCFZi7XL+8ON38/kPKEYP93b3pF3hM/9vMv/xrbPIIhjRBiXVE+JdIQvYCfzq1RhcAaJWsBVwFbYrQLEKpQq02+BMkZAqSIQP6Cap4Hufn8IXzmlj2218m3fcCc74YAd//c0HOWqPlKYCmOSFENy0QCskBUTJceDh+1M08JH3H8WwgqVID4oyWvZQkCnKljl02ye5/1fv4ZJ/351j94BIQFHDLtvAacdofvJfuzN9jwKRlIhKhVHRU4zWUJQGZau98/UNgHj6uVvdxPS3wb1Wl8LiAomL3E/dBkqxvAxNTSWKwoeWpbWBc5WD5PGCqodJOOco2WVep5dLwo0lxhi69D6Uy2Ui2YxWmtSsIIoihsX+uorpREpJV8/2lEpNdGdeP1fVlRQKBZqYF5pZQQhB1YwFoOxGY60lQiGEoEk9h5QKYZfhjEGUWsiShJ5sb6QQuLAALJKLcNZh5DhMZmjSM1FKkwQWZ9QUsjTFymForbHJfDo7O5l62MUcsP8kfn/5AcTNzWAiKpUKurgb1lliuYgsS0nVWKy1CFMhjmM0S8BkWGGRUUQ5mUhmDG3iOZyxZEoQFYt0V9t9P4X3GiWujNKKm+55lvPOu5zvfHYHzvrwh2k2i8J7CHlqNgrvLdgrheGkaUrVTsQaS1V4L5PVPlcvlq0opYmSOb6SOynGZFTT9pAFnPjcL1nxTEGAkpJWuwC0xiQapRWr1VjOO+9L3HUv3HLLJewzZiZCCFSUS9kotM/bHt3pGKxzWDXSx3bSHj8+dg4A2naDEKx2kwAYxrNBa6lsGiqoXxgYiO9pfRI/+MEPWKYOzSPzeRxlHbJbKe8vNQbrViKRdLS1kKSdyLzSoGgKhnhupXoRW43kuLQAACAASURBVLBPezeq81m7WdUb7+CNyPbkEdpLvgm2WiWNHEpJXAbWWGKhcJljePMSSBMKSiC1hsgn5hGHhUUmwwEFsQCkoqBfCO1pC/7eatCPMoSwuLQHHWlaxGNUq1WKUWtI0tNkzhDLp3DaoaIRJN1lCnErzmSsNEWkKoGrkqQVnnm6ha9/4/s0W3jP2ycTRwWo+GzZYlQA8XwIEC9HRxorU6R0FEQRlwVVQhV9ea5qSixnUYgEZBahBVp4f7UV7TjrSIUgimOSpJUZ/5jBt/7f5Wwj4MB9d0fYtX1SNkr+fUarQ/9jcI5K5SWUlJQKj5FmKUV8gqpwPeFVN5GlKVFUgmqGVNbba/GyMKEqICypjYkKBWya+mUExQIkSch+1jw4q4c/3gMfPBr2n7AGIWPSJEGZkKVcq22toJrQJBcgCjGYhX4KNoFLEpzQWOuwQuKspV3NREQRLuv0KTui+dURxqvAhm2UfB2FUjUvls+ylUBwifZZ/dgXUkdgDWlSJSoU0HHsjYcs84aADGswXIYsFIilpVqt4qwlKhR6OWHI5E0zg7IWJUJOT8UXxRBx7O0jvLs6S6o+Kmw9p5TWJ0RZ45+DBZdlOKeI47h3vYWUaKBc6aZUasIlCXEcYbOUX1zzC75y6Qq6qtAc+EFiIFaw+25w1JFHgpjplXwVsoSFrXnO8sh3HsvwHFqGGAZIpXBYVBSB84xJaE3S2clnLvgcd93l139ZB1ngZy0RvOeUo9hrr718vKG31mqfl6Cw1RQpJZGOsdaShSxk5xwOhxQu2FfeI0WWgZLBvHG+jcZ6lVprImKcyUjSkO2dZX5s4yJIxe9+dyPWwhlnvIueSoVSKR+Dugni8rFQ3j0sHMZYlDEIJUkTQxTp2gp1F7K4RbEAPRuzqGbTQdc8W85RK5tSvwa55qP2LsiiiHtrgDnrJQZQW2uf76+S+sBYJPHrN0RYd4IO60m6wKbk6wWc1WglQ+qDrlWolEYCMYWaOpoFARh7DmTyPoROuZagqld800PVGKmLnrbz6ij5i6tV6UjBJJR0C8JIcD6ynbiIkeNGcdDeK3j0UeiRnkanT4NjjtmdD5w8jdZhM73oLgnPeaOwxkQKSEvgJAXt33he70yIsm+/i3HWIkUxWLLBh+wydKTYfqcx7PziEl58xtsPZQkHHghnn7YXRxyxB5FZ02vs2rB+xTm/ahCFjPAE6wxKgHaJf27otyDGGYfLaxfIwHSMDnXC4tz/HYphpgigGBf99Ur5VBjbzIsvLOLm62exy3jYd9I4pO7GZhW0lPSuDwnzRPWqhs6BwafTCC28apVUAYvUwgd/nfTzpir8ysjX0eNVjw1LFBHC5nXwma0b8b9Z1kto6/NcCJ++IMGnyFoTBMoGoq7OrbN9rwppAjpC2D55Q5kh0iWOO/54pr/t4wBUdUw1qdJOJ1GkKdh5YWJm3jjP12M4hzEGrTfeuVhDkELWWs4//3w+8YmUJjMCayyVkl8n1GwX+phOVunNCpYiLKfNmZ71SY+hYMWGIDfimhr6rtcJEmrb7bfnoYcvQ0mJjOZ4Zrm+Ptb+FL3TxBhMmvaurXGOKNLBG2yoFf57ndFvPcr6rwyf+Tx0ebX23Pipq15Sq7uVV1up+lVuSYzQihoHcEEiuFK4sc9bEXnAMeTuSBVSbemNHPf7rIfMjbtcB87bVX8eJnKoR9Z3nTkuw9rwkqRAKIEy3WAELfETCCEoJRYnXFAPfe6/SapIqRGRRDi/pFdYkNZ4zm2sr8Ypha923w9ZqIITVM2aURmho4gWMxehBFa9iDGGovUqisSSdfv0fR3HkNqwKjPEF1wcJK/3hPX2s85TJDK/KLBWBT7XJGzt97yd/f5fKtJqQhQ3kVarRDqhWq0yuviw3+4ui3HCIVFgXJ9qOEGi1jQQ/xxFFN5NAa3wql6u+uXj4gDh+lc2fQPw+vvWrKll967/uj5VUeAN4RjragPOIaOo9lVf/70xmfdmRbHP+hXCr0qkV/K5fBVjHkeJohq3faXId+itrQ51rlahJIpjb3cUCkglMXlkPn/Oxoz5a4SzFh1F2LQ3UziKIr9iM/PZ0q8IxoaCEWHs8oBWHgvKsw3eBHh5VtvHL8+b2UAHa++8jgMNqK8UhdsO0rm65/hqHo68+uEA1a5ewtWQP78+zaG+UmL+vHVIEgjczKfS9FM4g3dPuwitvKdNIiBJfTVHC1JqCHWtautAXK522lDjKo9vDLI2O+eYfbsbUlwEoPrWWLbB8MZPIiX6jM8Gq/DXBwrrFYt6IhtsRaCtOSp8qn2CkI4WXfJr/EMdM//vfd9nnvJSP/596snl45ifCwFWke8Q9tqKj9c/t2681sHTNr/aw6LfG38Tnk0v99pY9JEWA16g7cMJ12ujreN5G9MG24frbuz/bCLkfe1rS6zr91dww96/QzZB7e8c1r0p02MQQhmMgwTU70tRT4kDOlJPwRtq1gauf8UDVS/pNg4Daydv6Pkbanf+xYbUog08703iIwNRrxHkf6z7fKAk20j1cDPo7xsT/2+ggSEO3V9Y1nPcXHfbyLttBpS/ZeGNixM0sH40JEoDDWwEGoTSQAODoO96lAahNNDARqBBKA00sBFoEEoDDWwEGoTSQAMbgQahNNDARqBBKA00sBFoEEoDDQyCvutRGoTSwKbHJlxLt7mgQSgNbBq8SetE3ihov+aBfstRGthakKex168ErbssrAhNw2e+96MKqWhVlxJphXD59nirw31C7YQB2cMbyE5/3VFfbFDWfT+wXQ2J0sCrR1grr5V65asZhxg2v4VbDbzxyGsf1CRKLgnK/c6jvBZCmDYulM9Xym874VdxwoBdhrcANCRKA+vHRtgeaZKgVV2V0Veyv/wQQEOibJXYwJr5XLIURkC1Sg8SpRWJGYtUCmPKvlyVbcEai3Z+E1RMF3EUE0XPv/Ll1Js5GoTSwOBIEqyxCKWoVqvccuvNPPDAA3R1h02JQjWhUPWJSMCUKdvx8Y8dhVK6d9+ULQANQtkqkXu7dP/zHMHGqEqDiAWrOnfiBz/4Ab/4vwV+Y7HY130oBpPFBq2rYMEV1/hqj323ER9QDWZoENCr2x+lga0OSvqdiR9/4nFuumkB48fHfPSjH2PniU1kWUYh9bttOZ0hpCTOMlpaWoiiJW/6fiabGg1C2ZpR83L1jx/kFTSzSoZSktnz1tBZhW99Yg+Oe3sbzaoHl6Y+vGLDLkrGgkxB9AAagWXwmruD1Q3bfDE0ZGADbwoKhQJZltHS3Iw19Hq28iqYYZeBvBJmlqXeV1xfWHALQEOiNDAgIyPf9iYVKbqg2X+SYqeRcMMfVzB5/90YPWwRSGi1q5FK42SJxCU4GyFdhFSdvjRqPr1yiVWzVeoqeA4Bft0glAYGRZpmRJFmt1135ayz9+DrP5jJnDlnctxRIxkxYgTF6jK/V70skWUZWlWZMGEHjjp8L2QcD6SHIYwGoWzVWD8nL+jYu4d1kWEdo+jO4LE5MG/eMuJ4GT0JaOU3K4tjX2p5+vTlHDB9X2KrKdb2Q9n8JcaG0CCUBgZFXj1/1tNPc8mld1EqwftPPoGD9t6eOI7JbNjajm6/D4xYy7hx44hjSZplFIc4fWz8/igNbNkYZLeAfCtOk2miSPPIM2uZsxi+8blxvP/9E2nVK8CWQRewaYbUoUq/aAfXha1Kiqrvjr31tanrdkEYAmgQSgODIoo0SZL6HYAdjB8/nlKxBGlveoqMtHcD51sbSuk3pM2r7G8h8LWHt5yUnAY2BgPCG7Lf9yLfwMhBMW7igD2a2G07+NuMhD0P3IVRxR6scwiVYTJDybZgjEHle0DGPWF9U/0uAvlzBtkf5Q3DlrA/SgObD6yFNKW9fRv237+DX/7qERYt+hynHNPBmLFjqJgurDU00YYQgqLMGN4xnB0mjtmiEiKhQSgNrAthjidxGaU0s56aw61/XEUi4I9/W8od9y7FudmUg2BQwQ3cIWH6Ydvzo++9nebmJuJ8t2hRn0s2dGyTHA1CaWBQ5NH2MWPH8M53jqPTjAdAx0309JSpaEccx8hEoLSilKxi6tSpNJVKuDdpZ6zXCw1C2RpRm8AbiKOIAgjJ3rutZe+vHI81FWShQL89Ip3Dhb0rrRiPlBJpU2ye3rKFqGBD3NPdwOsJm6SQpthqlUolEEmaedsl31/e9u54rHVEkngi2ZLWokCDUBpYF5wEJ3GxpuIs9zwI//LJa7njb8/TxQRM1EammoESiBLStiNNG6QZxaiAkFW/Dl8Katsr9z3exP1sXwka+6M0sFEQQiCk4IUFC7hvBsydO5co0pgs8zZImES1XXudA+Oj9VvaepQGoTRQkyC1A39IF1OQRUbvNoq0CEvKzaxIO4h1AWEFCOXjiq4MOgMRgYyxooShiLdlrLdl+hwmHEMJDWO+gcGRpSAle+wxlePfUeLOO2cxduxNHLNfiWHt7cTSYp1DWeMliIJIRxTaOhDCbVFlVRuEslUij0D3r9OF9OcGXzlSih6EEDz7bJGHHuph5gJ45sI/850itLUVycJKyIKMkVJSdGvZd9/J/OdXDwGgOS8lmdsjgXBUbS390FFoGoTSwKAQUQRZhpSS0WOgaeT2WGsR1RSpFGhBNakiMp8X1izLtLW1Yayhra0Nejrf7C5sMjQIZauG7v9Zy8EK5xUDcTOH71HhoMvOYlXFoaREqwpSKpqzIkIKetxqrLX0pBnt7e0USxGuvBYRiuDVkoaHgKdrMDQIpYHBIQSkKQhBoVhkRFPJf003ADrzZY1aZAZC0CoVQmlc2lMjkqGMxnqUrR655MjP+3ugVF5wW2ofR7C+mF23HcPChQu58Y6lPPXUUyRlGD16NEcduD2HHHIIozueQgoJtoCzIEUVpEDUcrvCdBtiHi9oSJQGNgAfS5FYa/ndjb/jiitm8PxSL2gUYNxs/nQTHHzwLXzhswez0047EQuQWvnFXFsIZL/9URrYqmGEP3pjHgpkRI/clhv++Dhf+uYMui18+mzNHdcfx19vex9XXbw3Rx7ZwQMPdvLJC+9kztqdkFEM9InLyFB/lTxGE+Irbxpk/2OQOFJfNCRKA4PCpBmqWGT18tX88pd309EB37jwGxxz0GqUlKRWMmGHHXjL9J344aU/5H9//SS/+tWvuei8g3uj9VsIho4ju4HXEZ7DK+sPJ/yRqjKJWc2DszqZMRPOOKHEOw5JabbLKbKCVrucZlYyQj7Av39kEruMb+GBvy8kyVKIdK9kctofIvPHOjj25o6h1doG3lAopRDC53opCQfsvz/GGFDSZxBL6atFKklTSyt77LkHK1euZO3atb3VJLcQNFSvBnqRr5mvq5bibIEs8+WFnRVABEKQKonFUoiKpNUqqRMkDiKcLy6R7wdR2yMy7Oxl8/M3pFebBA2J0sCgcM4hhGDHCROINPzz4X+itPKSJMQXCoUCWZKwevUqnnjicTqGDaO5pblhozSwBaF+nUidUypGo2XM3rtHHLQnXHNrN3c+ZKnKYZRpw5l20qSZVelULv3p48xb1M2hR+yM1gqEw6HxO4tk/qjZKrntwmbtbW3sj9LAxsE5TKVCS0szp5xyOPd85W6++MVv8vSJJaYfdhgjh23DnDlz+O3ts/nb39ay5x5w4oknAs8P7XyVdaBBKFszXDC4VRJOhwEgCr5METZFKcEwt4DTT9qTVatXc/XVj/P1y3qIr/gTykFqoFnBvvsKLjz/SKaOeTnc22GDjaNqO3t1+Q9Rnxmw+aNBKA3UIJTsXQsvw3pd6xBSglKc+aEPccghc/jt317goYcepHuNYttx2/KOY3bloIMOYofWuUghvA2zhdkoDULZGpGv3BWeOGa9OIHly5ezzw5raB3WAVWf9EjBQJqwuHNb5s9/njEdS5m407Z8bffx2H/ZjkpVUywW0WI1mXkMnC+n6oxPfVF5jlfu7aoh94YNHcnSMOa3Yog4Jq1W+eGll3LeeT9m2bJlvjidc5AZMBnoiLlz5/K5z13LzTfdjHUOay1aR8RxjNYaE5IovREvEVpj7dBLfFwfGhJla0TOwVOBUk08v6yVRSs7Wdi5A8OySbSIFYhYkFgBFrp1xnNLYWV3B1W3HQW3mqRiQKakiQC2RwhBYv1OwAW1EGGqIJrC88JKytw2cXXtGAJoEMpWDGstzjoOOPBAZsy4ka997XIOOGAHxrRUEUJQFQIpBI+9UMJkMHPmIn7848tpYgVploL0qx+FiDDGYBzsssuuvPu4SQit3uzuvWY01qNs7QgcXWqHzQznnDyGZbPhzr/A7GdfoCj8zg5VvG5eBSLg4cfg4ceeAUAJn2Zvnf9bCtAWDn/LTE4+dldEVIBaFkv9vvZDTy1rEMrWDOsj76NGjeKrX/00J59aZPXq1WhbQWtNxTYhpeSJWfP58RU3c+ghEzj11FMx2QqkkkgnEcJ/OmdpkmsYOXIkIloNaeJTYLaQeEpjf5StEX1WGAoBJbOKUgu0HrwKgDgqkiQJTiUkScJee7cwrL2NffbdjqlTO2mLIpRSvt6wtWSAcwJtS0AXiAiH8HvNIzZD71Zjf5QGNhY2xEqkAtOb1wVgjUEIgTGWOI4ZM6aDD37wgxSK3u4wWdlnEeP1eDdgWweH0BqQ/jlbABqEslVCBrPBgjUYuwoVaUphUjsXUZAaKzQ2s/Sk7bhyhE2rtDS3YJMVKKURQiCVxDlv8KYyZAXbkMeFrZMiQ882ydGIozSA0grXJ+5hjAUhMUGyPPXUU5x19re57rrrqFarNckD4GyvJJJSIaWCvPbwFhSdb0iUrRqBT9qWsM9JD1Ipqsk4Zj/7PMv0tqRZyqPPOP4xF9qeG8mOs4dTtAWklBjlCaGE31nLZlXa29uZtN1LWGuJleytXj/E0SCUBoAQM4i86jR37lzOP/8aHl8KTU2wttsH6u+4YxZ3/eUCWgQkCZhAZ6VACIUIDjusjYsvPJFCofAm9eT1QYNQGgARsodTg4hjmtsidtgJmkZDHMPi5TB3LmzTDuPHQ6vy9buTMHuagtaWCth2W01zKfKOApMnleXPeWO79VrRWI/SwDqR1xoePWY0P/jB5+l2LQgheHhmJ9/97+9y/PH7ceqpp9JEN5GOSLSf+U02AmBtZYmXJHZxcLUOMcpYDxqEslWjLvcq85O7NV4AMQyzzQAcv7/iqGvOpKnYCixEiiouzcDF3j0c+82DhjVLbLYGXME7uGpxiaHr7crR8Ho1MDiCN0srRUtbG1JrpNZgLSKOEEr1i7yn1Wrtb5dmA243lNGQKFs1ck6f88t8coesX3wpoiVdY1m5aiVVEZOkCSUxDmssVtiQNFhASUmSraSpqZlJYxcgFGDziHywgWjxp1Tqnrv5o0EoDQyOIC3mzZ/Hl750FYtX+ZJeKvWlizLbGyoRApSCw6a38r8XnUhmMoqF6E1s/KbF0CHpBjYhbP8jr4qSw8Xh0GAkxY4OdpxUopzAC0tBxXDQIfDWtw9j3Hgol6GrC0ojYfSOk8iERsVNOBHqdOerisMxVHYF7ouGRGlgcASJsu24bdlzrz25+Y8PcOYHjuL8j+3LiBEjcLKJJEl4eMZKvvWf/0nc4jjppJNx7mmE2LLWozQkylaJumrued2t+nOTApYXFy7lxhse4Jgj4HOfPoBdhy1luHiWEcxkbOE5Tjiqi0u/fTBzn4Wf/eRav2Ow9fuiCGdr9b2US1Au6VM1fuhgaLW2gTcWwmcXz5kzh+eeg8MO24vm5hb/fcgHc0lCtVplypSpHH74WGbOnEWaZugtLDLf2B9lq0YuQTT9tPBgQ/TEMRWteWlJN0LA9qNGEzswWpMpBdLiNMRO0KQ0ze3bsmI1VCrdYLN1PCe3i+ol2huNV74/SkOiNDAokiTFWsOIEcOppjD7mdk+Wzjsz2izDGMtMoqoVCosXLgQnzwsSZPkTW79pkWDULYqbICTOxuODFxGu0xoMmWm7NDKrmPg93e8wLPPR3Qm7fS4EbionUw0s9zsyc//sJhH73+ZvSfvRkv7WAxN4PwhnEY43Ydr07teZYisUWl4vRoYHFEEScLuu+/G0UeP4spfLuUzn7mAc8/anWnT9mJ4m+SFBQu46U938etfzaalFU59z6lkZrlfl7IFoUEoWxUGXxMO9O6HEmIczihSC0o9wqc+eQjLKg9wyy0vce5XZ9MxbDZNAsrdYLphzCi46IK9eeu+KVob/PriYKfUKkbm003Wfb/5p7s0CKWBdcJZhxUWpSQGGDZsGBdccAFHHfkAf54xn/nz56OqkpEjt2Hv3bflLW95C/tPXIu1FmstUm5ZWn2DULZG1IpB1NkHtR23Mu/4EilCa2RVI5HsWHyGHY/s4L1vbSdNp6LTsk/NNw7kbFLRBAoiW+xjg0BvDlnW7zmbe3S+73qULYvsG9ikSLMMm6YAJNWqj59YS6VSwVqDKIXkydivjMylCUJsUevloSFRtk4E2yCRBmstv7mryk9/+mvS0hSstUTOl0o1zv8uAWctiew/XQrWu4ClKwIgssUcfPDBfO2sMcStLSDK4Xnh/wbUzRo6fLpBKFs5ojjm5aULmTsXXuychZT4oKINCYyADBM7rVOVioTgvQvZwxY6Op4h0ttBmkH8hnbldUWDULZGCAvWETsFaD7x7vF84KiTkE4jpUQ76StACr9y0eIlhg4Ek0lva+SauyALBfQMSklEQfrIvM2r2efrT3KbZehNu6HX4gY2Hazfgq7UVKJYKiKcxhqLdNLvmhUIwlqft5VLFpsTSsgQVsJXjcxMFa0VrtrjVz9uQWgQylaJ2JsHtVR4v1IRUUVKanENZyOcc6Syy2/voPdl7ty53P1INzOfmMmKbsmYsWM5Yq8C++23P6PbXgJA6JC+ElY21vaZH+AFa9goDWwBEDoiKXcjCxLnHNdddx0/+9kMnpjvbZJuB1rAbyUcdND/8e+fOIo999gDiYMoBjO0870a+6Ns7ahFzPOdsOp/D5JGVigUIl5Mt+f666/nwv+aSRzBme+B/fefyui2YcybN58//WMpM+5POW/VX/j+99/OgeOfBWuoSZBcstTvk7KZx1H6okEoWzNkn5nq8gLdDpG7b60FCcuXr+DGG2fS1ARf/tJ5vO/oIkppWpTm8MMP513v244f/ehHXPzTJ7nmmms48EsHYtMMGYX75pVanPO2zxCErO2PMoSou4FXi5A1nL/vvJC2VZ7LO40gAuGPVJZIXMzcJwxPzYSPv6eV9x/bQbtdQ4td4wvdZYsYUXyUz5wzmcmTCjz6yGy6ulcjCwInNBkKohIueNgQsX94/VYRbygGqRlQqx0wMKt5aJJ3A28InHNIJXl5ycuUgD333AspBSjty7FYizEZGENLRwdTpkyhuzslSXw0XwiBsw7SNOyXgg92qqGnyDQIZatCPafMJcw6uKqwRMIgTcLwYQ4BVHqKWNOOJQNhSYhQTcNIaQLRRLUro7XYhBPNIFpwUiOUJrPSSylpwSYDq74MATQIpYFBYYxFKs2uu+zCiA64++67AZBhPXxcLIKzRHHMggULeOihJ9h5551ob28Ha7HG+ABmFPmcsTy2kqV+p68hhKEnAxvYhFg/VxcqppoYxu9W5JQzxvLjK15i1A7/4JyzptLU1IRGk9mM5+dbvvWty4lK8K+fPIOuLEM5jQwRe5dUKTWVkCzEOoGURfyewj1vSC83BRqE0sCgcM4RRZpF8xcxZ85LpClcdtmNPPbIjUyaNIJiscjixYt54nHHCy/AdjvDFVdewTC12G+VIH02sTCGSRN358MfPDQENsWQK9zdIJStGbV1IXm8o//3NkvRpRLLF5e5+08+UVJKuP8huO/BFfTgv8sz6svPwezn5tEagzHgjPdAtxZhwUvPc/r7j0RKRUSGkGKzd7Q29kdpYKMQxxGYjIkTJ/Ld/z6BbjsKHUUolVCpVMgihbWWNGsjjmMiYxFSUhAVjMlwmaZQKKBsFyNHjkSrsl/56DJfzYU+hYs3czQIpYFaLpYLOV4it12sd/Nu17GA7Y4dgxEABvn/2TvzOCnKO/+/n+epqu65mAFmuEEQUERQDhHFI/G+YuIZTbLZmI2b+9Kcu/nFZNUcms1Gc+2adTeXOTfKRuMaEyNeCZIoeIsCgnLfzN1d9Ry/P56qnpmGARRUeuyPr3Kmm+6q6p7n+3zvzxcF1CGyGi5ngbin/4Q8fmlZvB+igG2lXvwegtIDX0AyVKNeVVSxF6hqlDcySuwnZbVY7JotZeeAbtpnUlIM5b34ffdhUcHdwVWNUkUVe4GqRnlDItMU+fSx1wCijF+r5LOkGiNrBQ5SJvq+PkrPebKGr57rVP5+XPmfoIoqXiVU+1He8MjyJmWsKK7cp+j7OCg9nz2T9bNk58k6Gcs6G8t9k1Ll8IHPEJmhqlGq2C3c/uLnqoBcye4Q9JmPUtmfpYpXiv7+7kpg4wSCOqRU6MQhpURZ0jKUjF2lxpfOC8AaEmEJVEBsC74RTFvCIECa8rhZP4yVrzrK9ENJc5b/7EHV9Kqif6T2ubGW9es3IIWf8qtiTRRFOIqEQYi2CutcaSaKq3VEUURNXQ4hBLkowlrzen6SfUZVUKroFy5xSBnxx8divvyl2+jWLQRK0WlaSZKEMJ8jjmNyuWacc+RsK0kcEwQ1DB7cxOypg7jgwgs5bkaMi2MSuR2A0Jazshz4qApKFXtEQ30Dg4fAC49tprsIg5ph3EGjqKmrY8uWLaxYsZ5Ew4ThgpEjRpAksHLlGpY9CQ888Axf+8JMTjzxxNe3+3cfURWUKvqFcDkQgnkHj+DytxzNs8/9lbPPmsSn3nMokyZNIudiWne0cucjm7nhhj9S1+K49toPMGXIKjZt2sTP7nyJ//qvp/jSV5fwkynvZeKQR0BJEuUlJrSVo1EqWMareE0gJJs3b+aXv/grXuPL5QAAIABJREFUU6cO4nOf+xzjJ4z3+QUpaRrcxKmnnMIXv3gBy5fBHXfcwdChQznssMP42Mc+yhVXzGPVS3D//Q/4Pvu0j972rs+vAFQF5Q2N8lmOZT31SuCM5uHlBR56Di4+pZHxg56nXsTkAg1KA0Va8it486w802eO4P6HnkK3rod4O0PMk7xlbh1BDTy8ZCNdFhKpiJwlZ80BHzKuzkepYq8hpGDlypVICePGjfNPBsoT3KXdikJI6mpraWlpobW1SEdnBwhBGAYMHTqU+gbJxk2bUKnJhfUk4VWNUkWFI9UsrgjE1Dc2oS0se6YdoUemAiIBg1MQmzrau0NeXL0DGdVi8hEuVBRdDWs3d7K1wzJ8XCM5AgIjAFdxK6/CbreK1xI2dbYnTZrEoEFw111PsHnzZq8RAIQsZe4XLFjA4sWrGT16NPX19QAYY7j//vspFmH2UUf5t2Q98we42VWOatTrDY1d941kNVgyECBh1iExbz0ZbroN/v6ff86H33sy06YfSiiKdHd18dM/vsiPf7yURgnvv2Q6rfoIlj61lPm3/YXbbm1jzkQ4e24e6EgvF/a5TiWgKihV9A/nsHFMLpfj/R94N09u+AuLFq3gI4/8kOZmGDwINm6EVd2epuvqjx7BMcccw1NPPcnll/8Qk8D4CTVcddVZNDcPBdfxen+iV4yqoLyh0Z9GyehPQUqJ1FuYMCzHz248nTvuuIMF96xh4wZPhj91LFw0Hc4443TefMw4cM+xsbaNs06BGYeM45yzz2HUMCB+CTJF0u+g+wMX4tlld7kp8fyUaXxvP0D5F1s5iaMqeqN8VFx/f0dfctLp8n5UXTKKQqGAM45ABdQO6kYqRWjXgtG004K1ljpqCMIQ9LrUL0nS82X+yQFS/1UaQ9G34WxpeD7f+ta32KyOq2qUKmDnCVjZTy8gRqbsKnoIxljiWomNIqKCQQUBztaQGMcO24KUivpgI046pG7DxA4VJD4AINIar2xBuspx6KuCUsXu0Ss69eADD/Do4sWs3FpEBQH1ViGFwCSdWOeIA8eMGdP4uwuPxRhDPshajZO+c1FK+ZMKEpTSfJQq3oDYi34Q5+jUU7nhhhu49qdrcA5GBmB0gkm3WWP82q+TEMcv8Z4LjqW2phaSrF/lQMtC9Oeb9Y+qRqlitzDasHzFcn5z6xpaWuCii97KydPGoQKFCbJJWhHOOerkDoYMHkwu1+WZ7F/fW9+vqApKFfS3s1pbQOUjHn5mB5sLcOW7hvPevz+c5prt6KRAIEmd9I7UnHIgtgIRUrhd9Mq//J38QEFVUKroF0IIXOIjVVrDkTNmkMvlfHuvED0zIJXsy06vU2ddCl/TNQBQeaJdxX5A2QzDUhVxduj0sAjhOGLCUJpz8NcnX6KLRhIhSaSEyEKQ+BmQsgZEPahBYDqB7p2FJONmqEBUNUoV/cIYg1KKyZMnc9zx9fzm1meZNHkBb55VS11tLdLFPiFpLZgYY/yUrnxD5KdqDSBUBeUNif4Sxn25h5UyiCDgudVreHpFB8+sgw98/nbGDxtKQ0MDWkhPGqE7CcKQOr2ZOXOO5qpPTEKKgChXdpkK0ybV+ShV7BWEkmAMnR2dbNoENbUgpWL16q2E0VY6iz49Egrvy9dbGDNmHUoeQpjL+UlCAwRVQXlDo5dmEQLoxlqLlJEf9BPWQ7HIqdPh3l+eD1g/CEhorLFYYfsQ5Im8QEpFUFuD1nrnxVXB+bqqoFTh4RwIkPk8ujMmiEIfvRKCsL6esWPHIoQ3Q4Q0iCD04d5MUJwlTsm5nU0FqsK5vHqjKihvRJSUQMoRnLHPu1ooOLSaSjGxBOp5hBBEth2ZE+CawTq6rQUNkYtxzqGFX0aGbqIoQppNkM9D8TX/ZK8aqoJSRQ+cY+2aNdzwgx8zdepU3vmOGUgp2bplCwsXLkTrwQgh0Ur5icEuxjlLZmTJUDN06BBOmDkBGcfsavRQpaIqKG9EZL5C70y5ECS2hfl33MaP58fU3f0Y555+BM3Ng1n4pOCKL65hs16D0WD9yzH4Oq8w1VCDBJx00ijmHnkwSkOYyUnl1UDuhKqgvFEhBYh0JTvvaxhjmTVrFkfPeYIJEyZQX1+Hc44xY8bwjncewVYzFGssRoa+ahjjNUsqb3m9g4kTJ/oR2VE6Q7uCUZ2PUkWaNQ+9M24Fzjny+fUcO2cYt814E0IKwroQ193JjEndzLhyDlivElxZg19JUdgQpMTqGHTG1AIDobGvKihvZDjnbSgpEUrhki5EFBEFygtSHCOk9Fn2IPTRZOdK+ZFSvVdJbiQEAei47PnKR3U+yhsZIqv4tWA1QtWk3blhuhZiMIZi1IAQgm45DmsN0uQIg5CiibDG4VyCEIK8iyGBupqncKabHoOlfNpwzOuLvStxlGl3vKSqUarYE0K/RDZt2sStv7+XB+5/mm0bfWdvUfekUYSEGuD444fzxc+dRpTLVRIb0R5RFZQqdoFsJqMEFfDijuF8+av/zh33GpyDsbXeYium0S+ZOfMG2jo7sK4eYwJUxuPlPCEeIu57/goqXq8KShW7hzU8//zz3HuvYfbsIVx++eXMHj+YOI7RYYAQEqHT6JfeSm1NDWHYjrNuQJnyVUGpYmeUpvzmwQmefWo9JoEr33E4Jx2dp0GsBGNwgfb0Ran9JYM6dKENJRygwdWk50tZXDKNYjMN83rbZv3NbtxZ01WO7qvitYdzYC0tLS0EqteE4DRSlsE654Ul7V9BJ3746QDCwPo0VewlyvMaZcsga+uVRZwxnHxknqMmwM9/8zxjJp7PIeMbMNYSEiGlxErPtpIkPmxck1+BThKCEtVRpjkyXq+MnaVyll/l3GkVrz2sRSjFiJEj+Mf3z+WTVy3isvd8immHwpDBCqzCOYtB45wvZZk543Ded9kcgkAdMESQ+wNVQXkjI9vwXdnPDC4AJyiqZja0KjYZMNth+Z8hDAzC+ihYkL6vVkJb8hzv+fsT0LGmJko1ic2np/fLTYiOXV/vNYft5+fOqApKFf0jULhE8/SzT3PTD/7C0CHw1re+lRnTRpDLRUgXpFXE3pSqEe0MHjwEKS35fA3Y9tf5A+w/VAXlDYnUES/t6NlgoOxxuiySHCKo5ell21m7Gb5+1TTecu7hDA63oEKDU6bP+40bjNEaJdrBWJzLI6ToiaJlUS+XzZmvHFQFpYrdI+PwAlpaWoiiCByYRGOtS6cD+zyKscq/toJmM+4tquHhKnaCEynRfJAABWYf2cwhB8PvFqxkY/tQEjUMHQxHuOE404KOB2OSIUjRhBRN2ASckV6b9IJwaXlZBaKqUaroH9ZCEFJTU8NB4+B/frOK9es/w5nHDqWmphZVasjyJpW2jhHDR3DmaYeBqfzS+t6oCsobEf3t6iL7kUarglooFlmz/AUeXeizIX9ZVGTRw+tQCrrSCdhBxmav4KSTOjl27mRqamqJVJY/Ka8iPsDyKDuV2vSuRfP3fIDcaRUHJJIElGL06NF88AMz6AjG+Cx8MSZQAbEKPflEutJCs43x48fTOHgQzmS0rJUNkTafBW4AOl5vPJSbOeWdhf3VMmXRqLL3l0yqAjjH6JEJH/rAPEB64m7tkFJiRCvOOXIEaUPXYJASY9twOAIX9r3OTvd3oGDXAm1DSSItzrRVBaWK3SCKwFpCGSKkwGjro1ypBhGlEpVeka6sQFLKis/Mx4lnmbHWETjbq9Dt9U+VVrE/4Mp8glKVbnm+pL/3p+9LACtY3z6GP91zD1s6mzyPlzOeQML6hGMSObQxNIluRo0cxYVnKpJEkyvNk8/wOvehlDRlP4EG19cTyVtNzmpEMLbqo1SxG6gA0Kxdu5Z//eZ9bOnwrfQ2bbUPrV97cQRGQ62FNx1fy/mnX0wYBhWvUaxzCCExu6KHrWIAYI+dhHu5sysBKmTSpBxXXHEw13znBayDS86BN514Ik0qYNmyZdxx52qeeQYOmw0f/sgHwW1AOEnPYPkDJFRc0qR9fTVXivbZ9LHXwF2RpFUa2lxNVVCq6B/FYpEoioiiiGeffQGAa6/9HOedEpIkmkFCMGfOHM46ZxQ33HgDv/vDSgrd3QBobQgPNJ/9ZcKknZtRFB1w4YcqXhZ64vx9EaRHPj2y15VP2sqOXSNSISY2LFtax523wwfOElxyjGZwvI5hbhN51lMbbmH0kGf51IeOJD8U/v0ntxLQSGjq+5+w9XpP3ipd34ewhbMIZ71v5iTCBQgX0KJqGEqOpmRTVVCq6B8i8IyQK1asoFiEmTNnUlNT6xkgrfVHOuOxpbmFmTMPY/nyTbRv3ebnOlY4nHPEsTdjAyHFAWNCVvEykUWnyHrQ0970fvsrUku7Xy5gWfa8QYSSLZ2GWEKXi+iyAaFU3ll3RYSUtGqLUJLY5ghyCpMUfZek6C+89jozSPZ3W2XPdypNV6DBaqTo98NUUYnoPU5tX2G0xmjNwRMOxjn466JFaGOIampKnLwm0Ugl2bFjO0uWPMagQYNobGr02qbCIYRASkkQBARVQalEZDt/thh97ZQTEocj26mdU2k/iO8oFOX5lT3Eclzgy+iPnryDeYfBz37vGDtjNe85cwphFCGjNmJi1qwazne/8112rIZ3vXUuIqxN7y+LD5eZYRWy5CJbS2TraM3LXt+UG1g8TFV4OOtKpPWvBHEcM2ToaC67bA4P/8vfuObqH7L49zBz5lQah1qWL1/Ogw9oXnoJZs9p4sILLgD5+IDQKADWWqy11fBwZaLXIpQCndQhheDJJ7ezZMkSXnhhOVIppk+bwdy5xzByrErDtenAnyD0GcI9cAAHJiYQjoJYz+nnzubbwVBuvvn33PMQ/OHBZwhkWonfAOe+YwQf/ocTGD92BVbHOOtQrrIdemcMSgi0rSYcKxrOuVLd1W3z57Po4TUcddRRnHHGGRhjWLZsFd/+9o28/Z2zmDFjBlJI77+kkSqxp3Vc5uecccYZzJo1i6efSVi/bh1JImlqamLkBM20adOoEcvRRhPCfvGRXm8kiSZQAUJW56PsJ/RXpdtfVe7+uq4EK7j3j8+w5JH1fOJT5zFi+HBMOjzxqGMP5fHHhvOzn/yBsaPmMqylE+ccUu7ln902AxDS5R1b8RKjmi1jjx+LNS04+SJCOpxsAF4EuwOTGESuhSAQoNt67hNwqU8l7F7WnL3OkLKIpZuwqlEqGyII6GpvZ+HCv/Cud72TwU2KJY8tYfDQBsaMGcP6detQgeLwwydx++238553n0AQlhcq7h6ZZnDO0dnVyUMPPcT99yxjzZqEM84ewiWXXMoDD9zHS6tXc+F5J9DUNHjA1NYGYYi1BuN0Ssl0gEt25SDj7N3D/tMv+8nLhBnE1s07iJpyjD30IP7zF79j1aqVdHbWcOppo7j/zlt4xzvfzlEnnMavfvkrpEoQ0lLqMHT53V9fdiKsJZGjWLNmDR//0j38+c8vEuagUIBDZ9XRnozl57fdwR/vWc8zy/7CVVddxRD3mH9/0FejZo/UAbPe+uMa7vW8kwTIama+kmG1oVAoEIYR7e3tPPPsM7zzXe+iqamJm2/+IWeccQpHTJ9OQ0MDxWKxh+zBub1jSnEOpKSrq5ObbvovFi16kbPOmsbV13yMMWOgu6ubIAi57L3v5Ygjctx26xruuOMOX14sK39puZRaVghRFZT9i7SmStj+ex56Q7BP2lzmYpoaJW2tGqMjJk5o4Ve/+AHdO5YzaWzEoscf5b6HH+KF519iePNoFDmEi3AiwIleWq+/2iuRA6tY/kITd90N58yF73zpXN765okMDqBGtlEfdDBv2iZuvPrN1LbAL25fDIFOK5jTWjLnD+VICSn6q1E7UCGrPkpFw7kS19b999/P5ZdfTqFQICcaiKKIxHVRKHTzra9+n1NPPWU3JSX9nd+XoSxbtoz2djj33GOpra2jq1OnzY8WpRTawKRJk5g1ey1PPfkU7Tt20NDYOJDGzFeUWB/AyKp1M/id1El/GAlGlopTS8e+ItFtuCDmorefzJLH/8Jv59+BIiTKgXVFNm1u5Tvf+09aRhhOPOlQsBHYCOFyCJfbmwuAc3R0dKEtDB48hFwuR6K7MBYsAcXEIZQEJQlzdcRGoK3zo7ldlLJCllcvVx7xRFWjVDCyeqtx48bxoQ9dxq/n38s111zDoPp6tNZsbevkmLnHcME5x+7qzXuMTjnnEMYybNgwBLBw4ULmzZtHLpdDSoiikDAMsdqxefNmHnvscUaOGEHDoEEvX3sd4KgKyv5AuXpI54WINKr0alkggRKApUavZdJIxT99+ELWr1vHs6vWIoRg9pShNDY2otV2gqgT4mJ6fxFeSjIO4l37U6IuD0nCrCMDph4C//XbbYyf3cHMoyezTUNr0kCbbmBb+yxu/N6NrF1Z4NzTJxDkGil2dJCry4IH6Y+sk7BCMvaiV0a2KigDACIIwFocjlGjRzNk9HiMMdSF27HFItr6auIQ9/J2+mIRpKS5uZl3v3sWn7p2MZ/93NeYNaeF1lbYsH49N998M3fe/RjPPQ+zZwZcesklkCwjV1cLdL9qn/m1RlVQ9gllVbxZxjllazduGM45isJX0wpnkVJgna+q7W35ZFXce1f6kV4nLc5VLkirhv0/aaFBQmxqcMrR7QJCFRCK1V579GHeYTe1LCEgQL7IJZfOhSFD+I+b7mHJ/ZuxDu5d4Ljv/scI8nDmGQ185iOnc/CotdhiB9JKENmErTTMWqGJSGddVVBeTaxYsYIHHniQDhMSKIUslb/7Fb4rg+dlCUoKVZbgNCk5Qk54fq2CiJg48WDOPnmSNxNt4oeV4hDBng1DJSXaaM46+yxmzpzBmucj1qxZQ6HQQUtLCyPG1DBq1CjGDNmKUgHSBgOO0b4qKPuCMpJq358OLp2rfu/TCVd/bw2tCYShQBv/dcfpYHarLUbv+4Iqz0pk8aQ8EAaSQFjOectQTjteY50jJ+ohEAg693DmTpABG7a1sG7dOmZNXsHhQ3NMPXozZnZIKMdAEIAoglkBcTdIAbIenz8p5ysq84kqyN+vDK+qQpHL5eju9hXtcexIksQfsSGJDdbsv113VzQRUkBBW+IElFRY51AyrSDei34RqxPQmkcffZQPfvBH3HbrrX5mo7GEoSe/yyYHA75PXgjfUz+AUK0e3l8oTZRKa6jS7Uc627MTOYHJVFApGCT2bVdNo0eil4i49FoA3c6WTm+dQgrf/ejS+9zTpWW+EWc023YMYut2iPUYEj0WGayhsxhTGxqs0UiZ5iapTctebHonmc9W1lEpdt8Hc6BBiGqt16sK53oac1+P/gyBL0AU4MkgABUEyIwhZQ/3ZHWCyOU4Yvp0xo6FZ599lkKh4OlUwxBjLcbaHu3Um3+46qNUUYLoG+XKVEkpCFZGcJNFfYQVXnD2OQyURs/Ko77pea0D6YAAEtONwGKSIkHgkAFgsjdl9595N+nnCEN0XKSxUXLw+JAfL+hiWWE+xx46kcbGJgJVIAgUJhUKZbcwbNgwzjyhzkfSbOoDlU8dLkXZKqdduCooryf2eyNXdj5/QpkxywtQgUKmrCLWxF6rpPMWXTanMZO4tGpYSIGwgpUvvMCf/5KwvQh3/t+j/PXuR7HGL3OFF9cg8OJ27LEhp859H0FuL0pkKgBZxXUgoKd6tIKiEAc0UpWSt9upw3d/BAEY5x17J1yfJEouCtFGg/bxegWEAYTSv88KzzMXp5Otsgx3klo4SqY+dVq/lXM+A58XEDsfDXbdGxDuEH972D5C6ly6IAwgRPpYgimiBEwaKfnHdzSAjZFS0ikDtNGYVMAkWSl6zOTJk1FZeYwo81FEZdV39UZVo7yKaB46lOPmCbarKThreXzpGrZt9eaIUD0LvlhMkMrvU6NGNzNr+himTZvGxPH1tLS0gHQUi0VWrt7Oc88/xyOPrmHZspUUuzP/Z9fNUIcc0sKI4cNxZjXTp03zT/bWHqkGkUHgvfG0h8QLiSExmjAMmDBhAp/5zGeQaKRS7NBeAGTgI2nCOcIgpFhoJZ+vQbjWNPr1Kn/BrxGcq7Kw7Bt2srmz3nAf1Tl1TsSbZ/4DG5nO3x55hI9/fjUhELsQKSRKF3FAHTB2FLz/0vEce+yxHDG53tv+sUWITYjA78R2jgSmsH7DaFasaOY/f/4CCxZspdX4e+lSXpNk67NluOCLX/4wk5uWIKVEEKczG6LUPBO4xCCCxD+WObAGpMRqTZgKny4WkEoSiA6cdgwVBmMMUlp0kiBtESUD6nODwBUh6YAw6gkbl4S4nMGycmJJ6qMf/7svN5ul/tFem17lLxxYEY6Xjd6Tp6BE/CaFLwF5+sVuvvylm3hxbeLzHUJhbexptCPBWaeN48tf/ifOOeUImoc2k4+K6CQhDCNkFHkCB2vRzqJUwKDGZkaPGc2bTr2MIUMSnnh2C11dBZKydbd5TSe5XCdnHD8GKSUhSUlAfFRKIMIQZ22qZfz7nLOe0sj5MvsVq7bzrX/7NnFxBxMmTEAKh7UWpEFKiQpE6tPkfbjYaYjjnmrQErHYTl79fv0zvHLs+j62qcNYuHAhXVQHCe0npHkBkUW9fBRJuwYKcYFvf/shnlvmY0oCEELhnGAIMRec1cJVnz+HxsYd5NiCMwZcLaGIQLbhrANXixCKAD/uzZlWFDA89wAfvWQILc3HcPXVd/HcNj9NrqhrcdbSSYEf/vgBTpkRceyx86iJlNcYdKeCUgSnEeT8naU1YF26mba2NrpyB2ON5f4X2viPO2Fb5Jh4wjSU3QRATcH7RLHx9EeR00gpGdWwPs2lZEWRlRPd6g9VQXkVIYTgrt//ngULnsMXxEMkoGg1IHnz8QGf/tSnqavb5MPFSiGC9IXGoKVB7ab3XBe6CcKIk08+ha1bt3Hl1xdRiDN5deQkdHdbfvKTPzBr1mxQ2msUIVJ/pMwSSCMDq1at4nOfu4V16TrfVvAK4o47lvLXv74fEj+MK7UIMfiAQmDh+BOGcd2n3wr5mv37Zb6OqCYc9xXSpjtn1uEYpgwsvoNvRdehfO/WF2iP6tmGwso8BZFHhZr6Bs3nP3AU44espC7oIC9a0cKilaBbdtIdFjDk0eSxQmNF2ocuYmT2Xz6k6BIaa9fw9vMP5+R5E6iVIF0XShTpdlAUcMcj8NN7NvkQmhQ4J9JIQjo/RaQdh9KH2BIERQOdrRB3QaHbC4Yz0NUBFMB0QHunP7rboNgJ3d3Q1dkNtQUI23vOX4791eL5GqKqUV5FLFhwL088kVAwDim9ne6cAwtHHHEE06ZN8+ZOoHBGo7VGKf86qSQKtduMvhCSXD5Pl9bkcjnOO/88Fi78FsWk5zVZKdaCBQu44twzvS/i7T//AptyTguZpgkcEydO5Ic/uoJuNwYhBX/661quvvqbnH/WkVx++eXkdBdBEOBkAaUC0DFBEIBNyOfzYB4Dl7BLIalQVAVlX1C+hkWUVsYaXKL5/QNPeytdaKyAEIV1lpocnH3GZGQOv6Csr43KI8FCaOPUAc7CuFHZdVKbP8mBUdRicFiOnjma8WPg8ZX+3gKVagENjzy5laUrVjF12jRcsSs9t+zxY50FEhCOBrGGhsGAXQ4qYOSJ3bz5x2cyvDGisfFvCJXziZ1cDViLlhIpJTLu9gKoGr3gpb6LSX03tZPMV47vUln670BHtks7R2vrDlauXEXBUFqMNo0u5XIwcsSIPjVRQsoe/yHNjO+xXsq51Dn3/lBDQwP19fSKXvVErrdta2Xd2rXojN+rvNMxu1bv59N7yuVyjB07lqbmZn+fMs2EBgEYX03so2Dpv0lVmsRVyXDO4qyr5lH2HdmOmH6NRvjfXcSGjS+ybl2RUICx0pNpS4O1jsERjBvaiKMLhECokiSBVFibQ7ocpRVfPie+d2elc0A91lkGhdsZnIcg+2fpHWppu3ExPPlsByeePB7E8yXNt+vPk34c04XTDlczCmMKtHV20dDQgLDtOKn4y4qR/PQnP2H1mpixY8fy3rcdxLTDDycvXsAEhjCNDysT9bntSqsehqrptX/Rqzpx+/btdHR0ohRYLQjDkDgxCJnVXgUIIbyWAZzWJYF5JcOdrHMopXxC3PooVKIThBBE+BqvNWvWYK3xAQhr95jGsNYQ1tZRNIb//d/5LH1iJZ/85HtpGZpn+9ZtfOELP+CppxzGQKBe4In74Jqrz+fNJw5DSllJltUeUTW99gllfFUpQ6QTku5iQtH3PYEwJNr3gFgLnZ2wY1sRkMi0NVco0hYOPw8Ra7wm6XOQLu40ypY6/ghLIC0FHZZyNT4prnEuAQKEiEh0kZ45j3uGCFowSR1LntLc8L2VLPgbrG8fTquZwvdvWcyyJxznnzWFP/zmfL7y+QmsbIPv/HwJSSzB5RFWIqzEBB2YoANIjwqMelXW3R5oyHwK0cvmT2up8vk8gZAl48a6tC4LT26ybNkyH3NV0icVperxWVL/xNk9+Sg2rZr0V+nq7GLdWv9H7d0JrzHEJqamtlcfyl5yAzvneHbpUrZug8svP5UJEyawZesWfve75QwfAR/5yEeYNm06F198MfPmTWLlqlW0tbV5n6XCIURaQV3No+wjhEyPTJsUQBRwokDjkDwNDd4JNEhcFvYFOg388aEXad+8GYz17SNx0kfYEKJU4u0I0iON4MoufyT4ndkUQBgeeKSdlRt9FicBVFrZa7BoDKOHN3p/JROUfjmSvaa0cgdOtULUhFGwoxjSnuT51W9XsnIjXHAaHDJqOTW2QI0tEIkIqQWR1ESqhylTmcj7KRlzZOm6lcNBXPVR9idkTxlIbV0ddXV5OtoL6Q6ukMYQhGA1LF68mDVrAqbUNyDqcpC8PAdXCOHrVayvvXfdXdx+++1o7ZWTkgqT+FoshI+2NTc3pw1je3cN5xxKBRx22BRaWuB7372Lhx9exMLIL9V0AAAgAElEQVQ/b6OpCd5+yYUEQUBnZwfz5/8v9/xxHW9+8yE0NjbSH6lepUKW5qMcKPVpFYTSmGoj/CFinIxBaMaPH82YcRMzgiJIEqyEWENRKLYXAz759YU8s+1QTJKnaOrStInDt0BFYCWkdr6wEmFChI0QtgF0HU5aEqdZJ+fxjV+/xL0PPk23A+sETigsOTQ5ag205CSHHzYBKQpeoNPbog+7fF+KCuUscWc7cw/ezlevOJw5k2Hd09uYPROu+sJcJh48DGda+cuSzVz7zXUcPAI++9G5EEoSDMJZhLM96yutLOi5zq4oMQ5MVDXKfkR5Fn3ChPE8vOhpv0h6j1awFucSnnoKrrvu63zjC+fQNHgwVpuUId5hjUUJm/o/pD/T6aJae9/GWaSU/Pa233LTTQ/SWfCdeIl1aJ2A7MmMT5lyGKNGjSYIQh+q3ssdP5/P44zj1NNOY/a8i2htbUUNFgwZPARrVhNFEVMPm8qHPzyN2UdN4+AJBxPHq9MKg8quKi/lUWQ1j7JPyFreE+W/xjBbe2me4MLTRvKn+bChCCoCG/vN3BEhnWCLKPCLe7azdfsf+NSnP8WJUzoJlMKYNagwAOq8WSVihAAtwElBLPI451i7dTq//vWv+cZNf6az2y9Ln3Hxmgi6kVIyKIBjZwxnaGMOYTv78Ut2RoDvLhOuHZnP0xJuoaVe42QBobeDVehCgdFDDR9+79EEkQW3CrQqoyyqDD+kHL2DKZX5CSoEc+YczXHH1YDw1RyZxSMRWBw6AW1g0V838eEPfY4bb7iBpUuf6zlBr/mJ1lqKRd+YtWnTJu6++24++YlP8p3v3EexmJQMGJfa0lkuxlpLbS2ceeaZyCjyDozYi6x/Ch2nvlMS49LfdZJgdNZzI+ns7ECmFQVJHPepOKh0ZFZCVaPsE7LlmWXOs6/TL6hm8RwfvPgI7n5wEUkCWmYWj0MKgU5r77cK2LYDPvvfbXzpF7dy0rzpHHnEEQwbHFNbV0fiFIVCgbZOxbJlz7Bo0XLWb9hAnLbk6kwAs3YTjE80Or8TXnZpHbMP3wE4cBYrwPUKeQpbxqFcmi2pCELp69GcSMvPBKEYVPoGpFTUhYE3DS2EKuzpcR4A+3C24VQF5VWElJJjjjmGiy9u4Fe/usf3bYQ+U2+c6dPw54zXOJ3dRe677xHu/dMjBPjntEhdE3yhozG++CTtAIa0psuWrB2BkorAaaZPm8BFF52IEMI3hUEPoffeYleVApnGCFQqJKW7GTAozbykKij7BCMy36SsFivNOkdiO1EOrnzfoWxefg8L/pZW8+IjP1kwyOEThFrUgBR0mAII5Q005xlbhBA4Z4gNqEAghURYk54jhzG9F6oh0QkzmuAbVxzPoeMGQdABRcA5pNLp+foj6M4+Rz7N6dDrc4k0ekWaE5FglO/DKSmQMtaVASA/la8bD2Sku+7wESP4l395P+MPGoUnbLSAKGXPM24srC6Vpvu3G/oLoSaJ8dxahlRIbNrzIgBJfV09V155ErNnz8YZ3VPN+7LGS+wGQnh1Z0yPdhkgfsmuUBWU/YBSw2BpCm42u9B3DrYEazhyTMIt3z+V04+BWgUhDi0CrAgwMsIRpD5CQraFCxHilX6U7v4+v2J0CESl6efSsxiTtzF5NEeMsvzga8fz9osOJpCPIwIDMvEEYU4iqEFQg0VinABlMNbXnvU5skoDUqWQZdSdTGkwDViNJiG2RQo2QQvjvwuVahkX9KpckL0axOh1rQMflXGXlQ5nUVHEhPETuP66j3PhRSdSVws4nf5z6ly4rHll73ZmgUAisRifGwHmzZ3L17/+Lk479TQg5RyOY19glkajskSpSJkjkSoNR9OjKbKelXROpCiva8v6ZgApBIFSBIFKTTqHNfp14Vven3DppDKo+ij7hFLHXomtKLPJa9PHWQa8CMZRW1xH4+A8P/jnGSw4dhvX3PQUq17UbOn2ZfEF47PjColzBoXdpchkHPVKOqyF5giGDzdcfvFgLr1kJsMaFbjnwQmcsbiwxhf42Ti9XX+fwuZACLqKdV4YlO8bUenrQptPF0pWXyB9a0DG90UBh8MKP0pCGv/v+bCTpFgkTOvbXMZlXIqmVUY2vjeqgvJqoDTyrddPJQjz3jkOw5DTTjuNSfM+xgMPPMjPf/s3Hn/iOYptClA4l/JlObtLs1+kCy+KDJMmHcylb5nKm970JqaN3YA1BpQBJCQJQklEEGC1Rti00SsbjSe9Vnnu+ed4/rnnSUqj7rygRGWCYvHVtBk7v8HndZzKTEDJ2LFjOXrmBHL5mgE1J6UqKPuEcjb7LPqVTt91Ydr+64fuSNEFUqJoBRyT61qZfGbIpaeewcqVh/Dwo2tYtXIla9bvYNNGy+pt3mIK8cW+Qxth+AgYPwaGDB3K0TPGM2vWLAbla4B1CBnjrMbFGqEkRReBgRUvNLJ69WpOO7429fX9Tl90IVZbFvxtB9++8Xla4561HaY5Gamg6MkjS6MfsyhEqH2Vf7f2Lknk4Oi5XfzyvydSNAUGiUxQ0mWWjdAraeLK0SxVQXkVsXz5curq6hg5alTK55sSSfQe9yAEQRBw2NSpHDTpOJSU7GgrECcx2woKZx05mUNISV0uIcrlqK/pIgwC8qodrTUC4WeUWFvqvTeJRqiIxYsXc+11CzlsymjOOPG89JqpBnASFSimHX44l1y6ERNOxFqLM5ooiigWi4RhQHcS0dq6g/+7688AzJk7ijlHz6GGZl544QUeeexRXnqpjckH13De294GJN430pWtUXwvSjXhuO8osbT3tb0zMbj3qbHcddddfOXzJzNx4kRyYgvOWYStS51mh0s0Ya4V5xwNqh3nHLWNASSa8Y3tfquWtT2hVymwrgtrHcJYQiFARQirselW3+2GoALJj+5I+Oa/LqR1M4ybMq5Xd6P/s+dcB1jB6bMkp894k+f1AtAJBAFdqQrR6hD+7d/+jZEBXHnlyVz29vEYownDCJJJrNg0ieu/8Z88/mQ3MyePpFZtxCS6JJA7zZXfidX+wI8pHfh3WOF46KFNXHPNL9mwcSM6SXr64VPCLRGonm5AIVLNY72AhKE/hPS7s7W+0UsIzyCZncuY0u8yUOgk4Yc/+hFXX/0tNnn2U5RSuHQ6ljPpCO3ePpTM2F96ujWlEERRyIoVK/jdnet405saueDCCz2PcZiamzU1jB49miuv/Ae0ge9///sUi8UB1eEIVUHZN+zUx9O3z0IRIhz88mH4wNVLeWlbMx0cQkEU0KEGVwDbTWAtKnOanfHGvyoCIRgJFCA0EMQQxAhXh7C1kMvjhMQ6iTbQHh3KMxtq+Ni/PMFnrtvE+qKiTUAioYgs9aonIiBGgQn9gQShcMrgSCAqguoiH4UEOuGxZd2s3ARnnnwoNXI9iY3QLgdOQVGTZzOHjAiYcsxUFq/aQNLRSYToyaPs9P1kqOZRqgCiKMIBkYT77nuI6667nm3bthNGkd9xS1N1ndcYvUNcopfG6P18r8pcF8elHEcQhTz2+GNc8clvc9v8BQQKsjBWaVq1FH2OPcIYsI62tjbCIJ3/KH0IOAhDf39RBM4hwoB8Pk+hQF/NWcHI+lGgKij7CL9DOiFxomfHzjr7AlUgUmky28D8e+Cfv3Yfm7bUU9DpjPYw9D6IqsNpAypAa4dn6053XJuATXpKWkQHiA7ak4hYNrBNT+c3v9/Iuz5xF396wk/4KvaSrRiwKgaRA5EjpJvQde2i4zC9Xu/KAuWYPLyZBuDhR1bR3l2PCDVF3UbBxhR1gSRqYkO7YekzS2lqyFGbD32lcXpaIyymd4SrysJSRW8kicZaH96tD6GQwJ13/pnrrv8W27dvw1qLSTQuSROAYYArFgkC5bP1zu02u11fV09XZxc/u+UWrvri7axbtwPnvKvubI9SeqUJ8uy+Djn0EIYNg9/9bh1/e+QRisUiSimCNJvf1tbGd797E88918WsWbOoGdzUu5R5QKAa9XpF6Ouoip3aav3+Y6hF43d47UIKwiKk4Ed3aDpyz3LdZ6ZSU1NDJFo9u6MrIAKHNd0pKQT4GvysvCQkTjQ2agLg2bXj+ffvf5+fz19JVwwOhXNQTIsusZYoUIQYMFEvG4xdl85nyGhegxzOOUYNXceH3zeez169ivd/7Ne89W2zmDx5MsGgPBs3buRvDy9n8WKYMQU+cNnRON3pi4zTS2QVDNkQYlXqBN3rL/x1R1VQXiNY00NCnGj45S/vpYV7ueKKD9JcL9DaeL8iRWlSL5RaI51zRFFIe6JZtux5Pn/dv7N4cTfdSXmFmCj93zmLsfT4RP5Me3XPPfVggosuuojNXWv51a9/za9/sxglFpOE/pRRAMceezif+eQxjB8/HszTCKl6ZSgrE715vaqCsl/QTyg0zRf4pkZfoRVa6Ep77P/rVxqde4kvfOoQoihCsA6HQ7nalAAiRDjnA18Arh5EwJ1/tlx//R9ZstKBDEoFkVkNV9aYJQJItKMWGFxfKN2WS8cxlPIbpZ09zW+ItJ1XBiAlefyAlA+8ZzDnnXkef/vbOl54YSWtHa2MHTuWqYeOYPq06QyJEuh+FmMMqiYHoi9Rd6k2rvR5su9pb77j1xdVQXmNYPGVH4nDR5OkxDq45Zb/ozH3Bz7ykY8QRa7UH6+CYKeNv9Bd4Gc//xlf/+FWduwAkGA0gazBWJNWr/e8KVMgJ580lAsvvABYtfc3LARJookiAUEel8Q4B8OHD+e88+ZSLBYJooBisUg+6iKOY29TaY3K533Ssr++sApEVVD2Cb1sfthpYU+fZJgwHDo2QKSg0/nqFYkvrd8mFM5YvvZDzTr3Itd89CDy+Tx1YhMkXVg7GKkUBdXMpk2buO67z/GLX2+lLT1/DuudddvthSRIhSOIsFozsc5y2Xvn8IlLD6V+8PrSlN5M//WMvUt5kbM5JmYQCEEUaay1SNuOcA6lDsZYy5ZtdWza2MnQxqUMHz6crrjJm4nyRT+fTqZlOpnGKvlY2fdVeZn5qqC8ijhk8mS+9vXzufwz97J5S2s20AqLI5AS4zw5Q6I1P/7R/zK+pp73ve991IUOlESGfmDPihUr+NrX/pt7FvZdUkJ4DZXJqbWpv25imkcM54ufPo7TTj2V+uBJbLGIDF/GzVuLxfOGof104CVLlnDb/Pn84Y+OJIbL3i254oor+OlPf8Lixcv5p4+ewOQph/bMdjGV7aP05vU68EX5gEZ5Zrnv41CsY96c0dz4ldOY0OJpOXMBfuSc9T3wAZrECboSyfU3d/C9X7Sz3Y6mIzyYrXELdy1azYUfvJX5D8EWC22BoFZArYCC8C3EGk9A0ST9zPq3zoTbbzydv3/LWEbWPA9CIJXKXlm6PyNjjIxLFQYqrdB3MsapBKlCXCGhS07gnkUbuOCjt/EftzuSJtjooEM0sy1p5ImVCXcvhE9+/WGeWD+FxAQkNuzV+VkACjjpj14kyhWTT6mMu6xQeF9DceKJJ/Cv33gXw4YNQmuw6X+RBM84JEAFdHXBd7/z39xyyy20tu7g5z//GZ/97K2sX9faQzKp/W9JT5tIKeQVa3jbuadw3XUfZ9KkSTitMcUiBKGvH3vZH8AhopC2tjZu+sHv0QY+/enL+P73v8uwYT5/IqTgC1/4Au+4dDqPLUn4xS9+DlDiIBsoqJperwjZ/tKXdaX0vJMgBXVBO2hLZGPOmN3Id794LNd+5W6WbvAud3dK9yuUxdmYAuCKin++8UV+dd/dPP7YUroK/iphAMIohBRoNM5BToB2UOugoQ6u+vgILr54KkNy3SDWgQpQSKANctazpQAyZY8pRW9LRZlptW/60NguVKBY8hQsWgyXXBzxwXdNIuroZqyEkWFACxYan+Gz/ziNhQ+vYOGiFbiuI6jP5z1ZBgD1/rwpDxmyJwJXKagKyqsNKb39YS0nnXQS9Q31fOBzf2Lb1h10a0D1ZNED4+3irm5Y+PAzSPyYOePSuUJZ77qjNCZeApMnBnziE5/ggpP9a4jbIZcDo70mKYVpZWkuitiLlH3WJ79p0yaMhnnz5gHQ3d3tqbzS7LvWCYMGDWLKoYfyyKNL6OzsIMrlKiLsuztU56PsN5SxlpRs7uz3WrA1EElcCE3hi5xy9BC+de25jGump/o4rMG5kAQwTuBU4HProSK2/jnjvClnjCF2EAuoC+DU4/L85IbTedsJ7dSrAnWuHRMorDVeDqKcZ93T6bw6AcIpsBLlfG7DqAJGeT8CenwI6WIwRdqKFhuA6jY0iBCjIjo1bC92U5QQ2C7ydBPHijCoI1SAS3rYV7LzytgfFYiBLSivZwVrlglPJ2n5HdxHkY6bN4+vf/29DBnR4l8bFyEls3PO+X4RJEnSu15KlOh+hPLtKu94x+Fcc+21jDtoHGEYQhz7wkq8UAkVYJPYs7CEr8B4kBKUYvLkyUgFCxf+hSTRhJHvRanJ50m0N6+WLl3Kgw8+wsgRI6gfNGh3Z61IDBDTqz9HVeCMRqiw7HVZiXtGvaP6ClWJ0K3sdL0GBaVP9HMftlduxfY40ul5m+1izp4d8N9fOJ5rrp3PExt8b2JM4GUrY0nJ+rJcCAgaXBEDHFIPn/70qVzy1nEEwfO+fdclWOVNM5X6IFobrIWoZjA2SZCl/EW6q6ccwdJl4yH65jkSW0cgFHMPE5w1D26Zb5B1d3HueW+jE2hzY1nb1sRTzyR885u3IGJ421nT6SJACkGeXibfrr6nUkXxgb9fDxBB2QNKM9TBGYMQaXdf7zmG1vYVlmwuSW8I6ZNppfO+TI1VmiHv33fc8cfxla/k+eA/3c6mTZ27vG0HCBQOi5Awa/pk/uVjc5l91FEEwTMAPvRb5m94MguJCgK/WchePknptbu//0ApjLVEUcQHP/Qenn7xp9xyy0PMv/0hujphwYJlPPHkp3jiKf/R3v32KZx9ztkEaonP2Ode3tdzoGEAzkfp52M4EGEEJqtdAuMcQTCYJNEgUj4rEZaI20pvta6PnnoljUi7ao7qfY2anOO4Y2fyr9eP50tf+hrPrE6nm2Ry7XyeJJTdWOsrQs49ZzazZ00mDLopJkNRSvY4+WXXEDLxY7VJNarbmP7MMuV9o3cmI51Id3oRdKMKBXLyeY46Ms9P/+Mf+PFPfsKiR2O2bgVRhK5NcOLhcOGFR3PuWUcQBY8R6phQ9Wr/3IltpSxqeICi93yUASIo/aD34pYShCMIA5JEc/8D97N69Ta00QQqj9a619v8H7JcYZQL054v3/cE5e/tNLVIKWkPpjJp0hieXbOmj2KwQIBAW0eQJrt/9KNfwrbRNDY2Eth2AJSSmF3kSZTybI1KKMaPn8CJbzpsr5tThBBgPO2RRKB1wpgx47jyyivpioeyYcMGhDU0DW6iuVEQhRE5tT59r+kpE6jwTscBxhRZXjuULhqb+SC+g0lrSRBFtLfX8T/zn+JnDyq0Mf2uHbn3MgH0rMGsV3AXd+Rfh99rjZQpvemyNIyc2ipOl4obDWBVjhiISdixzvL5/1iLFGv7nH9X6zGfVpE0BnD++eM4Zp5f0M7ZNLiQ+kLpglbZzq9Cb64xCJxBqKGYOCavtpGvVTSJFxk9KYCgHWgn4zVz1rcmuzQIIdSefI8D3zfJNrsD/073FVmPedYtaA1KKTo6oDs2JMZHTu0uDuNe3tGbOsGWHb1R8vNLFESyZwd2DofzvMJSpuX2zgcEdqMNen3M0iGFSCNpnvE+DPy+WNKM5b34KXQSI1TgK4ClYvnyZVz1xW9wzz33gBC+EzPRxElCnCSYRHsesVzO84wpiTa64rXJAJ6Pkn2cXplmk8bypUSogGJiaaeWJA95/I6d8Mqs5VdqYZf6sUiFxSU+gZdSnWbnjWRIbDVRIIhj3SNPLkj5h/v2n5SjKx2Bl5PQ5RTOCXTKBSYQpaBCiVvY1GCMQYcj2LR5O61qOFJK/vxCE/9+B2yJNMNnT2JomKCThKJKq46t14R17Z2EUcTw+tWE+cjnUgYIBpig7AJSpGOu/CIMw4DQBj5pzd72+u1f9JhofkSdTMm2y5HoBJX2hcg0gu2FzGsb51LNsIcsu3WQy+WwzhEo5RlfdhFosNYS5PM89fRz3PjtX7B0E+TzsHV7LVLCQw8+z7LnP8Ig59DGF2WWPpOFegVzjx7HP33s1FKuZaBg4AuKCnzUC9I+bm9tZhUWAlBKYF9B2+orMSxEmbHrUn3g2LWlkvHZO0s6BQXAk1a43rxiQuxUieukAeEri42MMXQDkkBkA0/75jGELEIgMYlh8wZYv8ETxXR0daEEbN8CxS5Ho/KKuiQoqRVXH8DkHW2gcjhUqeNyIGDgCwqUdtzMMYuTxI8LIesr33e9srenSK2rnYRi796/hxeVnaQXgSTWOpSUno/L2FSj9E2gykBBscjEiRP56lffxWY3miiKeOyJHXzta9/lLWfO5B3vuJTBkaeALQiTmo61OOuoDVrJ5/MEauecUCViAM9HKZulKCRWx0iRlpFYz4vVKAs0CHDpzojbpSXysqJeL9tf2dOa35tr7vSivndRH0Ix9j0wFAsYK5FGIGXRq6MSu3yamXdF0Iam3GaapjWB7ALTzjEHBZw29WyGjRxMQ8NKQuX5x/y0YAc2TkPBXRAUoOD8ENTK7tvqgwEmKP0gCEEKTEETSEUQBBx0UJ4jukaipERrs0ut8kpCgq8lQ6Ldw9gEZRTGGnJiO5MmTe5JoAnhi8VMmW9jXVrPn0a80uoFJSWTJk1CBDqtKHZpaDBlt3TpT5FG5qLIv1dXnfkDDP18DOuQKiTz3ENpwBlqc1v5f595J/8PTxPaeyfe3+PUMsF5Nca07alBVQmBs46MbEfkY0g6Qea8P5Ox76f9IcZqnHEEAk8W7hQ2thjXgHWOQtwAgBbe51MmIpfLQZr4rAnW4ozDmY60WmDgsEsMEEHpB72jQdnPIACtCfM14Dy7u+iP53d353uFKBeYPvxdvDyNJMsjA2UQjlQtpqwTcdxT37YTaR8EUYSOvRAYrVHKN4ote245N9/8S7Z3pYOFrFc86WAu6mtgypSDuOTC2TQ3N3shCYKK75kfgPNR+ouu+DJxdBpCjQJIYh8xMg4hlHdgS/QlqQWxq79v2jDVN9a1F55JWVVyxsFVYmNE9A157dXaSmux+qQ3d3XtLPOYtuXGEoI0bGsdFi+kJhVWlxg/pxGLCiQQIgRs3FLgngWwreC/zh3a+3SDIh9pDjX8/u4Xue/h9Vx//fWMH/4khWI3NUF+1/dVgRgggtIPsjnomSbQ/nepRNonQuoR97M691aDlL+mP+20U/Vu2TV2Veq/6wvu/nGpODg1rWyqtYKeeXM+/5JdyvUtrEzfnySaMAw48sgj+fGPm+hwE3HWYfK1WGvIsQMpFYUtOf7nf/6HO+95gptv/k+u+szsdOZ9ZaP3fJSBLShCYq1nE8nKQxAC53IIEWDIYTFoFeKcI7T+i/n/7J15oFxFlf8/VXXv7e6352UPgawkEBISYsImu2AUEIFxZBydUUd/MiM/XMYVRUVQXNERZnDU0UFFcUQUDQgiGIIQwpqFhGwSQsi+523dfe+tqt8fVfd2v5eEBGf55b3M0eal+/Wtu7w6VWf5nu/RuoqUEim6AOG4cqWoxXazcFg2Ia2fFPnCHntHuAljDOWgCWstgW+QGOW+xW6fOPQrvvCt5azIHe9eCOR9dCcbR/X+fV1+AyEQpk9YzytOltFXHuoihMLYOtCN7AIR0N6e0NIcAhvccyoWnTNf7QZjiKc3MPU1J/DC/9nA/KdeoFKZSnNT8/9GvfqNZPZ4lvaWCpu62ozlS5eyqzMmTVK0ihBSEGi3qmpdZcyYMYw5ZlBtLGPZb4Zxf7uJX5m3bdvGihUriAutrqDKI5QjK5FSMmFCO8OGDcvBg0ZrhLVYzxUs5X8SiteHu/hAIj04s+99Bb79deL7sKSpJgwDtH8vlQQlSeKY1tZWxo0fz5NPPE25p0xb2yBHstyPJe+PIgeMoux/Qtm44uaK8KaW1ggRsrGznRtveZi757u5360A64hKBIKRRcuHP9zO1X/jojx5Oj3LfGdkwLLqDsx6IwrXXEfTCsBdj+zlxi8tZmfqgYlJhkS1CAkLbz+dYcNGgAwhTZFh0SdGQYk+u9ahyD6FZtmD6Ptg/OXn/lEt5+82S+my7SZASEkQOKfeQW0MQRC5SGIcQKAoqlZ69nazZUOZlsZRNBSbMLGt/VX6NzYSGDCKsn8RWT/CjMYEt1IvX76cJ55wBobF/8fkbYEYPRrOP/8CkM8fnJG9bgfpm24vNZTY2+MgJM4lsrWWPQZ2OwJhsJY0TQlUiE1TckjJ/zT6NsONeZG+hLpSKbNnzx7S1KKURBn3bE01RkrFrspWfve73/H4411cfvnraG5qRhvDf3ZDPJxkQCuKsQIpg1oYKwiQ1vLY0z10pxB73zZbYUMcUPKKi4ZxzODNvr8h9O36m0fZcp8gAwC6SWakyyMENLmmPtat1AaBAjTWb07S+dYClAp9ONWxuByakrxy1C2/vL47S1Y7n2fm+9auBz7I4KAu85cEfPKTv2S7P0ynUCgEyJ4UFSjisqZSgRMmwHveMQppqxidgvzfqFf/EWvIJrBNEqy1LF++nGpKzi1h6yZSKRSceuqpNJQaIO06wJi2dgDku45bkGsJxiRNKSjo6tN8yuLcpiiMcn4tR3KdhYv7Iif/P3nFRoMVhGFAYwP0pAW0MQSqiDGallILSRwzqCVg9uxZ/P07x3LUqKMg2DQgJtYR0x/FigIG4dhHjKvg0GnKht0hPQAicqFR46AWCmhtLjF4aIlqvJti4JuF5kuxdJnuvK9I71VfZAA6//XYVnO2XxfwCnClWAkSgZKBy1576IdJ01qYtldouk+OZR/2EtP7972P2lf2gTD3GUdkUTsJUu7vvDIAACAASURBVHHmcWV+84O3EAUFwjAk0RVKDQ3YiiEMAroKDvbfgAS2gU0hjV3eaoDIwLmTA0jfaI5ONUmS1H8BcJPKUIsA/VkRpz6KUygUSDUEeb5C1DX9EcRJ7KNb2eFeSfIcxCtXNf63irWkWiOlISoUGFwsOgwYUDTO1IxtFaIIIVxtPlo7nJc2DCgHhQGuKCaz9T0HrrEWjSUIIgTQaNxeUSVEIOgWMZt7NAuf6eaNwyYig+fRxqCCSs2kkhZjGnzexSucyNgPnU2e+BVaWsfXpYSbO1rGTpe0HwfprtEaz5XnOYG9DyTroTW9pE/eJPONfHNE6cn3KqKAlJIIX2ZM6mAsPjpX01A/TO6ruBr6gCoIRSwbqFarlAtTeO655/jlPRtZvWY15XKZIUOGcM7JgznvvNcxeeQW0jil0ZQcK6WNe4/fj2VAK4pboT19ibFIJWloaKC1tdW3AxXUl9EKKalWq9x6673oVPPG84YQRhEFYQjrmRal6ONLZBPOK4ifgEkaY3A1+aFH0tSS85ZSqSH3Zeqd9xwVXJ/A308upAa1yYq7emf+M26vNHadhsnq2A91tVeektJCEid889vf5Gd3rGV3j4PMFQrw7LMbePwhuP32h/jshyYzZ84cjyg+vKmIDkUGIK/X/kWKSl7RCIBQEIbMnjqEZx6FTmt9ZNjtDJYCGMuC9TGLbrifWfeMp1QqMXhIM6VSCSUlQkqkKLoEop+p0tv20keRjHR5ldVrK3QARijHDSEMGEtIEWkFN/54L2P/+CJSVahUKgSBU7IMFSwPEiaWfaJVqb/XyLifKkxJkoSGQg+TJk3iby5oB0Wt57vo8uP4no75dEgBgTURQgbs0eP4/h3f5wf/upaRI+GaK0dy7LHHMrR9MJs2b+LRZ7v52R3L+ODnV/Ht4W/ivBN2EUWhCyEOEBnQipKLEIB1TCFaM336iRQKD9BZ6fMVACmwGspVeOKJtTlbo4W863T2VZUlvrNDsyCY/yCxnkCiDx+Y9KQP9z74HA3quTxVky30Gh+ZPcht9S0sS/31RHXcGgDFCC6+aCtXnPUGooZGrK6iVABC5Yz0+xPH7aXZtHEjP7tjFaNHwze+cR2nTCkThiFKSo6fMoWTTj+a0aPv5jNfvp/bb7+d8750ocOJHQQR0J9kQCuKMBpXEuEdaGmRUcisqQEzjof5i9xOYnxOUpsqBAqri1ghqBADtveMtBbXq8FSUxk/2fyOEug0/9QlvrOS2ezbZc/9FVExktRW3J6UTfAD7CD55xmTozfl+gSrSbwPo41AKQVJFS3GY6OQ1GokFTACYUMUYR3RX1r3U1CREKiAVUs72L0Z/u/V7cw8IaEY7gJjqGqLUoqWaDt/fflIfnFvCxte3kvH3piWlhZsEOfX2Uv6YtL6gQys0ES9+AiS8f0HXU/EELSmubmJSy6ZCbgHkNRn5rQHJoJXhr5KUvd5PerXn09K6aKq0vFqBQfxB9wxtd3JDW/3+zLGuJeuFRcCOUlG/XUIITA4GzvW5NdmjCO/E6oPMfkBJNUp27dvB+CkGSeh64jPrLUYaygUChSLRcaOHceuXWWsNQ4H1s/lyOiPYq3LmBvlnG7hehjqtEKDXM8lF0zkgrOHurCwEKRCIFFgBIHQCBv7eg+LNBZhLMLXqkgMAutiVlkZrLVYm7iXURgjEdaxuwgrUCiEcK8Ut3mkxFRNmdQcoMZJkCXqHeG+f8nA19HIII+cmYwoz1q0/x8YtHQ2XCoMmjJWVUmNROss0yoRVBBUyHs8mgYwDRSNpWhhzFGDKASw/qUdFKJBIARpkoAN3L1WU3Q5YU9Xmaa2BloaCgQ2zZ/XQJCBqyjgQZAi3ymMz8wXCgWGDB3KRz7yEU6apsiYE7P8SaKTPBpWv+YK8Dxcro68V66lLppVO1agkJiMYG6fLUB65fGskH0XeI9BwweRspfR2r1MhlY7wGz07bm1RyPr7HlAn3zNAUQIbJoyYcIEWlvhD/OW0N3VhUliVOC4B7JrX7lqFQsXrubE6dMpNDQMuDzKwLqbfcTgWjw4tkipJEEYEKRlIl1l9viX+LevvpG3nmE4SkKz0EQmRWIohRKpFEJK6qejthZpDMoYUuNVIJ+nEoHKm5kmaBLhwZiBBmmwmT8jcL0bcWAvg8VmkYK+r1e4v9qV1aIO2lq0tUSh9s8ApKrQqJqRcYggRUoDogKiQnd1BF3l4fRUZtBTmUFnMpHOeAJxeTLV6nEMGzmCd777bH63ED76hSdZ9fJgOvU0dqXHsa0ykTseVbz/i49ydDtc+fYLQaYgX4FY4qD3dfjJgHbme8l+7HEpJWPGjOHrX/8a8+b9gdvnrmPpkhXs6hEoKdFJjJSSMAzdapztOggHRfF2hc3CxMYBVLJwsVUOMm9Sh+rotSzV51Rynq39X2ftmFdnx1jrWIWkx6ClWhMEIakGjMHoBCEE8+c/ws/uWJgHE7LoWQmXn0waQso9jvb1V3ffz/LH7mfKFIgGNbF2bRfPrYJKBSaNgt/85jfM+IcTnA/Uz6NeR0wepSZZAi+bqS7xFtkeMIajmtbx9jcewyXnH8PaF0fz0qZuNm3axLbt3VQqFSpJTLWa4NMghFiEsDUWsby+I0UIqHr2kRUbB/HMMzvQQCAFiVH5+Q1w4VQYM9YhlI3WeRDh4Mhhr4iib2g3w8r4hKcRaK0pRpbTThSIZCfIgivIUmDSItZY1u80PLUS4rI7vJzVu5WhEEGnTogi1w4yKsC6nfDyAijqLqSERuW6Enfugk0vPU3VTqUYROArN/cJctXtwIezHDn9UQ5FfIhKRBGNhYipU6cy4bhGX1PuGg1Zz8YhPHNgiHufZBlxmyUeXYa9KlwC745717N48c1oDYlxxBLapxMlcNVVl/LaM85A+urBetYPuR9lMfmOkilK3wrC3gVmiZFEUYhOOygUCihWQrXqfJM4JghbsEZz7rnnMnXqVEw6BICyv/7I9JAkKbaxiWq1ilI9jmkydQnXknEYLy1DrLGEdiNDhw4lCrtJU03Q/8vmBypTZF850IoV1WURhWM6BJRfAZtFt6eN97/PfkrvQxgHiSnsU7CVgpA0+DqMxuRlWq3rmGiAatbT0H+9JXqJgh1GVCxhRNxrJ3l19Sh962Wy9hGRI5YIhOsEbBOP0PSmnq4igElDuzh2SBEZbSdJUoQuoAKFUC56kOjY19dUgSrYirPrArcFGek4B4wOCcJuRKJ9KL7X7b7C9R++MsDoiv4TklX1CYkrc/T2VT0laB7BqRFUuJJF/15nJpAGYTAehDl+wgSuumo2e7rasdZSRRMECm0TtDGMHTeYKAyhHq28v2jRfqjurbWIvqnGPKpWw34JKRDZtdbfcx8OACEca36gVO12PNOjVK68IB9fCh+ndpVvSZK6XixCYbRGpZmGHN6m1cFkAPdH6SsHWbEyk14EgHX1h4HfbbSuoYL9jmPxD08qNxmNBaNJfQFKoB0qV1IFa3ntlCpnnHBiTg9kfcbeBpAkCaWohDEVpJHYTBkORNHVt/YF2Kc3YuaD5T5T7HIlQjpAJO76rHU+mvUmZKrcAToZzQtr13HLHcs4/vjjeP9ftKKNYVf3GBYuXEiqxiGExIoKxhpS204QhvTohEAFFOPNDB8+nDOmdHiOgv7ZU35/MsAV5dCkBg1R9R/u++88TOXNsoPU0zsihoAk1b5fiPNxNC6bDS6Lj7Gv3Mbtz2hJkV/3/nYT8Fl1i1IZvMflQ+6//37uvHM3jU1P87bXvZ2WlhYWLVrEhz50Fz2pv23/OGLrUNGdGkIJLcAppwhOufVvCVSACA7FfOwfcuQoSv3EzzpBCeM/95NJGwhDSPxKqDwsverYRqxMXN2I7zCV1Z7n6pWfwjFPBoRgJKHY4yr+RANCuDpHh/P3zvjBEn8H1KE+EzE3dep9Jp+llA4Y6swud31SFMAKQpG469E7mH38CE6fsZuxY5tobmhAIZgwQvLWi6AiC6S+qZGDwlisdfU31hoaApgyZSIqDD2I9GCm1+Hvo2Ry5ChKPcOIh3ogrCPRTXXv70npCi4wLkoUOuc89yOyJbVXuW4fkcJ3KvUw4CCAOHO6/akycGP9hOml0Ae5p33Y7OuiYlndid9NXDbfEEQhIgiwiW+tnX1Pu1YOrz3/fMbMvoKmpiak/hMyUBxzzBiuv/7TpFE7SZK6EhVrc3cqA2FGtsc/p021MfuxDOD+KAcRV0aIoQFtDVKWIAVFl8dqtWBjixSbIRVoMQojDKHdA8aQiNTBVzJF89EjkeHqbbZD+PelEVTLZUQ4lDRNUdLtRFk/94O1bTjQemxyXTK93/chpSjqLGLjfIog6nYOuomRQro+KcLvblr78RSjW1/yu5MGZUi1a2LaojYhlCCRWeWiq1NozGIIvkTYtb6r0/IBYIEdWYpSJ3Ec85u5czn5lFOYMG4YO7duYenSpcycOZPWNgHGsmTZUjZt3MjF578GlPJ4rLq/+kEyz88vW8a8efMoa5BS5BOpr6IcqCXEgRoZHaqiFLweFkPN+HHjecN5M33Eyr8yU8zid9hsHP9vISBJePbZZ/nhD+/m3e84jVNOOQVZUmid+g3VorXPL0W+xUZGiv7/q97/v0GOPEWxhlSmdJR387HPb+KrXykweFQrC5Y9x6c+8xT/8i+zOXVqE0IKfvHb51m8eDlnzT6WliFDMIRgQdKTgxqd+MeYTXxPwvDHVS3c8J3d7MmCP1kswJfCp95k2V8riP3JvjtM7+9J21txpSfcawrhskuP5vQzLaWGIsoYZBCASV3bC7KejokPHAQuWiaLWGNYubmRuX+EqbM2Me30QbRUX3ZXLv1xynMn607/OAQuVN6/w8P1MnDu5FAkY1wRwtV1WHz9iJuw1Sp5z5FAKaRUdHb5CJWx+9SkH0zCICRJHIReiN6uq7Pe9l938l8pBh8ZxjFXCiEcy2Oa1kLSmZ8i3E6K9D/9tRx99NE0NfrdI00dcYSS+/p8KvCIYz0gdpMB2B/lVYiQaJsSpw6Aos0orByGUCOoKOgwQ0nClIo2xFEjphggZAGMxIQ97sGpJk8xmU20jCnSbR1V6R5rGPS4dAtu3rm6wVqNhu3V6Wt/19r77T7ILtE78qv77DBFVcLqGCM1RrZh6SZJNA2BRVgNNvLkEb7SM2zGGouy3YAlTfYQhBEnTJnEOWe38J2frycYup2zZ7ZTLBVROdbMcS0HeheFQoFhbS8gQnXgtjX9UI4sRanLIWhtkALm3jOXzRsVq1avoqMLfv3rX7N84UsIIXhiYSfGGOI4JmptRYqKW/Ffoc58f6LwDCz5dbwySPi/SmIdO7i/dj4Z4NhYbOIjYrKXhtaDABGCoFgCrVm7di3Ll3fw8ia4/vp/ZWQTtLR4PgBbS/MUBZx++jA+9dFzKQXhf/8N/jfLkdMfpS4k7MB7AiVBGigVCkw6Gv703CqWLXbUO+NHwqMPPcsjPrIpFJxwAtjGJipx6hCxxlLjHnaPz0rHZiK8M130bPc9RhErSDTkDHs5hapjlLQWUlwyEhKkcx16mfd9K5KV7+ciTFYk5p367AteCaXVBNK5DFEhRaW+lUQ2uKi469HOZFKeD4wgY7kQoAq0hDs4ZiiMGuo+rsbOPelx9XA0avdYGgJAVQlE0eVqBhANy8BWlL6wDyEwWiOlpK2tjW996zqSJCEVKUEQ0FXtIAwDYuOoVlVQpVAoUCplzmr1VZ2+V924rwmx1lL/cRZ8yiRzG6w5sC+sdeLIxw8ijsCiNqao9ynAKVTf/FK9n+KVetKkydx66ydQhVaM0RgidKop+xspaHctkegkiiIC1vrgQP9WlAHYH+UVxFcNijr6HyEEhSDkuAnNzoFWVQcKTJu8ojiFUNq6klezzrXgzvqiZH3ZRbaTZKztWXjLzcxCz1YG4dlYLBiVZbI9fVGvMK91zPfG8U0q4QqngsAVUhkNZT+OtmBtmtc3mr5mnN/ZmqQhNdCgIEwrpEmVIAyxouiiXnR5lgp/XyoDffoifhGQJlUaG8uUghQpX8gTqCZNkKbJK1OWPypgtUZo60PEfZgo95H/zcwfHtIn52E9A4nRhu6eHr78xc+RJAlaVAmUMzPiOMYK4wu04KhRI/nAlRcQNUcHPM2BZOzYsZx1ZsQeOYVSscijTy5nx45Osp6JNlvR3cWigRGDWzjvtaM54YQTGD9yOI1NjVRNQrVaZW9V8sILL7Bg4RqWL19DxfcxOpBMmzqWIUOHYqrrOfHEaa60WfjmplojpPEoZC/1O4qPZAVhyNbNm3nuuecYf3Qj48aNA5WhFHqDMK3WiDByCaBeC0H/l4GtKDmI0f2QFo+eNeg0ZcVLXXR1QRLA7j2WFZsqTBxTYGipihBQsKBlJ6mWhLGuwy71plCt+Syy/gennBRzyrffxfryRJYuWcLjT67Or0VIS6TdXGog5dhx8N7LhnPRRRczst1Da6QCWyYxVcIgIDWGIJxEx7uOYeXKUXzzjtU8+NBmdlT7xvndn7WtpcwXb7iKke1P4npIumiWFAFCWjAFt3iosq+/GQQWqraJQCksg1FSsXDtTq76+CL+/u1j+cDVl1NgG0YbKr4yK/IKoYRAa0NjsMs/jyavdH3+LgdBJByOMrAVpV6y1dLXfjQ0NnLTTV/DWku31Sx47DE+99V7+MQnPsFZM0vEcUzJ/4WLxS2uTPdVRruyfM3GjRu58Us/Yev27HM3lMBhMC86dzgf+MAHmX70XheVUr4TlwwgSQgD92dSQUClUqFUKjJ79sl8/vh3MGv2XL56y0Ps3t29D8j4sce28r3vfY9Pf/QEoqjgbDRR1/3XM6i4CJjNkcbde7uYN28eSdoGwFPrIuIYnn9+Hb/81S8pqu1IKen25wktKClRQtDePpjzThmJjMI/H/V8mMgR0x8F8LPS9DLDlO9NMqb9BZRSlNVgNgzZS0nByPYKY1o3AWBtiFIBotwBKsR5DZD3bMwz8r7hkG3odeo0HUVXZyc3f+MxXlxTW/Wtd+xHBJY5c0bwhWvn0NCwgTCoOKfEFh2rg9zmj2gDaxBJTAGLEDshtYxrq/Ley4cyctQb+cxnf8Hardk9x+Bv+46fPMmck4ucddZZINzUFlT9Kh/5qFfkE4Y9EIWsWGK59ovr6Ox2e2VXAcoJ3PMo3P/ooyjXDtOBqkNQPnhWMnDWWS2cfNIEQhtQyiLEuXXZ/3aSTAa+okANpJiZYsZi05QgLIIKSGON1iZP3tX3XTdGo4rFQ9tNrAVfDZjF3++7/37mz19GfV1Wxth4+msb+chHP0Jb2wa01jm2KmvHbVONCINaaj2KEHHssuJSEccxxVKRs86ewQeu3s5HPzuf1NH05+tCNU74/g8e4sTp02kc5OO5qu56hXDde30PetOdMHHiRK799Nl0l48iiiKeeKnCbT/8Ga+d3saFF12IDJy/1mlToihCVXoIg5Ag3svo0aMp5R3p+q9i9JUjQ1HqRQiQLrdhxGTiSkxZRqThaIhAy3ZSM8oROcgEqRTKrPEH+1p0YXuDI7Ool3X4JmMFAYqNu4bxrz9aRocukqJRJEggwtDQLPjcB09j3KA1BKqBIE5dphzcjiAFQvlxZdUnXLwzYkIw0BgAJmaEWMaVl07kdw+9zMMPryX2eZcu39bi94vg3+/p4dp3lLBYRAikqUvYICBwqGZrLFIKhjeu4+2XHgtCkSYJr90eMiZq5IxZ45g9u5lCXHWJJ+HMK6uGuZZ1JgRRBdWATlKXsIL9OPX9T4GOPEXxUq1Wefvbr6ZchqQAO7bDnj3wkY9+ktGBMy1KjTB2HNx0w7soFApk/RYPKB5TIkUASjFv3jy2bgGNIUAhPLmENjBz5kxGjhxBUCh4M2s/FZV9x+4rdZ2OgzDgzW9+M08++U0q3nkIkFgs1dTwzNPPUL78RIrFolMSa/YZs7fyW7ebKsWIEUP4wNVXo9LdKCWdkqSpK2tU0ueGpANSBq4oTIXBgMmjHEG8XtQSYEJ6+13T3gZpIyBgbDvMKEgqFUPJd+qthtA0eJBjPZSOANj2apCTmXT+MSrrgwUNJJWU+x59ka09QGRJkwoFCbGGlghed/YxNLcUQWc96sHaoq/Jz+D3zuQSeffe7LxZe15HhhGpVkgMp80YxqhBsLfbXb+V7hhj4IlnlrNh6wTGjB1CZHeQnxT27zsIgdUCpKBZdkOcugI2IUHuBanZwwQXJesq09rahjU7EUYQGRddE0GNdb+/y5GjKNkK6vtVl0oN3PytryOExNgycRyjiy0ANBjnnJelRElFMXrBgQeTQzcZuru6WPviWqefqSs2z0o/Ghpg7NgxYDvdyq0NMgxq+YjMR5KiN/6qr2RBCqXAGJqbm2lvB7HBJzi9Y6QE7N3bw8pVKzlq9Ggi38LuYCXIUkmSOCaKAqy1dOzcReugNrILXbJkCbfffhdbN8DgwfC2K07jnHPOcT6MtVhbecXx+5MMXJh9XoWIr+LLPXVSAapYYMfeDlatfZGGYBtDmjsZFC1ncHEFLQ17SCsv8KeVm+jaa9wCbhyIUFjHUu9wW4l7Se1euMq+2BjWb9nEtp0VKh46LCLlfAegFMLQtlbXs84KpCpCKhF0Ad1ugdcWUoUwATnLvHQvKwOsDMAUgVKuYA2FKqUQjBAYIdBWYBwXC1UES1dsJBWtNX6ynIrP9Hm5zy0BUbGJDjOJm37wGO/72I9ZvbmFznQoazZZ3n/DXG67H5a/CL+dD1d+8nF+PHcnJk7ZpwV4P5eBdTf1IsT+7XrcStvd3cWHP3w9//zPt1AuO/MnCEIHZYljerq7+cIXvs2tt97qokxJ0hsXtR+xxsE2rLV0dXbR091dCwnXRc1cK0WZs1S6D7NVvjei94DnyvnIsqSM40sOQvKalnqfw1pLR4fDsrld6BCwYtbdz3PLlnHbvy9n6xZnt0sh+eFtP2Llypi3/fXp3PXLr/FP//QejIa77rrLIZX7Oe8w9M6jDFxFgbpwsK69VwGRtmxZu44FK+DkOVfQ0mIQUTdJtYywmlApRg0dzomzZ/HHJzeRdBkwPsrTy1r1K7INwAYIG4GNMET0VDQiAUdKFCJTVx2JAJFCuSOhxupeBZX4TL/EygrISr6DuHMGdecxrvOvjEHEGHqwskK1LEnKvlgLi6XoXkJgrKCqFSkRaWKdn23l/ld+/7kSlrRaZumqmG2dcOVV0xg+yvCnTUO59w9wzhi44e/OYsbolfzV2Qlzzp7Gjo07SXZug7Tqd19Ze065ZDtX/5GBrShQZ36JfEewxrJhw0ba2nDYJWMgSXzPE4VNNbJYZOy4sSQpdHV31Y7PxtqfCJEzj2RVk86QcX1Ssu90dcG6detyZxxZV2F4qCL33TE7OjrYuze77/09CvdhUCggwv3Ui/QtSTaWIAxobm5GStiyeQt79+7lV7/6FZu3wRvfOIHhw4Y5wg6j6ejscKTdTY1uBx5AMvAVBXrBV7CWLqFpGz0SsRfSHSk9NqJMRKgKCA1VCSmazTs0NogIQwtR3SSSxkW4Msl2hmwi2pQRQwZRaG4hATQxRsTOd7aWjgju+P1yylphZQlMBLLoYMZCgWkBWt0OJkKvSKL2npJ7SUBYpBhC2lPi4UWbeH4TuIx7CWy3exlLgGXkiBJau/6LpGltQ7F41ssAtAKlIcQRhauAWdNCph0LX/7udt72/v/gOz9+lGHHwBWXHkdRreFPm47hC//yLA/Pf4mTZh6LbBoMqkTe+SgXvzPmO2n/kSNCUWy2cgsBOiUMQkaPHk37YPjJT35Ktepg9sQxaEMYRaxfv57777uP8ePH09Q+2A2U+Q9Zfbgn6+4VOPDS3NxMU3MzgRSe5MS6gJuEuArPPLOIRYsWuVU+8gVhYQhxjPC5iHz8vufxr7y+XinK5TJ33nmnX8hrtSBSQTEKSA2MHTfO5zv2s90IUauDNxabJB7jnzJ69GiuueYKTp49gWq1yuyTj+Izn/0ko0ePxnos2x0/XcHkyfCud73TReEGgOR5FHuE5FFEPRGCcRiPtkFtvPuqC7j+87/nY198ive+970cNdIikby0uIMvfelfSbZX+OgXzsCme7DWIlWDnwQFF7HCjWv92EIkIAShqjJ8UIFRIwps2GAB5YJkyvV0BE2lDF+8+VluHPEWjhu/HVRAQfeAjFwGHurAYVnGPjPf3CqtTSNKSjorY/nh3Y/w2MI9xBZcgyPhKyMl2qS0NoecMPEoIlF2158kCJUVtXvMl+zxOhb4TbiHVFcpRMs46/QGzp35eirlCsWiRajtIEtQ7mHGBMkNnzyGKTMnMnHiepd4FLXKyxq6usm/N31+Hp5yZPVHqY8O9SkNvvjiiyiXe7jpG48xf/6HGTncMbF0bIXGRvjc5y5k2tSpWL3Q5Tky6tUs49zXp8jGl5IgCJg4cSJPPb0Wb5d5ku7aJr54ieWb3/wm113zOkYdNao25iEymCgpSbXmzjvv5NZbFxBbKMiQqrGA66YVBAE6jZk4cSKD2ge5A7X2Cl/H/lC3K2Y4N0xM0FAiSRN0qgmUotRQAnzbhzSBKKKl0MCll15GorrccXrfrH9/lSODKdJT5/QiwJaSIkBqGcUqPvS2mZw7fTDz58/n2dV7CUOYdPFQ5syZwwnjJmPtXmTQ4Ox4GfmKwKwk2LVfsyJyMBJ80ZOoIJXh8jljefBu2FRJkfhpKQBC7yul/PLBbWzc+xAf/MAHOG16K1EU0hy8TFKtEuo6rJcUuNpHsKYNIRUreo7htn//d370k2fY47tlxTZF4uhOUxOQxJZW4PWntjO0PSKgC9A+HK18iNonBoM2SBL29DRRLBYpBjuhkpKGbRhh0KYNBITahdGF6kZKRdUKtDAEpoQ0Cuw2dLWKKnq0dRZZkx3uZ8Yo2Q906cigKxKipiT1K5yvCReeqG7Ko29NDwAAIABJREFUlCkce+wkKkE7xhgKqkp3Tw933nknmzdv4qr/83qiKKpBPTLeqwOJcTvL1KnTOPXUInc97Cei8P6BcNejlAPuPvHUNq666lre946RnHnmmZx8fAnlObIcyVxM1rPFxDFrX3yB5cuXc9Ndz7NokaGiXfZdSumz+u4PLD3Wa/BgmDNnDoHaRN4lOcNm1UuS8MSCBXz1lkVMmABf+fS7Ec3NrH9pPXf/+teI1NESFawDURo6kUKQqND5Pmk3EyZM4JI5r0HtL6rWz+QI6o9CLaEHPkPvMgzOjN+LMYbQxoSliDgusmvnDn770Fbuuusu1q/ZwznnDEKnFooBVoEVFmlLHqpeBiGQ1iB7xWOdoowsLOc9l4/lsadWUqnAbhPi7PIEFOy20o2jBZ0dcN23d9L2s/lMn1hkxvTpjB3bSktLC7EpUKlUWPvSBtasWcOK1dvYunUrXRXrbzFCW0tojOdycTSnrSom1XDlXzRwyvhulNKkSYKUHvNmij4q5abBzhTmP7eCJ1bA4hfgUx+LaaxW2bKxwG3/VmFnWkF77gEhauuFkc7vjzScdfZLXPLG2ZBqbIb16lMBWpt2/Yf4a+ArSr29r52zLQIHDzbG5BnuDavX8N27fsUDv9/ACxtgypQ2brrpbznppJMoDVrt0LL7G177Ft2wj38RhgHnnnsub3rTWO742f0Ou2VF7xyHNggR5tWQu3btZOGTKc88/ZIDNFrHGqStix4rD3bMTyOVU/YgRKQJImPSwHFlT540iiveOic/Xd4b0u7rSDc0NPKGN7yBDVvXc9xxk2lqbgZg8uRJ3Hrr29mRDMVagxLS0x6lGG1IMAghKdiY9kGDwOxyCGPbfxThYDKwFaVeSTLwoLVk/UI64rNYvGQxP/zNIh5++HFEDGecoVi7R/Pmv34Dl5wdYe1z2HIBoQoI38vQqAzV6wM82croTar8lGlKIYr4yJWT6NpyP/c8XEEAe4HQhiTaXZ/1bVMzPSsj6akz7eppVlNRiyUEgDCOH1KnKQkuxCv976eMhq98bg5Hj4ywdjepDUAFOZxGkCKkIEljokKBUtLJiWNGcPPnhoO1JN53Gd66jeGnDkYYl83Muh5HvgJMZPxdRmLMTvdv7TFw2XOB2o6yT5PWw18GtqJkkqFk0wSUIo4Tdu7aySev/xCPzO9ht4S/uuIc3vfO19Dc3MwjT17n+hmGDjUrMifeS46lwjt7B3BXpJKgU4YPP4qPfey9bNy9kEVLltWNkb3I0cWZiF4NFr1CWW9JCoXWGgVI6cCPEoitAa2JAsGgtjY+/vEzmTVrFqa6GBVFJGmCCtwO5DiXpd+NAk8u4c/j2Wqy68zv19vsGau/0J52KXsFISLx9yQl/Z0A78jsj1KH97LWoKRk9sxR7Nr+J557ETa88Azr10xm6NASBQmNgQHtVlxsXMsmCzBZp62DRHG1MKRa0yjXc9zRcMtXZnPddct4cCFIkdKRfVG4iWewWGMwdWaRVLU/klKSJDFoqxFAlQYwENCDBhpxrJAnjrT836tn8JbzjwG7mlQqB0eRoKQAUXAmG50kJmXJikEsWbKUihlOECjKaUIQBFTRrijLONColgFCCEKyyeP6xVjhHPe4uokxY8byxtO6kFpRkD7qlfsiffMn/SfffWQoitG15dhaVBAwZMgQ/u7v/o6//usKd9yzkrvvvpurr/4ORx8N27e7CkiU9MR3uKx9+OrjmZlPEIYBY8aO5hvf+CA3fXcld/z0dwjjE+7ZCp73LrH5ZmN0jqVE68w59uLzHR7JQiTh5JMn8pmrTmHqtGnABhdsEIIkTZGBdUyZ1pmg5UqZIAh59tlnueXmR9nZ7ZzynhQiBVXhNhpfj5YT7WV59yDDnPpXpOC00xq58PS/cJWQh5YO6hdyZCgK1HwHIQh8mLaBjTQU4f1vHsp73vC3PPz4i8yd+xAvbYbb/u1eOjqnc9HFFzN7WA9CFsG6/h/5QztIzUVqe4gKEaLqirKKYjvDWwzXffB4LnptNzfc/Cjr1sHOTsBaKtpSDELi1CKFJAgS4tRx3ge49tSp1YT+XrTtphDAsBRGjIT3/c0wLr3sPFqbC2j9stv90ipSSiIpPfbLQ+yFprHYSppqXndWG8MGjcFql5DMFCLSjlq2U0Xs2LmD7/1wFeUyvO3NJWbPmkUhgtWrV/ObP2zl+efh1FMLXHnleykWYgeKlL56M+cUyFhr/tdHOTxFiDw03Cuf4m1rbSzFhhLnnXce55xzDmc/tou5c+fy/e8v4YknlzD3n68mCAKHIHkVDIgqUGijHVpeSqzP2DcWmjjzjDP4/vR3M3/+I9z34FKefmoRG3dBnCYYBMIKtLa9QB7WWgyWxDpq7qYCzHrNFC45eQwXvvFCxo96kTCKiCsdjh9M4qlTwSYJIicEdDAaKyRSCo455hhGjhxJqIYDNcMo9BzM3UGBr339a1SrcM01/8Db3jzS7ZS2ytlnn82b3z6GL33pRh5++EW3E3Po6ILDWY68/ijW446kwGrjSNqDgD09k5g37w88/exmgiBkzhsmMH3GDN76+h1ces4FrHpmCs8tWwamCxGUagnH/LG9MlZJ43i+grACOiGkgrSSIK6AsUyWO5k8p4l3XjCb9euHs/CZTSxevJSXNll6ehK6Oh2kRigIQ0tDo6ZYhNFHK0aPHs0Fr5vM2HHjGNLcCOYFF2kyVUL2IGQIsg0Txzz7YsS2bbu54NQQISDQWdRLIRBEQhMGAtjk78rtlEHBLSTPrRzKr+7dyWUXS9566VCa9SZHb+Sd9cGtXXzsw6eyZMlL3HHH73nTaee7cmDTBxyZ7yTZTnx4Y73q5chRFGPy5KMQAp2m3H777dx889MMGwGdnXDvfQv4+tdizjplGGEYcvyUKUyb+RqwW/6s065evYYoipg8fDBImTOj5xIEUCxS0JJx48czfvI5XH7Z5fQkzSRpQhK7ttTZdUdFS6AUUSFFG0Mx3EoQhs688hWL1lpEoeD8nTTluWXLuPZLf2TS5HZef9qb3HkztIK3sYQUCGvzaul6MdrwwgsvsGMHnHba6e5DWStZwNf2Dx8+nKnTprJ8+XI6uzppaWnpDwiVV5Qjpz9KJj5BYa1FKElVWnp6KnzvB09z9nkn8sXPzWLv3r383T/ew7d/+CRnzDjfIYKbNInpILRZb8aMVSRjRenDW5VZNn4ePrF4BPfMnctXrr2MsWPGEgVbQCqs2I0IBKRFSKoQGgI0Wm+iVBQ0lrb7sWN33Sb00BM/OT3Pl7EFiEFYidUxiBAhJGnsGpl8/Vd7uO3fF7J5HRwzeQbWqN6URNmK7jUka8uX6XJVNCCLikrXXt+W0VdGhgabpIjABUlKNiTRCYGRxN2a1Bi0tQT9cOc4kPSf+Nx/VjIoi58MPT3d7NzlMFCtra2MHTuW2bNnsXXrFtIkISgWSZO0dsyfUWMRRRFPPLGbG67/AZu3bHY+RpqSpppU69pOV5f1N9rk37Ha1UPk+KxM+qB8s1cW869UKnzrW//El7/8Xf60LkHKGiOLO4lhv9tH30emHBvl6NGjAXj6qacxRoMxCE/QjbWkOmX3rl0sW7aMoUMH0dDQgD6E8Q93yfujcKTsKD7hKKyrRWmIDaWqxrbBf/x+Hk8vaUIpxfxF63l5Q5lPfHM5DaUSATBy5AiuvLyNIAprGfj8sWUmzP4ZEVMpiCX8+ino/PJTfPv6s2lpaaEpyNC6MSbVjhjPOngKAqxJCaSD5gNgy/6fGdCw2d+Pu57EIwU6xQRefvllvnbLUubOjamGIVYlLkGeJIS24GPNKRlZ3ytKuZPGMOA1xw3hpEkwd26VqVN38Lo3jCQMQxoCl/N5cUsT3/rWXLZsSnnPe6ZRUNI3UfL9Ymyf50VfX+XwlyNDUbL2VT7yZbTDRrW3N7FgwdOsDN2Gs00HlEoN3HvPUwjh0iYnnDCU97z5TSij/uxu0BZ47LGn+fznn+aaa66maXhWJVnLXutUE4SA5/RCiqxjUG03yY7RxoV4+wSWFi1axE03/ZRHnoIoIK+qzL9WFyI/FAmjCKyhvX0Qf/VXp3HdjY9z7bXf4YF5MHPmZAY3F3nppXXc84e9rFsHp84ocflllyMLa1x4uL87KXVyZCgK+NXTQcutVBQbm/jjjy8ijmMKMsQYQyICn8BzK2EXEIYhxciCrdTyAflKmdWL1DFw10kZSQXXKSvWcNvvYat6hluvPZPB7e0U9BoHLjTa1UCa2GPSinmS1DX68TtJpiS2DImFoBmkYm86gfvuu48v/MuzrF3nSt+rSmK8SZcISJWl6neyQprlNfx9HGhCa0cQURCL+JsrjkUVQ37840eY9wd46MFVpAYSYFgDvOm8Jq75x9mMHb2YWDuEduEQo4P9QY4MRcnzB545USlUEFAolDDaoKz0WfiiAwzaKiKKqGzbyqpVqxg1fQoievUdt6SUSJfOwFpH1fvg7xfwJbWAT3/6GkYMEnktvwgCXKdT7VAAgSuqEvW94DOgZFbfLhWde3bzo1/+iFtufprNVZ8lT8GkppcCOORyfR7l1cvFF13MKSefwtNLtrN58xbiRNA2aBDHjW1hxowZNAWPEycxshAglOj3+nFk9UfpJRlbpCuIEsqghCbREiWgpycgCIo8/WIrCxYs4Bc/fojBg+GMfzuOqBSR9WNPpFOaLBpWQ8X2nhmhhci4dobaOCMrBf7tt9DV8hS3XH0cTa2taLsOFYSYShWZOcnC8YVZX3supCCNJSoIwDaQVGJWdEzgG9/4Bj+fuw4hIfG+gPQ+gMmjff7u896TWcb8AMVVuYJlPpjLB7Wo1bQcpZgwug2bNmGtDySYKojFOL6AAGmascZgZQ2l3Gu8fihHlqJktrl2KFukw38FPqK1Zs0a7rn3Hn71SMqunfDamc289Yq3EjXYXo5vxg18MDHaYExdLYkkx3f95I4HObHwR9535ftoaJVYnSKjyNezO9SxJfNXahNMRBG6x7Bl61Y+/Kl/Zdky7VIaGvd9BJGQaGvcsuBTHhlOTCn5Z6/01rrej4mu5hxoblC3u+lYo6IIXXWKIfuvXuwjR5aiQO4Q21TTbcaBgd8v2sHPf/5zHn14KyqA3Xvh4x+7nE//bbujEtIe52tDEIJIeyXJfJM+FXtZv3kZaqz0tFxApQ/q/DO3VXlBr+G6f5hAS0sLkdwJUpGabIY5mlRhUpCKioqwFctvFjTxuc/+grU7RB8rytWmVGWAw6+kYKDFwuhBHZRMBSEDMBVPuFfwxx2oTiQz+zIwpgd4Kk9uJ5yPY7VBqBAlQ0gtKnD0s9o2+9H9c8m7Jvc/ObIURfquUklKZ2cnc//wKx54YDGPPA+jRsHHPv52x2H1qa84jl4paviwg/AO70/S1GlGnDr4Ox5yltWeBMB//Mf9HBVE/OM//qM7SCmCMPL1IWmt3gO3ot/2w9v46ne76OruXdBVL0II58j7Kt9LLhrBW/7yLxHqZbB9OgH/Z8QaV6FZLGGr1d5jDgAWliOzPwqQlHsIm5sxWF7asom771/BwoUQNMGFr7+MN14wljAMsAlE0kJcdqR0YYOvCvQQGFlX0Qh1eRS/Mvv5e9KElMkjYcUGZ34lviIyECADQbe0aA3X/Sjm5XAV1//9WBpKJRrkDoxOwEYYa4nlOLZs3srHv7WM3/62i3Lizp3nvbMNTrq5G6YJMTCxFd75zml86G9n0ti0HawrQLMqQkhJDXLpVnqR96Dsw8fVVyx+4Uid2RWD4wbLan58vY7s6jVc4qEzoel/Npm66gPvuG6oWeneHfIi0PeL/QMpqpTCVGOskgwdOpQzznsP06cPY+vOHTzwwBP87r4/smPHKlat7uLMM2cx6wRnahlrfV91j43KTRI/cO7M934OhdYxjB9fZMETu4krZarKlbcIX2uSpp5wMoXnnltJC8s5+eSTiWQPWIsMikgBy1dv5brrvssvH1zn0ivUlELglM9Th2EtFASMGT2Uz3ziHC6/7DLaS53uUn2PGCFcQZYlg7RkplXf7qSv4MzUQWq0Vj7BWFeYZS05o30WTPDvD1bw9j8v+5/4O9VxPP744/SIY44sRcnoiyQCiaBFbeP4Y0u86fyjOHt2xNqXt3H/bzvY0gMm6GDShBNoGjKFotwJCIQuI2yKpYjrLQwg0NL1dZTGUwBJB8UvBLuYNK6Z6ccew7InlrOh0+cRNQRZSsQCMiBNDQuWxlQLYzj9xKlU9WBi3cp9DzzDVZ9+iGdXVKlKtzMJK1zZP24ca92cbVPu1BeeDt/44l9w4enttIQ7nYsRRTV2SymxVrr6eyGQtgiECNEDIiPXfiUlyV4hyAhp3Ac2aARZQOis63BSK0LD4jYSi0Tg/3+YyP8qyiuLcGwsYbHAsGHDOPP8t3PqqUcRNTfw4ENLeeS+J9m0aTGnnHQ0YRjmkBF86WvGvpLRY8nsH/7zxKQEQcioUa9h/PgmHlvRwd69HflOYHKCbABLquG5pc8xtLCF4487jtt//GO+dfNCXtxa9aW/Xix51M1YiJRAWCgo+MvLX8+N113G0UcfTUF0YK1xjY/SNDcNrXAVlRkVrPRdiEWuJIdoGmV5HyMgCIgTTcfevZRKyq0CWQmkfy7ZjiLzJeZwkf1fya5gCgsXPk5ZjBmgPkrfnoQHqkQUMcYapAFpNMOClZw7PeCcaSdx9UUN/OLXC9m9aws9WqMshNLlISQuDyFwUSOVo4h7Z6ILAkhiQl7k3DOP4st2GjfeuIFnNwSIIKSYuEx5ChhczXxXGT5xy1Lu+GOVRxesIlLuPBrtbH+ZIb4siS8sUtowoh0+ceVo3vGOmTTLMqb8EjRKH5HyvoPOMG++3iQ3IX00KmOmFHUmlLvR/UolCQjCIjur41kwbwE/uf8Zmhqb+MFnZiDDsHagyHyT/Y/TH2RgKsohSpYPqdWsK4TRCCmZPPk4PvbRM+kplyk07Tj4YAc+CcZDUc4880w+8xnJ31+3hK1bthJgUUgCFRLrOPs61So8/vgqBK7NdwRI5L4T1lgslqnHt/OBq6/m0nNih0o2qctxWOMTmMZFpVSB/0rZsWMHixYv4od3rGTxEthh4KKLprnF51VUgvYH6aeK8sor3QG/n4no8xOBQGBt2dvebtJGqpvI+7e9k4zZh9nxfTPz3sSRyrGYCLdztFbX8+YzJzDixj3ccMMGfrvWX5t2RlVROKCjsQZhLQqXRNTerg+tq5lP/GUMBt5wQTufuOoMJkzooGgrjjGfTkcrnBZ8mLaICAp1GfnA33VmimXcwAVXZxKFrn9eGGKNJtXdhFFE2YzGWsui9W3cM3cuv/7142zZUqGkYMJE+NxlI3nd604kKJTc4pPRFfW1zPuhAvVTRfmfl0PJxB/sOCkVIgyZOfM1XHutZdFnX2Tzhs0EsndY2UWkfM2JDzxoTG1+WRAK/u/7TuZd73onI5rXOiiJFb44LUMg4KMFdRixurzMPhNWSEQUYavdLnxstGPEV4pydzcPP/Ewv/zlfB5eCnv3QjWGOXNm8RcXj2L69BmMbdrj+tjb7j8baX04ycDNo9hshez98T5TvO88+bNjEQeaDVm4tbfPEioN1S6iUgOnnTKT73xmBDfc8EuWb3C/ryjjEpE29Ndm0BgSqggBzdKZYtNGwZV/fxbvvnQyQiyBIHH2WtjoG38VnbIJB8zMlSOrYVfKYbE8RCbPmGufVA0cc1fFTmHXzt38/Pd/4pH5T/DQghcRAoa1uWZIl58B37j+cgaVNgA7oKChexcU2nyuJWOtr+vDAuzL83V4ypHVH+VwEt9Ri6oztV772jO45hrNJ7/0BzZs6Kxx9HnMlvU+jBU6Bwa8ZuZkrvvAycycORMRrnYEw0ni0cXaH59FsUSehbfWOiSyB11aazEWlKpbRuoYIdesXsO98x7lN79ZwpL1EAYwffoxXHTRxYwfPYRPfep6lIJCoZD3uSeOXYInu5FX0evlcJWBwRTZ10fwkodxyTLNfsUMDRhNyjDiJCa1LYRh4FEqNRi6OcQ/rrRyH5PMZowvuKipkhIhfV2JEa6FobdLVKWDOefOJo2m8/nPX8+KDT4h5wiLAAdsVNaNqAy85ZKzmHXS0TQ2aDrjIYhAEKJI0hRrMiVwCUUpA8IwhGoHYRShwu3ElQqRLCC1QEoBVmGNY3TcVhnPipUr+N6dS3jyyafYtrPC4MHwN5fAZZe/npOOH0tjQ8Sal1NaUgg0FIXJM5/WGkTgkz3g+q4IyKeZ8Jn6fSoeD185suiKvKRxTBAojDU88MADvLh+r38QEq17wzXEIRjZh6Io1hqs1a7bsMdZZVt6qdRMqjW79EwmHTuR5zf8qRfnsMRRoFaNRSFIjeXmW77H7nWDaG1tRYsy1hpCGyA8B7G7dtvrvgJTZsqUKbzunOOJikWoepMnqMHs1734Ip+96VYefzxha9VtEpdcOpl3vfNdzBq3mzAIUKkjAMwwbGEISZoSCYOQfZ5FP99JgCOgP0oWfcoThJ5FBTeFdyeKn927grsf8oVO9YTUfohD3FN6k2n7xj2AN51M3VnrIB459GU7QoEym72J5Bz3VBhnSRkQ1rpmwVg6gI6d8Pkf7Qa1h4bE5qMLIM2jbe74onG7ZJuCyy+znHZ6RFEWkaoDEQhE9lzkHkYe3cjbrjiNkcMf4dfzYM8eWPz0au5ueoDmi6dx/HHHo9RGYmNIjUQoZ/VZWyW2KaEI6qA9ic+8R70fZl4Rmvb+vB/IwFSUA0gQhGidIoR0NL8IF4IV2Up8sMhWn13Gyl6rDlbm5pu1NgcrgnD8XH1EKFdHggBNSpiHmd21KOVAkyFuTsmgQJomziDzCiRxpBTagvFhZGP8HBReTXXN1s52SmstWmukEMhAUmxq4swzz+Kcc87hsnc28dvf/pZ771/AT386j9/dMY8zzizw1stncfLskykU2slIZLKoWBwnFCLnAPfD6O9BpZ8rysFY0bOdxf3UWqBUEZsUXUGVX/+1/+MenHuhZlLl57V1UTbRJymYIwIUQqjailv3UygwxG6/MbqOR8IrmvJRXgPGVkF5ZIhx59WAIXJKIVP3Xa8MXbiyysBCRYUUlEGZSn56FxAzYIvYxNIsd4CF08Zu4bT3T+Jdb5nAo489xo9+spIH5lX59R8e44QT1jHjpBPolpCWAqrRIJTcAlIgGAQmJRWaIAhdmw0gj3L1RUz0I1b7fq4or06UCkiThFTrfRiGDA6i5SJErzyO6fuv3JR65ePsPorSW7La+n3P448/QLsRX8uI3R9tkq1dVlgouBNo8tWgPojRV4YOHcpll17KOecdw+LFi/nhfyxkwYKlLFu+kdTC5k0pS5csZdY0QRhF2DhFBAEmSZ1vtP/L7TcyAPqjHGQFsr3zF9mksCkEMqJNKApVt875RfsQ17b9/7YWbu/7+4ON9sp5hAP9cfbZl3yeQvZxsLKdr3YW13NeqTasThGm7AgsDnAdLbIbgOa2pxlzruD8089i4cKI381by0MP7uLxlfD/2DvzODuqMu9/zzlV997e0ukknT2EEBJCSFgCBJCABJB9UTadUXD9oOOo46CMjs6Mvq/g68LrvKKOzoIgosiOEYKCbBK2AIFAEpKQhIRsnSbp9N733qpzzvvHOVV36W4SECUd8uRTuX3vrVt1quqcZ39+zwc++T/MP34c73//+5l/1GgaG4dTyyvEhRiy1bheVQibQ4iG6EJ56ySCEAquxaAv4QCGgvD/8ymfz2OtoSazezlfcTEiyDrQvFhrstksx7/neI6Z9xE++cnN/PzuFTz++OM88shWHnzwpxw3Cz7xidO44JQDCTIZGMKlv9U0xBfKYLhR/vOkh6BN0skNRAUKtpOeIgzDLZY8lNkGpaP0t1lc5LyfSlT2/dtJYhBVzlareqLipdTgx79mABG3EAZHup9JMFZg0d7z5eM6VecLQgO6F7AuzcbsJAgEiFUctJ/kqs+MZ/tF87n3iW3ceecTLH8Jbr/rj5x30nSCXK0LQAL9avHTPilvrIruSTTEF8pukJAlUS8ENtaoIOCoo5rok2Ox1pIXA6OqJB6t8u9cj5KE3AQb/DFXy6nB9hxYnu3CRVHawyddSj8BA1v6PI5jhmW7mHHwDIwxKJ++IoTw+Vy7MKyE6B8fEYA1xFHE2LFjOP/8YznttPfx7FMv09HhGqLqvr63Ate8R9Fe0B+lcgpV53YlJIyqdGHZIkJaGkUvX/jYRXzxY6CCEGuKiLQVQllzz+S35S5gY/ud700vlDTO88YKn6k6jxx0Tmf82UrdigFiL3Ks1s6Qlz2+vj8x/qWPzu/Ka1iFGawFaEMmVFgdM0qsQ9QJ9julHqjH2j7fBLbaNqHyOPu8XnsQVWfP+i6+YdanoBuLUIFLL/eYv2lUfiB/sewfJ1CDLNT+E6A6v38Xxn51cudgC8UmrLtyB6E1Kpt11Y3GlNxmA0jKN01SoKOYMOOAKpAKdNHf71KO2VCmvaA/SiUP7z+BBuPxiW6cL32UrIkMUN7OuvzLipPtznlk1fdvTRcfdGH023Fgo1kFOPzgxLVX/bjT4+/uuJL757okZ7I+FGojj1Ps4kgihXaqQogcQjZJNe35Mm8f7aN3iN59/VH6cbLdjcO8WRrMeH+7OOiu+NruSrLq63ubOXw/la76+EOPPw+9Ee+jffQO0LtDoqQ9Fwfp/NTPz78r/pF4r3blwH27dfFdHa9aYlZiIpeo+v0+frkr2neH9tE+GoTehf1RqvCrdpWT1S/L1dMuvVB/ba/OrvjcYPGKffzxzdK+O7a30l6AJr8n0RCXKG9xnVtcgEwKiCOsBhEmdkyZ2JDKobUbm1Q/9T8ODCCB3ib+k8R7zDD/QZVtIZM+JVWSoiyFxb1PApJJDlx35XFMLfvojWmIL5Q/g4z2C8AiZGVSUlqfoWNYlSR1AAAgAElEQVTQbxD425O5dpKRoFRZLszQR0X5a9Lei+vVjxJOXx0hTr4PPRy8g5Y3OMC3BHy7tBBkZXJlOtn+wt6tFBcrP/DnNuPH4qSd8Thd2rpOXELVoQgQqtunsPgKzNhLqHT9DNIHZR+ltJcvFEj7dAzESZPmh5RywOIoQhs3cYIgQPkUWKPjNJtUlOWMpfSXwLDazS5fVhu00RjffBQlUVJihcUY7bJ4pUxa2vtOYvsky5uhvWuhVNVnuES92GscFi0bUVLRpwO0MazbNIpVq1fz4qrXWLVqNUtXbqejowMj6gAY3iiZOHEicw8dwfTp0znm0JDJ+01GFdchlSBntZuAaUHI27VYpJcQvmhK5l16v5xEoVBg/YYcq1at4pFVnSxfvpzNG3ZSKBQo9hRRSjFmdD0TJkzgPXP2Y9r0acyelmXcuPEMz6xzh9dFkrbde1VH0r8g7V0LpZyEIOkw5d66jNZYx7S2trFgwQJuum0727ZBp+/P3oPPHRSdWAvtHbBpUzvPPQHZzJ+Y3AxnnDGCD73/SA488ECXdWiNyzxOnAFv12IRAikkBAGh0GitWbX6Fe655x7u+303GzbAZpwymfFzXRkAzbpXO1jzagcvPLUC+D0zp8LZZ8/g4rOnMX78OLesh3qxyF+B9p44Sj+vU1nFo7UQSogitGoiiiJae2Zw7z338NMbH2Hz5m7aiyVMLIfCkuKvYxNULqEooOmNoKsFnr+ujZsWPseppwznO58qMKq5GRF4SNGEO7/pxVKdo+WoYBsggvUtY7ntttu4/pZV7GzvocO4BZ0ghfX59zGgUCA02kKf73fasQqeWr2SX9yxkssu+xAXnX8QtbW11KtXAAcZvI/emIb2QqmmdHJ63T6KnPoFbNiwge/++DYe/GMLO3zrKiFd41Hh6yeSn5cD4WmtUV6lL/oJ1bK1jetvuo3sRrj88iM57MijnPRKbIry1z+DlFIsXryY71/7AEuWQDeuu1wgku89qErZRLdYpPCSEQilA/2SQrDhNcu3v/0blr8An/3sZznkgAFOWt4vZh+ltFcoqFY48DfnnVLpJO9Uo+iSI/jt4tF8+EuPcNPCFlq1oA+IhHcAabBWYco61VqRxZIBv2lfBGiRWCQFKbBK8h+PKc7+2g5ue+R1WplFwWZcH8N4N1m0FL6Iym1WBKCyFOI6UCO46YGIz3zjYe57RrBJQ7sO6CFIvNquHksLV3DoD2MwzsFlwSCItKVHQaew7BSwXcNNvxN8/IsP88gLRVqLB2JVA7GtcblwNvD1JnsPMMTbQXvFQgFfrecr7azvcKVjzdq1a/n21d9m7dpOAAqxTfGzUgkygAeoxFGNx10d4KTGsGXLVr75zTt54vEnkFLS1+dduW+hQYjW7iRKSR5/fBHf+tb32LQpppji0w/wG2zFtSQok1AWD0rGn3q9BctXvcz3v3cja9euxVpDEIZ+dTkc4T06RvRXojSOYs0QXygyBhkTC0mEABODjTHS2SdbWifzz/+6gOdWdNIduz7vQoGWYAJfGQxoBEYoNBKNBFEAUUDKGCkdSokQCqRBKF9v7hv22KjA6hb42tUP8PKrbehgpAO/3h2ty2bc5qWBFTFIzeJXRvG17z/B+m3QUfSSTGRIZnwscJusrKsX1rmsjQixMuP0LwHSCqQVZK3rsVX06POLn4erv/t7tuww9JkGUEWgF0wO4kzZQM0g295N5Qx0aC+UMhJl3aRirYmjiP/+7/9myZIigXJ6vJA+7maoQooceFYnksl5zBygb8kMsljteiRmJKx9tY0f/ODX9Pb1YYzB6N1Tv8pRGlWgyOfzXHvtj1i1ymEOZ6Uz0LVNAGCrSJHGdqT/lx7Xla+nXXhdizv/sQ8FPfHkRq677jqiKHY3Jmk8tE+iAKXns1csFGndZh3yNn1iCg8vbuWOe9fTZyDWEovrzV5Crw5RwgXms2hqiRglNFOHa46dAHOaYWxgabKWwGrqE1AJAxgFNiBEIGNNwWSJCPntH+GWe/JEsUT4DsJvRNYKQLqwiYnpEgdy/Z3Pc8dDLXQq0DKgaBSWCCf3AhQhWSkILdQqqBUwUlmmjbYcOU2zf5OhXhRpykTkDNQbZ+DnyBIjiZFY5SRSl8nSS8hPbu7lnie6KJgMVtWT2Hr7qKTG7lVeL+G5obGWW2+9h+0diffHs9YyXEghROrFmjAC5h5zNBeedSjjx49nTMNwenp7aNlpeeCBB/j9n5azadPOEvo8MYiwQhoEMsCYiDvvvIu/PXk+I0Y07ZIpa2MIlAIpMcawo20Hv/3tUveddqK/1EbCSQYpJVo71/XEsRnmHX88Hzj9ECZMmICkiLWWZ17cylNPPcXDD66grT1CIImIqZCc2uFWWRvT1QcLFizgvKPfi5KSQAYuULtXsNG3TntPfxTjhi99vw0jslgsjz9nuf8xl7ERgwfEsgivOoVYpNEMD2DOnEa+deVxzDhoBjWiiBBtWDqRQYBmJ6ccuT+XXjKTn/70v7j9D+60+SAkiiNib1woJCApAC8u28q9f1zGBz94CTnWv+HwA4GbkBiUCrnz4V7+9JLj9ioQWL+SEzsko4oYA8MVzJ8/mWu+PJfm5mZqGhToTaAsVsfMmgSXnz+PJ58/nGuu+QWLlmp6ixCR9H4vQgBGRC47OtI89GALyy/eydFHHw3yNaxIun7Rv+LzXaiV7VU8I+HwCxcupFgsyZHAR83TLtH+SZ9yyv58+9vfZtasWe57LwJirdOOuNlslhkHH8w3vvEvXHrpWSiFQ2pXCqXccQ2GyEQp17nvvhfp7u7ZvUH7cxpjWLBgAUaDCgW62N8eycfOhLj44jlcffVV7Dd5P2pqa1ypgDFYHRPHGqUUxajIoYcdytXf/iLvPXFu2YM2JQ4SaYg0IQ6XeOHChRQKBaw2iGBo89C3m/aKhSJMgDABSufobSuw6KVWtsegfAcrUYwJLSlnFGgOObien111AjNHP09W9FIXFhAqQAhBRkSIqBcTCUwkqI9XsN+IHXzri3M5+xhnYEud5HmBpQgUKQBdGhavg9VtteAlTeolEn6zPmNZdANdxHoYa9e3s2zV6xQMaA9bahiGoSFdTM3AufPG8Y1/mMnk4YvBdoDtwArjgPlsTKgsodHUSEGdWMH0iR1852vzOG4Grn5FxumwQtzW5bdHl8a0FkaDrUUX9i2UchraCyWJvHlvl9WarVu20LKtBT2A9zLxYOWycPY5Z5PNZp2NAL4wq6xNhJQEgSIIlDuHjqmrreOjHzuXmtoaYsAYTUluiZRR5/OwZs2aXY8/Gbe1bFi/gY6OPv95ukPF7jU1cOEFFzJs2DD0bgQ14zhGBQHNzc186ENHEWSSoYp08ZWfoXUbbNm61XX72idRKvqjDO2FImJfS+E4el7WsWZrO4XeyGniwm0xbgtkBmsFB0+AD54xlUwNyIx2TdONIaaIljFWFrCy4CFCY1AalCFjt/CeI8Yx6+Dh5JTzVJH0aheun2OApLcPXlmzY5fDt7oWaMCKBtasa3WXlDwRC0I6Xh94+2rObDjlvWOpETE1FTUkSVwjkWCOckKhIk1T0MqZ86YyrbmWWk3KYCqjBIKePtjw2g53vbLs+KJqexfS0F4oVZTNZmnb2UY+bwZ8nrGOEQimTcvS1NTkI9G6It28ovuUlKWAi9YQhuRyOY459hgflylLe7HGeaWExBpobW3d5XgdZq9ESsnWLVudgElc2ANcwNyjJxOogKhYxJhdB/ys1mmu2+jRozn88MMdTrIvfkwu29lmgp4CdHZ2gjWYtK3cPoKh7vWqqljMa01vMSrDHHGTPlk2AQEWy/4H1KHCNjQBFkMQOLeyEtofTlQd34Nc04oMYiaMq0FJkMb6lnbeO+VzemMLXd0D6X5V71Xs604ydHYXS2UtWiAQGGGSMAsGmDZhGHWimzAM/Hiq+8NUZiGLwIItYFFYYsZPGkVsQSjnHjdaV6xHI6C9N0ozp1M2UF3n8y6koS1REl3bb0mu1BtdlEAgpaKmprbUqXewLN80fO8Wko0cl5VKkgmpQGwXlBaYhrQycneuwVpb2V04Ic/5rYVM4M5rjHGJlGHYf/8BL6GUr5ReinaZAzY179yJdNltUGpoT423g/aC/iiePPKjTty+skAm43qsS0sJFML/oSkSCMWmjW0UCwHDVJLqkUiSSoTFyH+fsYHLBTMZjLW0bukE71UDiEgMvghjIScg64wYf/5kwFVSxjrwhyjS1DU0YHWns3c8aooUEmNiIlx6/eZtMUVGkLVdOHbQV3nc6k5WcRYpBSYXQGTZsqGDLGBUDdYaChRImgKBC87WZLNgJUL56tCK8b97aa9iG0K47rSDVbcaLLHVrFqpaW9vH7AbbvVn1ti0PkMqSRxFvLxiha+kFeh+JrETcPV19bs9bikldbW16fkTM9v42n3p19wLLyynt6cHotjl2Cf7W9tv3OX1JMVikc7OTtasWUPROG+dNjqVWIn0y4bOztO7Yf+8G6i8P8rQXihe5VLCuk0WmD5tIqOHS0LAUIOhJs0Fc3asZcsWWPRYTCwCjMoSE0MoQEYIio4zG0UYG7LGImKBKGh6xHCWrtvO40+tomjBWNPP7JC4HKw5h4zZ5fCtt96V7OLQQyczvAaygEVjMLg0x1J9zZ+WwrOvKEw2QwEgU4OwEkmIsEHqBRR+ARRzAb3Kkmca9z+6lfUbtmIBbQXl1omwGgk0NcK0qcN9566BkFm8Vy2JA72LaGhfbVkcItnGjhnD8OHDvcPUUOLPEAqJAnZ0wx23305XVxf5fJ/rfJuIocG6neZq6O3t5cYb76ajs5cYpxqVWyJJZKO+AVdTv8vhW0ysUVIxdepUanKqYuEpZJpFANDZCbfffjvd3T0u/lMouBQUpbwHzReCSVeaHMURYRDS2trKzb95lL688dnD1tlT0jGa2CcNN4+C/SdPRipVss/exVTeH2WvWCjC9Lme6bbAqJENzDt8KvW4iLlJWzgLwBAEiiIhjzy7mW9e8xStvXOIojryfTmw9RhbUpmiuA9C0OF+9BZH8t83b+I390CvP5wOFCZQyMC9l4HL0zpwAkzfbyDjPKC894rMhEhrCOTrTJ2Y4aBJzdQlQxWGGIGRgTOhJHQKuHHBC/zHDc/TVpgBQQQiD1HB2VlWAoFbKEGGKJ7M9rZGfvgfK3j8OegTbuxGgJECYXJgMmRC0AZmToPmxnZQRWKzmyk47xIa2gtFyYrNaNf19oQTTqQ2C6kSTlkeV6y9lLHcdttarrrqal7b8BoqcN1ybVktRlhTi9WGbdtauPbaH/KDH9zqMCTA16rHzqtknTdJx+6nZ5wxfffGXyrSJ45jTj/9dGeWp3EOiTG+wN+4ySwl/Od/PcePf/ITWlu2umOkoBYepC92A9myeTPf/e73+NUtC53aWS6ujJO2YZChGEE2A+eeczLWWoqFAnJfPUoFDW2vl+x1rx45MYMlAE47vo6FR8IdzwQUothXwRoErpqwz7qF02vg5/ds5fEX7+fcc87lrNMPZsyYMdSobpSSbNlqefTRR7njrgd4eWUHPUY4RU7UeD+TK/tV1sUlBJoD9hdccOYhDAu3DjRg/5oEMQWoELQml8lw/hmN3H0rPLPJxUGV1WhEqjzGcYjFsknH/J/rlvPoczs444wzOGPeaJqbm1G+6+pL6zWPLVrE7X94gXXrtLNnkkCjFAjrYiV1QmLjArXACUc3897DJlBnXwdR5wP9VRbYn4eVMaRpaC8UbSpQIIPA4WzlcjkuueRU7nr20TTIbSwIktRxN6GUD7yvfa2bn/3nzfzi5zBpEoxscOr/us2wo93NDyVKuWLV8yWJkucCuOiiCxkzZhRSlSEz7g4JwdhxY/nQB2fy9PdWuMvzNha4tHuhlfduxVgLLy1r4fnnb+D6ejfumlpo2wFrW9342xNYs/JgT7/TCmqycMklH6SuPukanCzodzeO0V6D62UJ/MRPAim9YAxZuZlTTprCmSet5JFHNrE9wgXuhFNJBBZrnPcHXD/2bgPdkeT1tRZp6zxsai8ajeMnCpUgk1j3qq1FBoI6b/vOmw2fumgGSm8hCLIDjDhRkRJD2XrD21lUmWAL5593GHf/cRMvvtRJd+z2iy2Y2CLIIwRokcNaS5svrursFqx+uTyWHjtwPhFjJSih0JH2mIAuSCqFILIFQuADp8NZJ4/AyM1eRfVZ1oNJkHehVja0bRSoRFDxerWLnGf4whc+z8SJ5TvjvGR+nqY15qlGZFIvWoI/7I6r0s/dYUrnNMaSj6CxMeRLX/ogTU0jCMKQuFDoP9hyvT9FSCm1kxBCMmrUKD73+c9R730K2lbmIhoLNsEjSjJbpURKx/PCICwZTAAx6EhTDmSfjD4ADth/BJ/97KcIlEKW5btpbQbPWHgX0pBeKEIoh46S+PVNDZgapO4ioId5U7bx//7pKA6dBM2BDwhagBAhsrhsMIGyHnnRZlA2ixQ9CPqwHvwOCkARQz3a1hFiCBK1xMLE4XDV189l/pwRDLPrIe4hyFgq0EqEcHEOqUsAezGgBYYIQ0RtDHWx5KwjO/nJv82gobEedxSJUCFGgBOCMUJoQilQ1mBNEUwRiJ2nLklX8Y4HkVZBh0CGDBJhLbMOgGuuOptZB0AD64AMwgRIIwlEUOYeT7K0q+pr3kU0pBdKP6pCPhFKcfzx8/i3f/0nxoyBbDZJOnG15yoIkELik3gd1m8ZeQFUUR/iFDdPgfvu4otncvLJJwMQD5Z1W0qsKiHig8seVgHGWow2zrYBTj/9dObPn+/Ha5wd5EVL8vvEZvKhFKravKRZAuVXlAkzBEIxcfR4/unK97vqztCBlqf3L8H1epd7vspxvYa0jZLqUC6ygcX1/RAJtyu2EAQBZ89rZsx3T+FfrnmQFSugvVhEafCmi+u4BRiSDlXJBAlwGr2vO6EHJUkDdPiOEa9t2ezq3GMPHqdyVQzXY4FV9bsXgQDrAMcC6YGEIk0ohtPV3sWatau9MZ516panjM1hrCVKO2pVI744G8qIoPReQAMxxaibU+fAl750AvPmNCLEOuK+vHOKmD6QEqtcwmjq9LI+XcYfTzBYL8y9l4I0T6iSde6Cqvd7h3TZcqxhymyH5PNMBqQkKsQcdthhXHPNfH7965u59c5XaWvvrcr8Beu5NBWoLaWt31VaZ7489FAHjz32GAec1IQVotRSoWJHkda3GGPQxhAaSh4mrSt+s2DBAla+vNFl9NoIRJBeVxIHcmj9EiFl1TNMkiQTCHJHTSPgvPPO5XMfmcLYMWOADRSLUQKD75iCnw/GGIQtczpU3IHq16FOA19HecbHEJconpMKH09J8XITQ3Y4SEW96kbHMbPGtHP1F+dy3qmTueWWhfz+YejqgoI3mGNbkh8CiyYun3ZYnDRBJjLLgoWOPvjJT5/ipINPZdSoUdRl/LiUz+71MCoJQqMSWacmCe/e1h5KSBRACp5eluXHN26kmGhx0oCIPMCwBXoJcQLNWoOwvSicBZLeGiAgJpQwdTQcc2w9n7p4NrNmjUOpbuch1IZQWGKT8wFG7S+pSOXkSbKS/X19l+V5wVCPo+yKjHUwqwG+BtxxysMPP5xZs2Zz/rKYl1e8zNIXXWbty6+0kI8cjFBkIZeDkSNHMmPmDF5atowtLR0lwyURXt5gXrFiA/fdt5DLLvsoURQTZrNplaD0afNJz1FRbgsZW7IHpAVjuP3222lp8fFB/EK1TsoJpQh0zKQJ9ex/8Cw2rF9Py5ZtRJHFl8vQ1OC8Z3OPmMxB06dzyjFNTN5/MqNyG7DauY5t0WGASSWRQrgsWePOY7Tdh2bPXhFHSeImlYjrIpEkxnF0qyI3GXDtH5QBJSyNugXCkNMPF5w+axxcMoHu7kl0dnajtQabI45jbGCpq6slzoznllte5aprOzBA3roKxAIGqaCgnYH901u3ctj8Zo494EXXBUKOc7q+cSskpsYNO/ZA4uJ1pJSE0kmeHj2eJUuWcN3C1RT8Cik3dYRwuF0jGuDKK87gY2cMZ+fOieT7AgqFgp/nhmytpr6hnuG1w53hbyyYdS6GpH0rDBVgcOqepOAXfi1gCWzRL17vLhfufgr7Vm2TgSswh5KNM0QXCo7DivK/B+aAKWe0PiBXKIAMS+5O5RII64Wgrq7BFSyJGog1RmmklPSYRi655BIWPPhrXlreWobxa0pFkNby2ka46aabOPpfZqF1zKYtr7Jt2zY2rnmNbS3b2B4LpBBkjYNFGjshYMr+Uzhwyhiam5vpi/Jcf/3d9PVWhTBS08tx+hNPHM4JJ8xDiOWMbG7GRm4ix9ZgjAXV4zihFYgwdCs5mwWTL2UbQymBP3Xv4d1/LsMhtYlMEuf5M5/ZEKYgbaDzTtpl1X3akwzb5OEpz8l04tu3PgPRB8hEUOG2tYGuRCJ3zU0Q1kImRwUns9Zl37qZgyUG2+UCK1YQFw21QR+1IxSXfWI+X/nKLZjYuhoWf2yDIZQQK7j9vhW81lbHtpZtrH11PcViRCHOoI32WMOWJDUkUCBEK8NG1jFp0iSGNwzn6acFRliUksjY1btoP0MzyjJsmOULlx3FxPoNYIvY2CHQgMMEcBmbGe+Ri7FFh0RJlC8xFp0gUPoAbZLnYsrc60KCUb7cuehvlXdSJCF7W+9Vx4RbJEHaxJmQdDUuVn4+RKgCMvcdHEc/SjlXtfcq+Vv4Wos4qvDzCyUq9k/wmPrp2UmthhUe3HdwSQR4fCuV1m28732n8uAfH+DO+zrQZQ89CV8YAx0dBR64f5Efl5tvsYdNdbfblWNZLLF2zoMdrT3s2LaSMANRwhMo68nh4CkxGs477ywOOWQ3s5MHoQHvzRv/wL0O9JOkEdJeGMXfY/rMW5HkFCU6cFWwLl0vHjVEuATEFLQuMYp1ohr42m/hg3OJd0Ym0KcSDA7lMTlBhQpXVXMuOl3OVOxUsXGZtVxx2VwWP/t7tr0OvTiOqSliBfRDQdV+wyCEQlqBwaStGRKKrVuUUTH2buAYaxXGe93COCayMGc/+Ie/mUatKLpxRZnK86WSOa58n8ZZev3HCWZzwmCS8ST3M5EMLj8scWFr/32yt0jiOODvofQLJrnv3e7V1Pp9kuNW2yp7Ju25/VGS2pIkVO65ntbG1ZEkEiOqrBf3b1w2sTaOtZdt5f7wgerkByXh1RHtVA5jNDNnzuTCCy8scxmXHa8C46ecXJyjVHHp/mUz2fT31mqc7ueDM0DgsY0jC7kQPvbxo5g4cQLFKMIU34bWcVVIm/3eJ/dAurB/Uj9eEXurvp97WUQ/mS/vnESxFut1deEjv6ga16A06PMpGzmkUvTISehYs/H1gM2bt9DelsFogyhagiAkVxvT3NzMhHGW+ro6GtQO4iimNux2rlqtQAhUElEWVZyYqkmXPHvjM4B9UmQYagJlOOvcU7n97jtY11L6XRo4r5gjIaWAZam+XvsQZ0/UV/pekAb4koh4VBavGNM8jnNOPp6c7SUjM36Maaqkf62WJP1vu6MkizlwapiHPiro0Wht2NmeYfOWLWxoy2O0IS64hVsbSkaMHMnYMYphw4ZRX9OCkpKM6XFuZpv3zzXwql3kF36SdZ3EvYZOf8gUrugdi8zbsjhvwpWKRUxUBKGRYYgpWlpatrHwiSdZ9MTzrNkELVuhY6frJypwYAxIGD4cDjoQJk6q4bQTpnP00UeRHeZ6E1otqq5vkPHb6u/LdHMLGENnZye33XY7XV2D3IJEqxOSUipMtYpRaVMNmrbuW3KHxrBjxw5+9p8/4zOf/gzjx2S8EyJRfXYRMa++rvLzCoExhny+j4cXPcxzzz7LSys62bgR1mwrLXNXaADD6mC/STBufMh7jx/PvOOPZ/rk0fT29FCbw1WJkuCrJdkGg93fPYUGGU86bd7hyLxM/PLJhBJ9yNqAjp4D2PpqC7+8v437Ft7PsnVdrg4jcYJRWVIkjKKlzfLKYoNe3McN9yzlkEP6+OJHDub4efMYW7sWY43Pp8LZHoAwSX18ldcm5eSJ5OkDJXit72B++j8/5bobV7vxk9ziUhWir3ZxtfAUMZSM/cRJEftX7TPJkvOZss/d/hBaL+90kf/4DRTqNvKVvx9NJpOhvh9SSgKQkZ7QU8LBA3957noLZjKFQoF7H32dm3+zgEUvdFOIC0QBCdRZyiOSNJ/WHlizEuTKiNsf2sABUwr87TlTOe+88zhg9FakkmTlVqI4RtLkf5xIut6KcQwlemdHLIXTiRMKXMT4oUce4RfXP8z9K9wADb7pzi4YsNfy6S3A4iWr+V9rV3P8CQ/y+cuOZPbs2VidH+SXu0HWctedd3HjL1YTGwj97Ldl/wuPPayt84lVLOYBDrkrTd7iIJH86TEGfn79nUxpHsGll1761q/F07IVy7nxF7/kt3+EQgQFXPO7oscMU2VjTJzaSdp+IhzWvdrCT37SwgMPPM4XL5/Fe088kUyNJQwCn0tq/XM26atl6EX+37mFIgTWOANRW+cV2dQ5lZ///Of86FfL6OwBhOOFwrocq9B1O8GgCSghTyW2DspPTv92VUeO1fdonnvhUf7xH2fzgfe57OLa0KVOi2qVqCq7N/GCtTGDpxcv5t+ufZKeIkCGWBsCAp8T5kYBRQKpyRon/QJg9Cg4cDxMmz6MKaPrqKmppbu7yM62Nl56pYdVK6E1NkSxu1bpLgMDRPguxWhiK+jCYGP4xg/aaNq/iQ+e4G2AxF1O4Cdi6AxvmyBJOhWoR9cgpaSTA3j44Uf4xvefZvNmyPufEluKUpdK+pPbUvWqkzfW1fC3mJjWlbD8ymV89LID+dpnppHL5ciw0SNfeuxmWeuuTBSds8YG9HMG7KH0jkoUYwxKBRht6Mvn+b/XXMOCBZvpLTo8usjXZkjtkE6S+ENC5dwOSN7fvIEAACAASURBVNPey8li2LwZrvrWj1F9B3LO2edglPalvrvh/9eazp5Orv/53fR4BB/pe4dInXD8kv0TazfZJ44fz8cvPYTZh87i8OmjyIQZmrIxxWIRa53xvL0rZM3aNdz35FYWLryXjRvd1IxJ4p/Kx2sS5cdRbx6uu+46TjnoGEaOHOFSVNSuOXQulyOKIu655x5+8INH2Pi6n/SKgfHudkEWS5y4Jnxo6sZf3k22R3DFFV8iNyzEtWDGeTMBpCzluu3hi6S8P0rwpu34t3UgGawJeK3vQH72s5/x09s3O8NRZoiNTiPF1ntLIvJ+SiZ5sgMUSVnwCgIBEQGKNgud7SHf+M4agoYMp783QClFrTQ++zbJBEgkiq+JFzmKxnDLwlf441MuidfZ9E7XNrbytjUA9Vm4+Hz42MdP4qDmWsJMAdRrbibF3dQo4X4kFePHjGDUiJAT5hzA353/fn72i2e5884NbI/csuguvz5T8pr1AQ89s5Hf3T+CC97/foaFLc7OEXknfoXfN1Vr3cTcGY9m0eOL+Na3H6HLhzgyEvoqEsokiFL1pntR6XEsIrU5Yhn7RxSgraCdCGL48V2Wtpr1XPUPYwnDkBrb7grNdIfPPRvmD7dng1e4NWLT5NR3jIzREATcf//93HijK1ISeAR2vAqQPixbxlcFu9bwQXrDOiSDQLCjG77zf77H+g3rnfvZmrJcsIE5RXt7O7/+1R3ORkgH7raUCQs3v5rq4Yov/T1f/eoVjG4eTZjNOq+Sjt2iN9aJHGPBaGKtiWONVIpJEyfx9a9/nS9/eT7NI5r6h+JEqRA3GcOvfrWU17dvL409yTRI62ooSU1jWLf+Vb73vYW0e4+dBqKye/xmKc14SUorQze63ghu+MXt/O53v0OpIK3FF0KgtXZFaEPMRnlHF0pcN5lnV7Ry1b8/RJcBIxVWSgxxhV4liAgw1AHDpKKJIqMo0iigBhetqBGuZ7wSIJUzpYtBTEFEFChSoEgfsLoF/vcPHqOl52CKQlJAgFBYpKsbscl0lBBM5vcPrmTFhgTBy82pEn91VGthdA6++68z+PhFgmGihRHhdoiLEBeRWnh9PAfUgM1AHBDGPTSEBmW6CYvtNPAkn7h4Ev/6T/MYlYQcADFIC4al62Hhom6QGbCKFInS1CJsHUmNfizG0N5bz3d+uJhVG6EH6LBJ4oCgogJa6xS7WOCcKFk0GTQZIjIUyRhDYFyGQSADhIkdFFSURVCDRlFA8p1rN/DcqmF06lo6ohyWWix1COUssKFE7+hCiYoRt9x8Gzt2OjdqkqwnFRWI9EnKhxSSmpoaZk4fw/tOncuFF87ntPmHM3F8jsDDglpbxukSry8lFV4DTzxe4OGHH3Y4YEBcjFwJbxWXa2tr4/77VzjjuorrKkoGngQ++cmLOPWUU8iEGTK5nJNYgVMRTRw7ta6Muye95d0AYlAKrQ1hGHDKySfzpSvnEyhv/Rin81VryALXAbmjo6MyQ6Fcmnh6bNEiHntsKZGFAOGzzkT6k3IBLSWEAUyZXM+JJ87m4ovfx5mnH8vsGQcwrEYhhST0aUGxicvcGUkLIje61h1w629udRBJfjWqJPNiCNAe0x/loSVwx4MllUIpiLUpeVW8LRIQUV8HHz474Mwz53Py4fv7gGUBoRSvth3GM88+y//cvpYlz+Xpil0gMtG9LaUYjAE6DVx/61r+5qTh1A9vwoQ9GBunHbqSrNenXyzwxPMAihCFHxlhihNpqVFwxnHwiQ9OozHYDkVnRwUqizERSJDZwHvUYhAGoxweWGi6ne6TGUEcR4QqwMSakXXL+cgFk/jtA2N56qkWehMxlsY2nEqZB55+4XWeW7me49/zHjKmzT1Ym+S21SCFpK17ArfcuYyidXw8wnqx6K9XO0aSBbIK5h0Np592NH978kQahg1ztoQYS94cxwtLX+DOe1fwu3u2saZMzFosGfIVbvGigAUPLOPCs6dw5Jw5SNvprf5Ead29Zkh7Ar2jafa///19dLqePGRwZRMpkIhN/2PC+Cyf//zn+dAZtSilsHo7NtaIjJva9fX1nHH66UyfO4UbbrieX9+8hN6ykEkpMOhdrwaWLF3BC0tDjpk7F5Vx3bqq1eaXli3ztomhuiuka2xqCUP4yEfOpb6+Hst2kCJNCzGFBFQC0qpI4etYYo1IdHVjXO9Hbb2ZIRFCcelll/Lii9+nt5cBQRsNEEjBihUrmDt3LmG1G1AIrFQ8++yzLF5sSXKYw5wgimzZwnOMpC4LF150Bv/w6cOpq6mlPnjVYQD4tHohBHOPnsuUGWdx/Lyn+MxV97H99d70u2rAvNhCZ6fld7/7HXOOmIMVrtGL1cbV/ezZTi+c8SneQmS+X8R3V/snWb6J98pDkpp6tm1r5Y77VtHjjWQ3rwMfrXZBqUZixjbCT//XoRx3XB6lt/sAhePQRsQIIRiVFWA6ObRxJ9/9u4NpFn3ccMPLvGYyGDRGuFrwdK754OVdD25ixtzLaNIbscbQ543SSBqMtTyzvpcdgjSVMVEYIiwCSw54z5FTOPmIJnJivesiLFzBFMUIWY3dmyQg2BqvKvmQnvUwSjZGCkkmzpORcPYxjTw0F375J1zWc3oY14syr2IiZXl5Y5b2eH+EKqCUIhQhRhusltiC5ZcPv0BLAAXPyHW+7EEqidKaWgVf/WgDn/nMbELR4bIXUhQXd18yogsbWZpzOzjvpBFks2fw1a/eyfJ29+QKqjKAXLSCyIbc+2iRD7c2cNiYEIxBiD3b2zUQ/eVUr0RXVs5ViynzMAEtLVtd+WoCFNJvTgkyWD784Q9z+OE5tI5R2oCSjiOFQSWOl5QIK8jU1nDxJZewetW3WP+4D6xUcy7//uWXd/DM4sWMyrU4iFGfvp83EdpoXn311VIFY1XMxeIk4eGHH04ul3VMwNqS/l2evj8AJZ14030HIKUkhx56IDwySM9667SYVau3sGTJEkbn1iGFQBqFkAphJIV8nrVr15JPgjMWZGIfBQqhAmrRHHPMHC686DBnJ2V8W7oynLDEBkrjT8CcOXO49NLlfPVHq9wl6OprFlhjyffBptc2clizv5lDxEZJ+6PIv7SNIiwlVEEDIutsCzuc1a9sJ19IspqSLFvH8pJ1M20/OP+cqdTXdWD7+tKiKyvcpBS21sP8OLeoDR2I3IETClxy/mxue8IZrymQt61ckQ+sgAc+ewsKyEnoNaWcrerFW7RxavwmM2iY0px47HgQeYTRIEJS17UAhzAJpRysBI949zw+QbSRE47eD3ALJVH/rPebC+OCko++ZFn8uVvpi3rAOqxhYw21WEKpaDe+v5YXYkYbggB0bJBxTG0GPnTBIYyeqDC2nbgoHCi4LS0QoILRYS3NdXkuPONo/uvWVbRs80+v7B4LH6dq74Uly7ZwxpFNToiZpPJxz65HKad3bGmvWbOmxHzswDds3glTGd08hqirGxEEzhWD54hau0WSFHHZEtJiHEUce+wxTJzY7L6rjgxWURpPwHnYRLVjRuHLhCsP0jQcxo0bn3qxktw1O4DX6a1QEASMHz+OxuHZAaWTBUIZIhD0FXtLtrnVLu8MXOAWX4gIqScwjt21hgSMH++kQxTFaV8UrUtVoimyZVnMyVpLVCgwYfx4Tj75ZCplrf/Ln8toWP/quj/rXrzTVEqzxw6qAvSjfvsN9DuLq0cow6o1LjKnTUBrayHBgyv7vccoRZMJBYfNzFCX3UBAASsi0CMc/JDsxhqNlX04gIgMxjhgBa0toRQ0NhgOnjaClk2v05dIFZMI0LhsjG4ORoBVFoR1zasSlUtCUnglsN4z5jh0UyM01PpotRWAy1+xeEM1AfpOJUk1ikk1gyhz8QKB7mFknWRUQy2FzgKF9L47iZIBhImce7ZMkwuMkzpJJYAoO3Q5KWIsMQcdCGNGdpPJGozJE8hkTtT5SLx0N8T4krNkfLITrGXWzP0Jhe87g0B4iWv8fdbAzvYI4639dNHuMSksA4+jXJr+BSWKf3KpX7+k1kghiCOX6JhG2oX0gTX/EIKAEaNGlo26bFIlNd/JsaV0iO6pamKRUjFq1MhUMshqYN4qsuDw36oCFUomcQy72zdLDMT+/wwaLNNWISmiXUFkmZarqVyCFeP2TEMombpyx49rBCCKIgfXJARCBaWIu0dkSUsJyrCTrTGMGDnSdZkY5LqVBLPHLIrdp78erleKjet0Utc6TiBknmwFXG6dE2i+TsTgoHeiYpEojsnW1GEKBaQo+jwjx92TklliBTLjQYQMEQ6orqcnKhP/pay/5HGWTyCv9ZelxuIXZ5AudJ1WEDo0mI6dET1dIaY24zlpJy6k7UVSgkKSxvV9PYjXzcWuEBfFMLq7dtDZ2V3FfN2bPrwnRFdOwoQlxP4KtTBUzGFT8uIZIOotYiNNJqjzk90n1Htcr9J9G3gh5PPd1ORgZ1RiVI5chEx6xEpl+qquv7rSdM+lv6qNUq7nBmF1xlZcIQELec2atWvJ5XKYpNeI9RVzSc5Fud5sNNUidMvmLcRJ1Hm3GFr/gJLWCUJE2ed+8nR2QF9vb9nelarTW6LyPC0l6enupbOz+KYP6TRG4RFkKEmc5H4oCL3N9+r6PjJhBiGDsuyB2Hl9sKV7nNzvZDMOlHzjpo30JB1gK+6h+11sQJdjFxhb2ddmCNBfdqHYWrcRAAFCalx0Os9++9VihVcRVBFIsHVLS2fhok42dOyHDIchRS3YyG1RADpLbLMYUVM6X7EXTIFIzWTJiphVa1rd8ZPJUnXhrtLDZf3W4XxvIVCL61APIK318YTSg80BWaNpN/CHp15GywiHuK2oDAwGfvNnS7sClzyBFu1tDAtkwWYcpzUhO2jmlj8tB8qQ96tusZSKDDAiA/XAMAU5ATkFDUKTM7rsR2WJN1ZQjGOEgGVrYdHzXVhbILYF3+JLILQPgdnAPRuLk+K2Dxt1UVC1tPUZFv1pHbHGjZ8aL13x6dYxWWDGASMQ1FZsQ4mCVFAmnOaN6M0GHPuRSLnKAVOngn3JfawTd6kbRMKXli2PeH7J8xwwT1EsRmQC4Txd2tklVkGsNaF14BGEoXcWaO6//wE6uiM35IR7eUYofYlEXRZOf++xhHEnSknynm1ktEsDX7pmMxtf2+C6bwmPnuiLxyQSIQxPPPEkf/eB91BbV0uAcDBCWCf1qgEnbMWL+7v8nkrp3VHSJScGgmXLV1I0bgEPBMlgTMwBk2qZPWs2xloXD9J9Dt7Jj/XBp1+hq7OrzF50J46BbCDo7rY88MADnDp7JkpJbODVTUOlNDHaI9u4+JSUkmeefZYVK1YMLLD9fdfAzENmUV0KtqfLlCSOYqT+C9so/XCyYidyRR/Tpk9kRM0KOvu85i9E6h0KKaCBjjz85LqHOfSAkxgzdgxKbkWowOFyWU1ACEphrUZrg83WUYwi/vBYJ7+6ux1NBmf8JBzcYq1AK4sQ8NH58G/fOJHasNOPz9kSxtfKf/eXw7j22g3EgBSxU+OkJfLNRgMLL77UxpLVvRw552AaxBrfIzH0syBZKcl9cFO9lOrhFlWKmSyKGBljZC3aahY928aTS9xRUiD7Msoi0FguP38Ul156Cg1qi3OXG0ApXs9HBIHik1fs5LE/ddGVjCcJ65iQglFYk2fBwpc4fd4kjjnmGBrDzRitEfQgg0RKWjdeIbCyCWMsy7eM5ye/XsmO1DOdp5yLOuezYnx9niOm1QM7/TeVNttQoL96HCXRv8ePG8e06dMSc7MscGETExVj4bklq/n+Nf/F9u07kEohU/C7ksEtpCIIHPzn0qVL+eEPf8iOdkhVHofilh4fDTaGqVMnks26xamURCmFUorAb9OnH0TOOx102aCML/W1QEdHJ7/61d0uy0AbV4JbhUu2+zfHIFWA1q4C89c338yO7S5hcSCVXghBRoVM2X9/MplMmb1mQWvq62tRKmD2rNn+B/6H5Q5E4xApW3cWuOaau3jhhReIoxhjrIeMKtmDSTMjYyxdXV1ce+21PPVUniDoV1TtT6PRGKYfBI1NTW/uXuxh9JddKMJURV8NQlqwBbIZ+Oj5B9EsIRvUgC56zhp7n5aggKJAwB2PwEe/dA93L4pY33sIPcEo2u1wdgSNbJcNtOqZrNm5Hz/6TZ7Lv76Yxa9ouiQ4zT72uGGV+UWjmuC8s+YQ8rrrF0KnVy0cRrA2cPzsemZNcvuH4NmmwHibx1lcknsfgLvu20nMeCIzjrhQIMrncblugZMkogg257bERrExAp2m4xfiHFbU02kO4le/fYVHntxKQYK2GaxPjK8gZThoZg1HzJmAlK2gNIgIMkUICmQjS4OQXHjWVKZNIpVIAj8EIiRFIgI0iqfWwievvJsf3rGF5R0zyYuJ9MZjyMtGunQdbWIy26Kx3LW4ho/+8+/51b0t9Iha8nFyYOONGrc1ZQ1ZivzNOVMYXbO1dN1DkP7qsk8IgTEWKSUnnXQS99xzD/ctKSJ9op8Dj0hupssTMwZefHEj/3jF9Rx55E2877hRTJ06FR0q2tvbeXllgScfX8mzK8pU8LJAZmoG+LhZIOCCC97P6NHNLmdsgHpxKQS5mhrOPW82i77/kjdOlU/qdB46iUBIidGGH/zfn7B/3XGcdNJ7CXLewbCL3D8bx64OxjoJEIQh2mgeffRRrr32wbRG31G5wZPEM2D+ySfT1DTcoUqaSr5nrEUJwfjxEzj7rANZ8p9rUukkKYvPWLxrXbN9R57vfve3LFx4L+fMbWTKlCmMGFFLPp9n7eY8Tzz+Ioueg3wesqqBgi4M6lTsK8ARh87gpJOOqwjeDRUSiFIcxdl3iZG3i4ux/f4Y5H1CiZGerEeRugWttUysX8/H3j+Vx5avJoqgYOr8QnEF3TkiBNDnPUUtvYZ7H4v402NbqctupRDkKBaLBNahmPRWnV0GxtVL+Yi88JHyOVPgg6ePwag++gp5AitQSiKMn+CBsyVGZFs4872T+X+/WMPOtj6KsXYBfh88Nbh+JUVg20646pon6Sweyfmn1RLHmqzvuKV9FrVKcr9MEkLvxaoAyGIjS69u4rHHHuPq7z/Hlh0l+CW3wkNKi8W9HjpGc8mJBxCYNmwxT2yTOI0bfxhEoGOGidc4/+QDufG+9WzdEqMTT7z1KOIUkQIiQrCagrE8sVTz4os7iPQO6oIQFQR05ov+KjyChukiCcYk0X+fAuueXxY+cNF0hjcCdGMTRNA00rOnLJ5BIvOUTIW/uo1ijI+qK2dTnHbaabzn+KOJTP+AVkR//4jwmZxdBdjZkyeKXI+SAiCr6oBMEvfDphUlAvjIh49n0qRJrolPoFzVHaTxgSTyrHXMmDFjOe+c8yiUVyf7m1debl4EXtkM//tbP+Z//uc68vndwBBL7LIooq+vjxtuuIGrrnqQTVvbyYVVSkrQv8jprLMOYeLESemYpHD9V1JJERXBWrTWTJ8+nY999GOEFYcp84K5gyCDDAn+cFG78uq+OKI77xd9MiqPiyyEK5UPZUWyMQAnntjE2WefTRzFLlcveQBDrF4eQH3ms3/zzVFmlXu3q/GnYY7qHQfjDOURWv9XgiAhLCrXjQx7mHXggby2/Bm2thbJiSJFBNkgSyQ0kSSNjEvhLOg+8LJGohHOLYrvFQ++YULJ71qLQWIZFcBHP3Qwn/3YHJrqigQ68uqTRggLsui2hONbQxAIDpjcwCtLn2FDa9niKGktRPgIN7CzCI89V2ThYztQDRPoFvuTqWskVmPQKLRswNhRxHY4G/PTWb0ly0337+Tqnz3CDfdtZUu3pSihx4KwCoNEESNNhBDauToCy7SDRnLT1fOpldsQgfDzz/Wfl0iUEF4KKYIwRsmY2ROHITueYdVyQw5nDWYRxD5KbzFOrfSkhQMId5ajQ7BMtTudRNdJ11tiRWWAQw+C6759ISMzbeRqjAsWl88TgeN6e8SiGXgMbWoGTz/9FH1iv3fAP1fmmcnn8wRKMXm/yfzzVz/O577+W9ZvaANAG+2ThFzswrl2k8BxZQQ4NQXS4qYknOhcVconMZ5y6jg+ffmnUcHKFJl9ULIW6aXeuHFj+dQnT+bxrzxEaHEgeLbsFDhpmKRuRAZWvLKBr31tA2PHwZxD4OCZ0xhZF1NXV0ecF7Rt38ETqztYtbqHV7d4RxWlY4oBUtOSEhcVwuWXXw5sKd0jKfrzq3QSWpCCuvpaPv+5L/Ba+4Ms/MNSLE5CZGQ673dNZfslwiFxdyskEYZJE+Cf//krNDS0k8vVgO0jLexJxlPxumfSX7E/yiBZsn6S5qTD/h0WrmbubMm//9sp/ODfb+OhZRZpYnwTXWL/e6czJn9BmjuVLhrj9foYKSBn0wx5PvCBSVz5xeMZNmw5dRkwcWfpOLZq0QiXbhHZCCklWbGZU06awic/fCA33bQGLaFgKh9zghgpwAUujePC7Vth5VbgoTVU18qm09iUTehkSGWOgKRqp86P+KuX5rj0hG5nS1kLMldlY5rS8QCsBC0Jgp001kdc/ZUTGFe3lH9fAMXYItPTCh9MNanNUT2Vy0OGVrpbl/HB/xEYZhws+doVR3LMEd0O3d7kXbDWDOQx6f/RnkTlaTbq03/3oW+O0qve5OLeXdVrsBH4TbjIulSuoGv0hNkcdtj+bNsZsWF9K0W7K8fRwONIFK8sUF8b8vd/dyyXX345Ixp7kFIS9XaivAeLioVXdlwp0/WjjfPUTT/0NLZvX8qLK1y76qpcxJL3pzoCXy4A/Za0SQzCoLIjXIUqUhb7wak05513NF/67JnkcllC7cEarPIcuyoVwEjSrsNJzT6CMDuCo448ikLdTNa/upKenrhioTjnfCUlRxdA4PISMH6FBf7Q554yiSuu+DJHHFLvPJsi9jhmeOlWve0pNPBYdohpPP300/TJSahPf/ZDu2+jDHrgtyZCrYgQGFynrAhR3MnoEYJT5k9j6oSdtL7aRrYI3THUyVJHqwyQFY6LK3xTHmkJvAQJgXoFHzwBvvlPp3PhWRNpzGwlo/NkTIGQwKfke4vDJr4av0n3ubQKiUKZPKEw1AQR7zliMt0tr9OypouOJI/LT5hE4RvobiVbkhHvkFiFXyTVeo+zLQQxCkutn++XnQNXfv4CJjXGhLZImuWbeK+q7UcBCIMhACER/npV0E0u28d7ZtZzypxaejvX09NqsTGEWAhCisak9pilemq7e14rXF7ZYdPgC5+ew5WfOYpJY3sIVB9K9+By14Qbm0zGWLbtMarXIAtFTmfx4sX0iUnvfA6BVD64Ya3rlyicIX/+eedxzLGTeOihR7j1/mWsfWUN+Z7A2Q1xIY2MV/PfUaOGMe/YCcw/6WQuODZHLpcD4cCibewbFwVhSVV5I2PSOnUudRFKQX19PV++8stkcz/i2t9t9h2+3PehTymR/jUhUfZaebY3nijOhnDDuPj8E7nyH4+irq4ezGavcpXtPNh1eCyBdB9rSZBQMpmQgw46iKuuOplnn32Gm+9ew9KlL7JxR0RWBRR9aYIUEAQKYzUe6J5sNmTWjGbOPvMszj+tiaamJurkBof+aY0DADFvMK4hQOV2rFjy0t12RrTAW4q7u8Kr+eZbi7a6ClpJHLlXKXqdyzTIYKMISwZjLZ1dio0bN7Jq/TZWrFjBixsKFCMIiy4PcsxwmDixmSMOmczMmQfTOFIRhiG5TMadRPdUnjiQ3necXO9gHbg8CruoAyBvIcxkkFrT09PLf9y+nJt/s5R1LZAJoCdOZEZccZcMrgelpZTJ67SxTNX5KqlBwPAmuPKTk7ngggsYUdPpbCcpiKKIOpGoVdXdd8soSd+xFnRZao1UaapL0cYEStHVAx0dO3n5lfW8/PIKVqzM09Pr64MiaBwO48bVc9DB45k6dSqzJo8nm80SyKLLCTO9zm1s8cxDlu7xgIASewoay8DG0ivhOVz7w2vZIY97hxsJ+YcWZFy2qtUeyQSI4whkQJjJ0NTUyPDGRqbPnsuZZ51Fh8249PI4RxAGhB78WZl2wiBAi05XGlwouMgqVHK2YrGErr4rEiJ9yCbWWJ9bVt/YyEcu/QgzD5nJdTe9xB8eXUbasMHbJLvHdgbf67jjRnPZZR/hzGNzxF4aFgr/n703D7LjuO88P5lZVe/1hW6gcYO4CYIAAd6kRIqkRFmieGg0Httae32M5HPsnY3ZiJ3Z8cY6JjbCO+HZiZlde22HLY3H69vj9SnJkq0QRUoiJVLiIRLgAYLEfV/dAPp871Vl5v6RmfXeq+7XdwPdYP8igNevXlZVVlb+8pe/6/urQinxeL7TXKAaJ6upl3cwRmOkpLOzg66uDtbctJmPPPphMr3KRyE765/2ZSSkHERIQaep+vISvpS5dAuQrqSoKJr6GC8CirCWvHJB4x7hWpDAO7c8fDuJM/2mGVHkIn9tVgUuIHBWLAR0hv6FNJHwPrwCEBXcN07Bdtsod1z6g81WuXyHkh9PaAiMok0CWYoVGWhYxwGe+kAXD+++h++8UOHP/uYQ+/fDpREoxXDFAUWSYXxdRnfdmrfTKVFDW5ffkkSgMuhog3vuhCcev4efeupuYBB0PwiwOqMUC4cfBtgcNyzM+BbrXo6jFSqchWhm59MqSS+RrAsDDnIuYcjPi2qu7+Tna3DR4P65NLmuJ5M2z/4NmZV2oUiPqVMAhww+ouvYk8LfC3U/O07obgj7EVlGV1cnH//Yx7jzgz/H66+/zj88e4GXX36F7OIwWebqwwdEVIEgzsEXXIhPexusXtXJg3fezKM/8Cj33iFob28Hzo/fn0b/yBLNG9lQIZnrzSiBpssfk82PlnhRjbDaUNy6tFbRClsIX/c+R/6uVVHAutJ7rHugi49+sI3L/Z2cOlPl5KlTHDx4nHPnhqh6iFUpNELC+i2dbNu2nb07e1ne08PKvO/XIQAAIABJREFUrhJR3IeRCrjcoEMV+pHzSZAEBcbJ67mb5vNyKqDB2OI0KLwQX/hozADlOe/F8V6cEcIT0cJglMVI1jqLl3QRxNYYlzQlJaVI0d3dQ0/vavbs3csTj5dc7Jh1QZdKlNHGkEkHql0WfQghiEylOco2hCIs0XWnhcEoLRbOGUc6BHQTUVxRiytri8iBMRKk6Lmv/261AareUehzjFNFWykCLrrfhTc1GlGf+KrhOqGWYQYijomEqacEj9f/Jk/meM8RJEpU+AynFb3kBR0tH/cGFG/I0VOMryqsWulENyBNL8w+p2K7me6Viy7s8L34OcPLj+G0Vhea5AZjfq4faM6z8H8HV7u0TgkPSJXGjm8mzY0PwkPEmrrPY8L+iRY/T/bcxS2UbT7a4rQQy5Z/LsIck/GpxXPkKD+ToNmPWWHmmsJ1Wzn6Z3zfFnvvYtXfcJsxK+n07mZ9LrnI9/7OnGpDYSThg6LyGJdwonbMoa66r1ZiDci8CkBoHJBTCjqW9IUYaQJJa7hJYMqCf2WMTlK4nSctmyWS8iBpyvoUglwyhfEuSsAbR1d5/8jOa0l5TgvjJ7uPQ9ZasswQRdJt0YwZu4As0TWlgBQJU2SU4EEOwcYq7IFtYUWZdk9arTgF6860aXzJ0bIbxbk85r6ta0sLIRC5x72gGwWTdw7aPc4FrAVdRuAreTWl8xbGtahbtLQ6lQrfW7zmSZAqVQ5jW/T4T3V9nWRezHTHkOtM7vr1aVR47368rHASN3cnyeBPKs6zVlbCJYkyPzTTvXtT4cobx6u9WKmpPoq1xWIGNOgIzfb4ujFqjl7ijaILjqFWIqox/GE6580XzU6HmO3rm+nT5aqtn592jFXTf5pQWrnZqjdVW5RtMHBNIlEme7FLND61GrPJxnJprBcqTcIoHW4bUS5BpjFZ1VlwhEBnmcuEa3SIFWsWLtECp4lLYUxG82YNne59i9a2PGaxIDFFGZulIKqIScqAFGliRvEYuGa0gkwSV7kWi7CgYl9OLih8edDhRKPXkBexRNef3ofrmkgSUBZqVTd3RWs1Iq+PwmT1UcwwSMlVeQ+1ao2rajPCZ7FjQAvZVFRmMsCGxQb1v0QLnWTD/5B5CZLlkQPOKhg3FKFSKqKrcpAoiugU+7HWukIEk1AU6vE1eebz+e48xalO+ZM//RPOV9e4vA9lyDLtIYOcdQCaGaEV04gJOHiJlmh65BnFTzvtGSVtwShJElOpVFgjT/HTP/1Z2ssBtGT8SIY8zF5MVmdeSpBwmY2cy9bQV11Le2c7nfoEWAUyc0wmJMaaHF0l3EqOwxRLMmXhUKuSd4uFZL6Vdx/K61wqj2xwP8Q+k3JEbGXEDKMjQV/5ZtYErIgp0ISMYrIMmSRkqcEYQ6mU8NnPfJYedYZIRqQyq0sTa5s+AzW+jMX+Ym40WuyxWnKy0n5e4kTeYTrAJn7v937P17aZfC5OGddLighSQxwlSBnRUTvKmraLbEyfxtRqSExD4NgMaBHVGV+iBUiTMYp0WM/WRyock4/Rlh1G22a9ZSo08Z2EwGrjkDUAqRQjw8OAzStn0fhviZZoAZOUkiQZi+E8FYpc3XBaKA8CooSMhNRGCJFikwQrU2TJglWeWTxkz7TzRmbU5yVaIk8TSwXrMzOFlx4VKxjJAFHCimRaa/vksV7WIHzKqw74sVnqpcgULVhSTDmKdomWaD5JG41CTsn62lQfZeKm0gGZUUWIGlLWELKGNRZtjUM7CdGx4+kpeaEa2yI6Y8lUvKjpegV75TSxRBF5JLY3FwMS4yqs2SvTutPkEiVNUSXp629I550P+kneo0kU+qXc7yVaANRo6ZquxS+UooImeNFGTrRI62A5lYgRViGtQRoDyleokr4Keh7fHzLyGlJ6LeRLSO5vMc3tluja0lS3zvN2/1me77ufShdFHBmH6CnwyKD5PPTVnm0ZbcrEooQwndO6VTRxurwFv80yxnhwdNPcPjBBg/XL+gyZMbbqMTnwxe8T0JKOM/d0vaIa54oa1uHGz7EN3EemXfl268t6TLY+G2sw2mKldvkoQOutkQiufOML+FBvL32Nxsw5dLRyXJp5RinpAjqgwEmT4q2mwgSNwZ5L27i5oUWI3thEXgeJvXUrhK7EJmQ2+qpgvrmWmpSUcl7JYGJqDMmacoajtbb1fG7wyltrMaJhS9Wov8zV/F7aqs0N3agLTovnMjPZlcwEKXKMAmQdWrmOurDW8qk/2EukJMIMI6SkShmdaUxDZVUhREPaypLV63rSXIQUTRSyNN+/SxxoeqR9cG65hIpi/vyn9gPQpkfylgCx0MTCYIinnqUrpgEu0dTxVji8QKSCdUxgjcFgEVLmuyZh65HGM6WleLElCmStcT6O2FVPG6zWiMwkJmMhpjwHGyPgp7H1onnrlB8QhDoXkR5GCMEf/8zbCClo9yWyDK5kthUBtaSFkr9E15bmwkBSfHetDDjz8bt0kSEZEmMsn/2D3ZBp2vRAaACA9kAdJSwJllRAJplWeZZojE+k6PMIvwuox3jhLV3+d29WcNzq2maZdsp/Y91zGkRpk2d0iVGuC01WGXkqNAaNVly73/1clUKhlHSVpHF1bESk6rpzQ36JK+hU16f9hcb9DOASllnCFWkcU0QaEIJh2jFW014LdUg8N+X5YKEuR9Uz2cwC1JZojmgutrGTMdt8/u7nlaQGSAbiDozWCKtwaJiugQpWYqOwRs5INZ6cUQoSYaJ030y3BoqbF1rSV96/FLb++famIS9KynHDpsw0t/jW1KVOS0YJYmoiUga3z1Vui6Vz3KTQoeCJ9/6WYDUWyv86y3yUpR3b+5us8rGGEW6u1bCk3pFqKYoOi0OrldbVXJ4Ozcw+GxiooAw2MdbSJF6iBUbTlSiNFOXKeV5a2f3QrN/XQwGalKDGkC0BifZKkBJYYxEBNT2HhHWZZtXcCjE64443X3iJrg9d71gxP/FExX2aEhiJLcawNdiPLJAKqGImNbbWdf3JvC4z5UAhEDdQRdglen+Sw3r0DsfphhuPl/CiZUGvttJzu6+j4VUh65knjwGbtS5+ozJjK1T1cDwqfH+fky37UKkarmxZ4feQFiWdaVham1vCpkpjlfmpWJJatGlioiDnlqiZJnKoNVXZmub1Gv1fEwW6Ljl3p0xC1NFaWli9XB6KM8CJwtFwlXprZR0aSxb4JDCMByCrwy9VC+fOUiIUjGtjjhf72mqOTPX8nAI6uhznaP2pRB5O4czmRiikUpiaRSrlrJtYRFPNRcuYeiy+SCoi6HRTrWhVrK/CuIwypkRl0f9WpIVilQ+BIbkKLTHjpvg2j1NkIZqmMI6Cgu7uVB+ZespIvSh9MFvXmzWcV7cDjPV4zvciNtn15+n3YsGMceeXsfnMs+CLn4oWOGh23Ik8th+FSIqmNoXrjdem1WVbHpjm79eSrP8vn3+FSJN6o/rcteHviT3zxhgXcSznupBQDth9o++d3ZIaVt7gP1L+sbVq8AgLsMJZ+6ywpMYSS5cPkYkIiyUOxVEJkQpBt5OF7yG8NIyvcO9UtGCIwntoXZOzmNlapIX6Psf3l8wHzckdLIwfYLeQVp4FQJkxxHGMzsaJxivqF9OhYqze+5jmK7p8/kvT+VV1fmiyOvFTXVFDg2KdjclW0lAl133T/jRlwo0cloD2SIXK1ACLkhZ0jcgLCG0sSjrPMgG7wDaulIGxwuuq1b8LaNJpmibK1CBH67pUY4weY5WXRU5GGIwwKGvdu53GmjJ7ibKUyz5liqIIssxtiaLY151XqDh2XmOhxkRuL9EMaI6kSl4fRcgWNRxpUHTy1c39syGsvkHvsd40mSuo9YvMacfrNJnVp2h/ciuuDmUCipJlUivX+JT6dnGQKOF0Ee6qsMKS6Ir/3YmQU+XbSLOMi22PYozm7uwrGGko6z6fr5P6i0iaRXKjdayRvJ/Kar/1KEiIVgJijC4ZrJX+Z5+DPkawLjRB44fITdXx5zOANXW77UTt8vZ5mP1kZR9aX8EHTc7o7MVJ4/g4hBCu3EVQ7hsWi/EvIRBxgjaGz33ucxyuvES5rY1/eV8fd911V1NRpnETliZ5s+HcqQS0vl9ppkJ6+qnAxVVINhiyrxkV69sXd5D+9xBrFqxSfkV/8G//CWfPnWUw2QYmg6wCWYooRfQu7+XTN7/GAx94gCf1n5NlKZG03jcU6pM7SNnISrdKWQFR4rCfwv2tJaLNqxrO/6GNJbKWk/JDHKq9xPPtPwlC8pPxF+iXa1lvBgBB1VvJysad51Qni7CaJrAO47+H6s1Sg7UI2txD53VCXL9F0MFsLb+uNhaL2/op1YNA8pvpL/JXf/3XVPo0t99+B3/48N865vPo8PX69ouXxBQWnkaaJrjEdLvDws4ZMRloA5GCJAZd49L5c3zn3Hc4c+YMH3+i5gfUAmacraTDBIAIdArIen344otonNwStM5Aa1C0jovLfS0u8jVnxHD7PJDV1hmo0UM/BU9/yEiNlEIbw9Ejh/iL7/4F1WoN6Y0Q71dy9VGYvD5K80kLaas1Rc903t/mdpmETMCy9G3uvOsu/uiuP2B4ZJj/+dXHeO/Qe+xXP87+0/DZU3/Djh076K6cRUmB9FsahWzw9lug6v0lCho87UZUsViklxCRHQIj0cKgpQUSQBGZBKEVEpf5Gck2jDEuskEIJMOO/2zZ3U+712ZUhhXW9QdAK0CRyrAVdIOQe6FzCet1Dy2IjeFM+176+vv5X1/6BIcPHeaSaQMhWCtOkIoE7Xk+wkUI5ACHi8XWUFgwZjKP62UfoKXD1+bh9/Wc+fqxsRJsvOtdHyp6zj2zByXNGqzVJKUSMop5/PHHOfI7R/JVeXh4CK0zhHR52bkOYIKOJlrczXt2G3O2Q2iF1hhjUNJLH2NI08wZQ3winFWN2ATBlGnBat93t6XKgvnAOuRD5UubW6xLcxAOjd0WQyqC1PFRAtVajae/9jUOX9wOQFIuU6tWCYpsODXPPR9/eK8fNcxP99WOMylDExc01DTvJ7huuNac+FGun+I4iR/FFprhxjRTgkwKOmwJmUmsVEghGalYMh2RRBVqaY0t3avoqMH/dfxH+co/fJl32x4Frfn3P7Gdrz/9DGfOXeQjH3mUf7vnu1hr+dWD/5RD7x3ixUvdUK3SIWosX9HLExsO8MADD/B4+jnipIQybSjbkfttYjmMYpB/feaX+fozX+dCuhIpJZ+/5XM89NCH6Iu2cfnKZf79Wx/inQMH6Kt0A5YHtmTcuutWfmXzFxBS8IZ8jN/6rd/kueQprIWf++haDh8+wqHTg2y/eTv/7ZG/AwQ17RgtDvgLpkaWjvIzq/6IW3bs4NcOP87pU+fIIurxe43juWB2FteOpsQoi73WX6CiFDDe0ZbWUoYGB/nmq98EII4jdu3exZo1hxBCoE2GlMrpF0rxwnde4PSZ0xgrUUqQZRnf/e6L/OPLifOVxLtACqrVGufOneWlMy9z8eJFnviEoDo6iuqQmCxzkXlRTBQ5afWdb3+baqWKFppNmzfy8MMPAXB14Cpf+MIX2Tfc6fqvFFjDkaNHOHb8GE/e/xq7du1GdAnSVJNJjZCSw4ePcPjwYUZsJ1JIsjQjin1xHSm8oLLEUcRP/Pc/TpVOdJbBYUiSEpjqNX5Ds6c5XbQb/Shzd9VrSa3yNDxZ1fy10DoT7l9/vINvvVtj67s/6JZWVYOu+/il3We4+55N9KiLZFlGZgxGALYDULz97mWkXM128wybs1X82rFP8uzbbYywkZiEv7z7t7ltzx6+fWkbzzzzLH858M/Zd7bMrpe+xiOPPExFjpKVai44zFZ5RX6SZ797lcODK8As40dLn+OH7v0hIhzWwP/w7Xs4OrSCLdk73LLzFj7/4Wc5d+4sH//GpxkcHOR3vr+Kn73rUyQqpiIVkepCa8P+o+9irORW+w221c4RWQOVCnHcjrAC1DBCWDZk77iBiTqxkWVUbGHYGkqkQEpdhDgrnMjRc27UfKCxtEgZZY7IGG950iAVpM4S9eKLL9LX388nP5ahjUc+NxYiAcawdes2PvjAB/nQyr0MDA7wlZeOkqYZSil27tzJHXfcSSkpsWnjZm677TZ42Q3z0aNH+dCHPoSKpdMnsgyiiOHhYfbv3w/moyAlj338MVauXAnmNMePn+DEiZOUSiWWdXTz5BNPEdX2s2nTRrZs2sTBgwcZHR3lxImTbL15K0IKtDZYa+ju6ebRRz/CYxs+yNWrAyC/CsI26VpCKvfsWYo2WS5lhRTTAoi70SlqCjduDLMvhNw36uf1cOWC1l4MHZ+3LVtQYr1HOlh5go8nVFrKc/oD6ksGFjrTEh21BGOPcsedd/DFD/wxCMF/PfoBvvGNb/B06Ud4/Rhs/9oBPvH446QiwkQJMAxa8zv3f5320ndoyyoYlfG/Df0El8UWunmXm1avZXnUB5lhdbSaLe0XQF+BSsrxEcFotAZSTXWkiuhuw2YZf/B6D0Y8Soe6yJ133slja7+BHT1BX2kLJwZPk7KMtJbxenYr/+r3XuZfDT/oFAzVD/RwgQ2crPZykxlhNBvERAak4H/f8QL3rK2yovoGtIUtpCTUC4EEa5XzC0mFsKNgDdKWkKZEZtvJbDvGm56tKXnfjR1jSbquZA0Yt5WUWJczbyyI4G8TXjEXPmfFAc5PFmbfOL/fP7KzBSnl4quM1uzcuZNt27aBisBY+vr788GsVv1+vVRieU8PceycbtLj3qap2yaVkpKTUlKS6ZTK6KibVHHsV3vH5HEcYVPnuFzW3Y3WmpHREU6cOIHWmQM7F4JM67pjUUhXPzPyry1L81g7qZS3zvlJYi1tbWXXzn+XspCzLWSz2VQKpI8OEL66mvR/C29RW0A+gnmnYD20dhp+lIVJwR/gv4qCJAnYs/64su3usK0iqNEhMlR1GJMmyFIbWkEmjZuYxmBlTGYlia7RRgaVErS3UWEYFSsi44ZvffsIQ/IyI3YD75zQXN64hShSZB17GLRDEK+ELGV79zC9nOJSuhFhE7flAT67az/79u3jH8ynOHkl4d99ax1PPvkU99m/Yl3nKHFcJa1W2V0+zs///C/w5Oh/BqDCGowxlAxE8dO8zVN0EnmRLxjKhqjYUYx0/ZSiGIXsyVvBUCnSGiKGicQwhlEMFYQNEQmJQzlRLsp5DIb0DUaNgPTvW4lircUY6/wZAGnKG2+8wcGD7zqJECnK5TJCCOI4QqkISgnBl5SlmVupjWXz5s1oX83p+PHjHDlyBBXFHDt2jP379kNaA6m4dedOl6gV+YnqGSWOY+66+27nV0lT3nzzLQ4ceJssy9i8aTPt7e0gYGhoiL//8t9z5sxZh94+OMirr77Cc88/78praKdPBSkTxwnWWqSKxlqDTPDVtN4m5wWkbsAI8alacidFilwUlBcsKh53e9MUV9Mv5ioAIyamXCph5CgyTulTW3n2wFW2vPUwxhhqSRuIH+Pm7Dl6e3v52Q+1szx7hRHxFCNYFzOVaRJpEEJQQxLHEf9m499z363P8R/eeRRZU3zyxX+Gfi5D2CGseYIHxN+ydctWfubuQRTP8U29CatTrxtIbhl9gVt37eKlM30cfOcdXlv2z3jru2U+uraH9vY2/tMH3+HL//BlnpG/wOVjkkdP/jAYTacZRutN/Mq2v2YwXo2hgpQpIkqxtoYWnWSiE9KKC5PJq+RWfbSt8hPBI5dkzvOvrCASCiVd5IAxEUooXKybBmsaQnu4obdjYYGRdU/7RP/qLviwCo3XLqj9k1/v+vxTkWJ0dJQkSbDW+URQEVJK966NoWPVSu67734e/8QnWN6zHKkkUkpUFIHWyDhGe6+3tZZqNSUpl3nk4Ud46pNPsWH9epRvH0URa9ev49777uXJJ59CSEWlUkUIQSlJ3FbRGJRSRCrigQ98gK6uZSSlMrVKhaef/hog2LFjBz/4qR9k85YtlMtlD2EraWsvs23bdrZu3Qo4/UK6WBeEcPkv1oJVEVab5vFANL1f68tyWGOJ4xijDVIIkjiptwkWwMY50HSd6/vPWNMwR1vMY8skbRrmc0Mg96KWKHl+hXISRBQyFGM77Nu5WKskHSSJJF/56BeJoxhl38AaiwrBUNa6kA4dIeW3iHUFNPzqlr/gV386BfMliBSZ1RitSUQZjGFVth+E4f/cdILa2pTgnspE5hjKCKL0dTSQxG08Uv1jPvCZMqXkSyAEmYjBvMe/LP02v/hpjS0dc09R2YgU+2HkTXavtjz12OvoTKNKJUhTKsblnyRGIKrfZ4N+kz/7hV60+BZGa0q1PlR2hSzrIoraQfS759Sd+TiJMFwWp/IpyT9+7CtuPBklid9CSbCZz5GRCoFy7UWryIjrR/O1TZy2jiK99WNRSlslXaGZchtSutVXKm/5ybwvRSmUEs7DLiTBtIgxoBSmVqvrNca4a2qbJ65Fkcr/KemsRspXIhNCUKlWII7q1jFACkGknL6iIkWWOcaXSeLisZw4JEszVOyyJK0xXneSiKTkpCP1+LIoiVFxAv45J3th1lqInbUvSWKUlEQqwhiDDTn+1hZPmoOXsjhoWhJloSUD5djGIuRJlAsNQh5G4zGBMKMobfw+XTgRK6W3djm/IrrmYw+FOx4poIJM3LEol+GGUM9c2Jqvt+RuGIcV1+eLWCLKcQRZFSTYyAA1D7elc/NdSSivkAuIIr9d0Kg4IkRxi0ihgs5hLQiJsoZICqyouUU+agcLUvnxMR4fTAbrV/j0W8+s5qB5zIizQOfj5hcL2Rzx4HREW69i4Gm6KIxzQlNg2tnM3ylLlBvdFDgt8lu0hSZW53UhW2DPei2oqT5KvTC9pdF6ZJv+DuXnCqXpxoSx19sz9ue5p1An3esgiCF/PKDou5gkrVw7FfwFJiXfnFvA+vNtkEw+lin4HfLvpsXv46On13PSA9xKkCwh5H4SjPTigVy5DJO2OUra+ucUenwky7EXbjH56y9y/OOF02Qx1O5a81RDP/PweTt2Mod5bBvnsT+rcMF6ez/P37d+lCV6/9JMFP4p6Sjzrpu0WKkmbV880Xb5z+YlTvm6LTl2r3X+lSAIjNdxlAmIji4cReQ550HSBMnlK4h5CVNfb0J72/hRp3oG8ZQorMxFTBnjL6ys74ct3D/v9zxZoxqG3WqNSGKsMXn4l9EaFamFZAybNS1JlCWaMVntqu/aAKAXQoUWAZNMxWDnclHc3wvLj9JKsrQCegkrZm7NGW4+P3xqp1NY6SSJ8LpIOF15q1XQURpSu/xnsPakzce95MolT1jZg+6SQw8F61JoFyTcxLMpSKQ6Dpn7Q4UD4b7htkGSFlWmgmgbg2c2ww1DFiuMMfSXyxhrMNSQQrC2KhCqwbi2gGgq6Ct1Sa4xQiNsE5p9c9h0Dg+W/+6/2nHQwnPl3TZ9peEa06KCOTeP7R/TrvDGJxuAVr+3vI5t9qWMCb9ucZ0cNDtMaFN/jqb7TG1gjLXIKMJmebXYQj8npsxql/9SuP3Y7632ii2uq7XLnNSa5597jr7+czzy4UdY173GXc1eK05pcKE3KumF8W09j5v3xLYBp80BEi70DMccdsf/bcLKXqgfIoO1q8Mf8PkW+cR1/wlbyX0O7ljkpUKIV2heijMsSkW83NXFV7/6VX7XbGFZ9zK+d1sHUkq6PAq9CP4Mv4T+47IdfOtb3+LLw0Ns27KVL93U6Lw0vjSthzmC+nN5SWRliDRIQIC0I/5ZAnyQk2yffOU8w0PD9EWu/UXZDpFiYzZMrVqlh4ze3l7++rY1CGXBRztbD5SReoaWwo2X9EquyKdFyGQMOGnNOlpiDQJQVhKLmCG7jGF6ECLEgDhJn/qq0PEYATrbcusToe/bht9z6EtAYkSKnQB7OK9SYA0W521a2IwSKOSrz4ps8wqTm7dbr5pSSXSWkaWZyyOxhoErVzlxoo/NmzePc4a71oWLFzlz5gx0L3Oe/1Zm2jFdrJslQydFwAqt1UA1A89t3bqVymiF3thgjeHS2T6klNy8aQ3GWsqVITra2xGqwVHYiEZZ7H2IOLDNZudWJJVyUdQxPPjgg9we+zSGbMBFLdxAtLAZJUdG1FiTIQie9wJCZI5cWGn+HiaoHKkftxaED+7DxUoJ6+qUGD+BlN/rZ1oipMJEndioC6lHiZTiby4JHt27lY9cOequq7QLW8fd94uXznGqtwdhIqQqkVmLUgqhpd+GuRU29d2LfSUy65EoZdA9VIbNUoSIcQDefuZ6DN1f772MMQZtOsAIfviiQkrJn/WCiBMMKzz4t4sgsEq71N+sAkIQ28aVFggV0YqSxK/IWjkdMEQEZMYglWSdSUBnWD3kmDzXvdxnbLz/yL8PUfQ7LTgKEj0GG1GNF7wfxUsBExyec0+ZMegW0sr4iWSMoVZzk3j9hg1cOH+Rixcv1vvoScQRg0ODHDt+jN5VK9Fau5x7LLUsJa9rGbZ/BRrzjCZDRLFrKxsNAd5bHEUksYt+TpLEYSEb40LqranXVc9S0JpMa6zRrurXGP3I+m2hS1rD93uycdfGOGlXy8jS1PsoBDO2ECwgatRpJkCz938Ei1OD/mmbGjBmTFq5OVr3qMV1bISIIr7TtZ6v/uNX+WJqeOihhyi/+j36+/r40TXLuO/e+/hWzzpe+/6rvHjpCgMDg4yqhK6uLn5282q2btnKTbV+XnjhBf50cBlPPvkk/3rkDbTWvN61nZdfeZk/vDjE3r17+S8rBNoYXujq4rvf/R77z5/ik598kptQ2Mzy4Mgwj920kd85eo7zF0b5kY3LyHRKZEbBCl7rWsmLb77HbQMD/MD99/Nrp86T6hpKWxTwna6NnDhxnD/v7+Ny/2Uujhja2tr5TI/gnnvu4b7hiwgEv9G+mX3793HwwiUA2tGsXbuWgY52TpwDO8qNAAAgAElEQVQ4yf+zsYdt27Zx8+hlQKGURggYwmKswSoLNkNZF+RoRQRxwl91beXQe+/xnQv9XL5yGZk6WKKtvQl333U3vzB4Aakkb5fKvPrqq/zWZcV9995Lx+ggx08co3+gRqQUN63u4K477uR/Gj2MSCK+Verha1/7GudGanz605/mE1fPg9F8f9lWzpw5ze+eH+BSXx9m9CoIwQ8lio9/7OPcO3xskokxRSpMuEZD1Jh2fgI3zftiO7+GjRqoIGivLfBUYCEFxq9SbrW0vPXWW/zYjh1seezj3HXlHFIJXn7pZU6ePEHX+o1s2bqVQSM4fPgw+157jc72TrauKtPb24u+WuXkyZPYFRbpc9Iv9/djbMTwyBCidxmRioijiL6+Prq7l9He3o60iiiOSYdrLOtaxpq1azl27BhXu2+io8Pvy42hVq1y5sxpVq5cyapVq1BSUiqVEKIKScKlS5d47fXXudrTzdbt21gvOrk6cJXBS4fROkMKyeX+yzz74ntUqzXWb97KihUrYHSQc2fPcqq/nzRNGyw2EnB1Bg0OQcXloxi3VUu9pJSKbGiIF954gVMnT8FNG9i6ZSsrOnqcPnXqAFevDvDjt2ykZ/lyfw1Hp06fRvafZ/2G9WzcupLBwQFOH36Tq5ev8Jlbu+npXoYQLhcmyzKMNk6CxQlHjx7he997ib6Vq7l5+82s6Ii5eOkC0dkzThItErJmpmUfZk2t6qgXm0mkihFGkVY0m23Kbat7+aXlMVw+hRGCtFLjY1lK1y07uW9VCSEM50plDl4R/C8jbVy9MsyPtdXYsvEmfvnkUd682o9YbjHa8HQl5pu6g+XdnZw/28fIuhIqinhxtJPX6eWXygl3DcGJWKOMoF1ldEQpj63p5NuH9vGXFwS33347HxjNSHWNPzo5wOt089trErYPnUQaja1VyZRFWc1fX67xrurmV9f2sH3jSjYMXIZlCZXVu2kfHeWVZet56e3TtA8M8sG9e/nlVRIhRok6Ikbaevnwe4OkGsompaSrpFnVAVZIZ11S1IiI0EQIRG5FPtC+nGPnj/LqxXNs2L6Fr27tdekBXIHuiP+44Xa+++KLfP49y8cf20m5NoyxMCJSzg/18fTNy+ntbSfTA8hl8MtmC++88w5f6W/nllUrKcUlhFDoLELKdi63xegs4zcOH8auXM4XdrSxZnWKro0QbWqDjduhcmreZte0KUdrCf4099FhayyzGWdUPEMdZTxfynyQx5sCUJHLjdi2bXt+/1rq0Er27t3Lxk0bkZFCJAlRpLhp400ALo/cWGSS0Nvby6VLl8CCLJW4cPECSSlh4+bNDA4PcfnyZSyW8+fPY61l/Yb1CFnHHHaZkIKbNm5kxYoVHD5y2O3JhSCOFEeOHqFcLrNlyxayLPOKrURrlzobRzFaG/r7+93vRqOUpLurC+PbnD59ms7OTvbs2UMcx0jpclXaO9rZsOGmHPFFKkkcRUSN/RMKbQ1SKIw1qCRBRa7PZ8+exVrLPffc7bYf2mC1BhmxbetWurqWMTg0SK1a81LLPe+2bdvp7ulxyDSe9uzZQ1u5zNlz5yklPgNSu/qUQoCUircPvE2lUuGWHbewoneFQ5MBENLluCyCPPyARgNzUR9lRjSZRPEcLiRGZGArSKqsrFXZGEsQTmG1NkKLiBfauzhz5gyvXxqhr68PG5fo6+ujJspUKbkKVhruWl1i//mDvDjcy6pV3Rw/c5Ke1b08ujxCV/v4+uVl3La+m1fPn+Ny23L29rYjalc4kCxnNBJEtRplbfjg0HluWhHzM4Mr6Os3dPV0cfT4UdounOPePbtZUU0hUkTExEQkIgId8W/XxHzj7av8en8nbd95m+3rVrN58038gu0jaou4GiWcTzP29Eo2VAeIsxTiGNKUWEoSk1ImxUqJpV7ASOEUb4nEGI2wmijLINYg4GpU5lQ144lyxCO6Col1FkUUxmbcenWYwXI7z1w9T18i2aAkaWxZXRtmi9IIZdG64pArLWw1hh1ScdmmDEQR2tSoKsOoiKnIhOOqnUM64ZbBUzy1tpskHXBzRw1hTIqUbd5yZ65v+H7g1dwaHiIt3PdMRFStQEoVwuzHeorHeDHz0OSGuvMFj3aI+cljfyaVOhN71G2W5bnLwTKllEIbjUQgVURaS3n++ec5e/Ysw8tXsHLlKkyUcNNNN/Hca29irParvmbNmjWotySnTp8mSRLOX7jA3XfdxfLu5XR2dnLpUh/GWAYHB1m/bn1utAjPK73TUGvNps2b6blykoMHD2Lu2cXRo0fp6Oxkz57bsX3vgLFIKbDGYgxOMsQxH/7IR3hrVHHy5AmOHDnKsaPH+eAKy7333JOPmxQukcpGEWSp98gbjHHecAFUK7WmaHhr3V66MYeCTEPkkr2yNEXGDkzCKoWpZR7Q3vmhdWZylEhr3THXd4vWmjgpYW0GIuCNZUjh7qWiCBkkhZ8jQjqJp2RDLJh0xhIhg5l8KnNk6vMnhMTnc7Oo5NuQLBL0+sL5hetlWYbWBmP1dOqjTM78U6+XUZQkxe/eQ6xFriiCC+VwItu1P0sHR08d4Xv9Kdt3f4AvrnXnnWxvo/9yP8/hB8O2gZE8HpewmeWvsh7WD7dx5+g5Pr1xGRuqVxjpTvhPVwynU1h7+SgP7FxDyfsbEgOJgVGdMqozVooULVJ2r13DkSNH+M9DhldFJ/+urcb9g+dIpSaOJcJmKGmQUQw2ZUPtIkLA/520Ybet4ktbN/Ltb3+bvzk9RPxwL3HNEKeWA4OGnUkvqAtYEVFTJYSQDKoaV2xCZiQqaYPaZQAi67IgR1SMtj5jUwmQZbCGZTXDWtXGl6qCLp1wTzVDyhiTaaJIsb+jl68PGzYjWJdpYiOxVU0ad3OlFhMvE26rZixCGZ7PFC+YmB9POukZlgy0W0gtERWkGWaFkXRnhhd6VjJ8eYgfiCpEkaJsYyIR1QH9FgqZAFwe/Eg+rVpZiC2pkgvcjyIEyEbkQlfvQ0qXgy6l8J+Sjo5OlzeeJBhjOHL4SPO1rCWSkpWrV9HX18eFixdZu3YdxkJaq7F6zVpqtSpHjx5DScWm4HlvtKXHsfO06wydZezedSu1apVXXn4FqRR79uxBKtfHNE3R2rj8d48IOTIy4ipnRU73WL16Nb29vaS1Gq5WC6xbt47h4SFOnj5JlvoSclhOnj7J6dOn8xV84nqRXjJoF1UQKcX69esRQvDmW28ipSRSilKSkGWakydOMDo6woYNG3ITfRxHpLWM06dPY3RGWJxMZjj4zjtobdiwYYOLFA6vSwpU5CT+unXrSNOMQ++9R7Vaqfc1DxRd+DpKpCRKOQyDhWUeDnkeHpkwE10oIYmyUUq2QqQyJDWyzEGHdourbO4WXD4leOXwEX5ufQ9JUqJ8/gKV2jIiMUIsFKkaRmvDrlRQ6lb8xkiZM4MD/ItlXWwbGGCtStnS241dtoJDfZf52R7D7vQC1oNCZELgCs8phHErdZJEPFW9RE+P4DevjLJ5zWq2i2FKWYoRMSgwMsHIhGrUhjWGX7k0zPkLp1i1WrN8+XLeO32Qk0Mpn01KbB8cZoUeZstNXfxEqjn62qt8fc1q1q5dw/lTR+jv76etYz1pRaGQRDJC2DYvfF1EQlmmmMht9YSQWCxRqcSto2e4eV2Jb1QkZ46+wqeGbmHt2jUoFXH16iDmzH46lnfyL269mXion9fbe6hmlsFEgKnxT98+zqpVq9G2nfMXLhBdPM/u9ev4J6sUDJ/ieemCIDOTom3G5uoIm5d18YubV3Pg7bf5weoW1q0rs3Z5N339fWw79gZPPPEEDw6evUYTq4U8aOH/y0MkbYygxKhcObf1UcIWqS5WZ7dqFCOVla8jElBQhIB1a9dyZ9TF4UOHOHToMEkcc3vPCu69716+/9yL6MwBU8flMleGRli/YQNx30WytOZ0lihCkmEwLF+xgmPHjtGzsSfH7gort7NaRR7lPYNMoyLJrbfuInntCHtvvx05dKip/0opjKnv2bt7ejh/4SLvvvcu1lj0ilVs3ryJh3u2E8UxOrVs3LSJB9bu4sA773Dy5ElOnDjB8o6I3bt2c2DAoUOmtZRaLWU8kh7NXgiBlAKjU6SByGOPvfHmG7x4eoRD7x0izTJ6enq4bfMW9t6xF3nplNd3AuK9ZeetOxEXT3L40GFqpkSpVOauHTu499574dRrTor7eVgulZyeIyTEkj179tDZ1cW5cyMcPXqEoweqdHUv486urvpcWcCkjdPbpFBTLE0X1B/brNAXjVd56bL8ej5idmyOXnOP8vZh8Bz/RipFZ5rbr4xy90P3o6sWdeE8yBSsoSPLIIM/bquid3WgolswOsMkApud5DMPrkGIDEGMrdToEgopFK/v6nGFgZTEVPqpxA6s7plNy2HTctAjcPUqVauJ44gPDxznIw/sBFtGXDmFthKUZPvgJbaVLN/5wK2IgRMomWAzgfY4YS8+sIlSKQYLplrlV9sr2DvWIdUW0iwjEZHb9ycGM3weqWrY2hC/bvvglnbMzs0uDMVGWDvKDw0klE3KLd3ddFdGsD6KOI2dBP7KLWu8WbfqnIYyIstShMc9+5ELJ/nh3mXYNStyUHGlIpTQiCtHyShhNCSZpKwj1qbn2ZBd4T9uWAHrerB21CnimYHz+8jaYrRNeWjoKg89cC9DdoT4ykmM1lhrefzyKCxL+MWuDsTONWBqbnIkAq6e8+bzOWCYBqW9bmiCeqar9NPLBbbmnvmguwc/isdCCNavWA8R6QGS6PLC11FUpIiSmCzLUL5aVABpEMG2LwQqKYGSSB/zFHwLxhhX98QYpI+ilXk9RYP0e+wsy+oWC68bxXGE1savzKGen7dMBanmk6hUKQBU1KWgzpwugxDIJEZnmtj7g8rlskegdMlPTnKR+17CPaI4QQq3X+7v7yeOIlasWEEcj90MSCFcUVbfN62zvE+NK5+UkjiOUcpZxNLMLTy5BDVBgsbOf+Xj3IRH/g/QTpnxviLvI4miOJdGwQLW+C5cJsPClySBjNEE/OVZ6iiBz7yVKg/PDil3ZmqxcWMwhEMAYAhWtDhc6xAd7C+qjcv6k80l1HJcKaHc/TW4PzwzRKFT7r45Gphfed2omHpmGwqlpDsfgbTGP3sGUhDJCuhKbvaLjZtQUSKcvuWV8lLs0gVigWNeGpxZFq6o1WRGc7y9mzTL6FYCpRT72jRHDh9h+aXj7Fm/gY7Mg26rEJ3rF5Co1jwOOaSS/11ax9g2RQqQwrqJG7eBkNREzf2eaIzSxNWUcmrRXZCaGiWfz0LkHJalNCjoFRBQNuSLTaQiN77W+HFv6FiehjJ5tuGElM+tFpJpzKHGbRCE8S9aa8P0SkpdIEqUTXVulfl5KyBUvJ4UY1bJCSnUcZ9Jv8K9in1ptW2YhVWnlqXse/11XhlN6erqosMYokjxalbj4qWLLOteyW17bkNURwmo9aJxhS7eM7c02XE94cXeu2uCEopSqeR1LLdYJXHi8sWCBGm0YrW673zTPAsnY33snJ2vfJRJdfliYlArT/1kO8OpJRhNmyZ7AbkgHad/dryGk9wn+ONklRXL25F2lJPnz9KXpi6MJNLctnIln9y2gW47iFBgM+0kuJnCbLESMc7ktcI08Xq7klhjWD0wyKZajT1plZuHBoja2hFxCJ0vmHmvo1IeVv5W/jsrmueVxqB942YtOcyjZpAMrMQYCyIvTQdOw2m4SfFv6zqWOz1zjYkxK0hryVJcecZ/wEVDc9V/P6gyUmzbvo2Hdq9AKcVIFGGtoXfkCtZaenJoVgseRX4MjcebBsbj/vy9WosQGpRD+U+ShL179yLvvMtVBx4+j82yhgnEgnAYjplnfh5bP6nrw+ONTI1++SaLavN1wmEppX/Uec+ZLzJGuJ13iBUhBpt+vQY0S9wrOcNMvfoK6Cebr4i13AyBgQdrV1zYjnAYAMrqOjaytY4ZGpfRxklbnMTWtpaQVnrcCy8tshrCQFd1CITgfm0xlauujLZoACMW7kaOXa8/w7SiOtpMqG7g1Cth3OdklFnjIursHDscRVEcL3aJMY8U4qmAPMYKX6AoHJchq1H7rEOvl0w6rFPUEUSRoRpPs43ZjaJuDZzG9W8UMmaWVq/c7VFcVHI+CZWZxtc9RItIZDXu0Xmg65i77RZlZ0KVIvNKcbvf4hoEAmGDeShEU7dhpUUH/DL/+mY6XnWjUbAyVv0+XYOQJDkcWeRrqPjUaM8wU4/tu05UmJeZwCHvh88xcErBeutOzFKDySxRPANlXvrVRfgVxnkum+OO6p7dJZqQgvRwjhLIXK2WfOwaswD99mheR1U5OJ+Gle59TVHsKi2L5jD7ZjPf2DB7xyRBmXeD6AbVWgdGoLwJUltnUlOmHWtEHcHRr3021C3JbzDDJ1nwaB5FauxvwzbGCFceUXo8qpxBvHIplWMR7b3polAHxpoZOfLqwx4ck4VrKOpzosEgIBq0SJvPg2tPuqE/TgILpBV1I0X43Yb0AYPBYFFkCKwJkroILJj49m6MpBFTlygh9qeJrEVEEejRpgw499MiWI6ueR9b2TE9Q5iQONRsjQlWxpbGA2td1S+Y2BpVfN45E0/X6V1fg01LiPWbnY4CoDOHO2Ua7dZuZbRywOsoquF4w942x+idVQ9mTnKWK+G0N+nNe+Kw1w8YvVYVxsdP7LyXaipWumn0acYLxcJYBFXAQ7ORx/n0Bg+rwFqMn4/KzztpBcpIlHX5RVOVhLMOYXFGGEukxm7b7ERmyYVCs5YoszvfFv4YE5y6GKTy+4RmVR9F2gxpLRhXn1wGL7GNvQ/XxUaJgJkrQyxSaFe8fQv40Ubr2HxOnms8L4u1DlUQOPlwz/Pef6og2sX3lKOWBLo+Oor12MbWA+5p4WLUgoiub1Wz/LtEItBu3rayF47jX4uwLcLsG/4Ink6n7zdIi0blz3pPpnVRutZatDFIK7wJAFfhtrE/4/ZyvO3FAhVN88VY14xhpziuY5q18Adcc2r2T7iMV+kYRwhsQADNJbYNzvv63w2/U/jeOO8nlCgCAbKeuDTmisJghUWrGlZCnyoRRzFn9R1EUUzFAxFY6zhfR6O+A64yVqgrYu3YJKSiMaBZqgV7fvGsmXraZzYz5RxNEOlvXwsJUL62Y+ala6i6G7CCs0IM09SpGOHU6rmLiUbFasBFSXR9GCWMW8lcRQjBsEiwymKDf3TM40mwou5PGWMc8dYx0fjdXWQWOkowzTUPUqVa5c//7L+RaUMlMIIXkUY5sGzjGUVa5QAjPKNMaClr+s39PXeMMrPzZhrCUqTwGIFRSh4E2/hfspxRvPl9FozSuOCIwnPXf5suo1zbrVfop/LjU2bAIVXKnwFcbpEUck4d15Mzig+jdkBghrNnz7Kt19JcGEcDlg/qvyPTmiHRhpCSVIDDm8KFeXvJEhjDoPPoCJjMnTb2t7Gv55r59OeFQvWT8GDh+ZJCu2jGzznD88YM/cLwX2UixVpDZjvBwv3y73yS3RpQwsXIQYPeGxyqRRp/oQwhdWbSoMiJnFhSFq2dfOYzn3E/+fuGFbLVZeZqRV6i9ycZkTpsAL8ASJlQq1WJ+Mac+fFcHUfpw+zzEPtGE6//T0iMdgVtckUoNPWVooI9e4v9uk9D9RmHOqaJ8mSf/FHn5GEmpOmM1wK1GcwL5b6s4kMvMpN0485GCYgkNq0gZYT1ul7qHzEVmkwalBZgRUPQZ/j0ufVN4fbOzT9zHUX4KxUy3DKtifLQh2A+mMZ1i21nO3kbz5+sH3YO7rdYqGX80CIagDAHPdlMY4xBKeErtM3djmV2Dke/x0pF7MAIjEN1rBKBcDX+ICxaDS9AjPljHGlToPF8OdPduk17Diyy1XWaZMeV6Av/mes8XrCMIh2UlZX+t5CH4vwokbFE1iBa6ipFmhOrV0MHpxQpbPN3UHw9U+ny+OjnE2/d5iKCeVHErM2UFpHwmDY1GZtmTnYqfpRJ++JXdBmsC6FqLKFe+/g57XXGmLqOMv6cbyl+aL7xdGdEvcM3VLpAUQLPeiJd32JAqXLzLNbOmpojjXq8M4Q/nmdmOglRk4raNBlpZowS4o/HQ+CYiIqTbjoZc+M2aXVeMZJ2hjPiRpMmY6KHF9kiMBE2QwOiZ1DS5/Lpohwxr+B4r+eoOKtYsIxpq+sWMeu6U/ULVZtJfQeD9aC5Omyoc16nadj1bXHyQ8uhGLftLGixTahW1GTYsHMgUa6Beb+JOYLDLeCZlX0T7RduixWCTCcOh81jWGvh0elNGWPKRIwQ27TlOpinpQSQCjtNiWJapO5OmVr1bK4n4lxf70aTLPNNc8U/hvHfZaudid/hKDV3DBy23lNnlPHminQc1+ZVFJ17lEOUcKm5fRQQHcvN1xSuTvuEpGYw+RdB+bMbkuZiofJ4WlNr60OlopDR6OeZ15mVD8FRqoqiisWOCd+ZjOa97INDG2nYS8LMNo9Lk35+aLZYwPPxXqZ6TWvH/J1lmljOfZ9mxyjecJAK54H/zJ/sRClJlLmQ+wFpHRq7cRyujONwkQf1+b3jjGX14inBvCBJTAwCUvdQe+U4oK/k5zhkyUYT+mythNMxx0tShBREPpzeqoRISf7f/24fQggij80QdOPgPcko5xHtU6WGsg/Nyl2usGMdMrm3JYT87dDIWs8MgFISYy0CVwnX4JDAcyMUHr2lAEkqiqAGU6UbRcm+jjRRqkADhARQD1ptPMcUzKyzNqdP04gqqJcuHKlUwFcVaM43aWb4MIfHIqTZ5i6EuS1mW2feGoSBkrdbaw1CSH7/x7/vC+74WK88N96jyQd09VkHRc6DRFlivjqFLVDRHdW4XRtvmzSb7dw0tnI15Up8RN5v9xN/sgthLZF21Ya1clJDCZcHZYTEINAyJZPppNOnLg9mXfahmZTyNdWlwGjj0i3HtVA0Z6aNSxNN2DxsusWTzkmJ7yWq133yMyYwQOO7aUJgCr/PYgGcBsyt9JG9wR0Rxwm6EWl/DmmWjGJDwD4ANSTWi2JpcZJEiHEevtFT2vB9yrct4jH5jA1RPF6wuo3X//GOhvc9yZbQ+hS6sfU1CglRxcSn+l7U0XRjelqdN9cU7pN3vxhtS2GtC0vwtVmoIqruln5nks8/KUBKlG2uF2MxGGERViGtYsw8HKMKCLByCvkok1GjY88Wapw3YtUu0fjUap1oNc9mGWhww1E+Tjaff8Zalysl5Zxa5CZGivQ1y/OI+QZPZfjbN84Ve+vxdJtDoMdXmmb+5oPrNOS7eIkybaNAYQ9evPxkduymvIXG8+tWIXedZjSQfAXLH38SEbLEGBOTH5/gEA+2qfq4uYEO81ZaELZhUS+6Lxrb+59np00vqQJzS0WOW4oImBqJMLGNt7Jan48ydzR7Zd5QX4HH25ta60TgTDzrk1G+t6xO3O5aUxNiJg0Sww93MQYuP69FaMYSTU45swTxYmaPBNpA8+6ZDxV2l2iJFjPNP6PMK4WtScFcHPw2Ni6eUKCCrhCumlu9Wty1aNUK9xehdJwc//f8fgE9PlywsPIV15WFts4UVcwFQvOZZBc16uRjPfPUFXV/vI77KKhvLRpPmkCHn3OttIUyPpNc/bFntzx/ssea8mNP9/hCoYXWv2KeiodYHfNebGN0yTgq4HjtZ+KZFzN1JOWOx7naM4bMyXGwi6HuVylYwXS+Z/V1RvK6IM3XESFDzgP11c3gIXMu8+0a8aIazi9g3gadJNw/by1Mc/u8u5M4VOeYwjAVYfWCRE39gfh9bLyZ+8yb2Xhll2iJFijNXkcJPpOJ6HpbbzzzqhzjOKCxN0uKeoWmEKPmPbvBohIkwKT389cPK7AItRbD8UI9c+/61jJY73yQqZlMx5ohieYtszDFWpDB3+M+Ij8eeSRCPn7vn0Vx8iedsoK0wDS7hUCyiNm7NEaLlSIaPZSNnvn8ezMARFCG8pxrS76ZDa3rl5lE2R4vdmhaNPF5IVe6HvNT8+e0+bAbAcZgpA//zzsedBGfc+2jnWXQZXLdp2DFMs2VxYhjtJUopAsS9XFwNdUB1vqqTwAuulX480U+bPOkNeexZ826kBUGbS2G0A9nPYztMCByCWh9/tFCS6Yr5s8UrUpj6pK2dPA2t7dMJlH8QIjx/CALa4ymRgJMmkLcsKVpcFQJIRFBCgQP7yzIGusgZoXMgQqwFhm+A8ZYiK6Pld5iG2LyXGiSEgKpFCqKiOO4Dpw+h3noc0/OyiXyatVz39e5e0ON24rxwuuvKeXKgf8I4QwdyHIXB8xDCCU4p1YAUMoShBSs1BcB6OUQUgq67XGw9fICdVTyvAC7/wy6T0P+jRAIX74BM4CKImosQ8URb5lH+Px//TzPJT9KHMX8h3ufYfeu29hUfcs7aEPV32oecDq3FNByAAtX5UYMlnPRLQAMiLVYLB3pEeIkZqs5iLWWsu1zp+dWwrF1bW5UmjmjmMVpK8yqVf7uK1+gv7+f02IZxljabAkpJCuy8/T09PDwzohbd+2mu1hvoQUZa5BSNUtZa93xKHZbNWvcTtVLaWssWZrl0kWpWZassLgIiOkyVRwxOlzh4sULPH3gMOfPnefMSCdxHLOpZ4DbbtvNum2Gzs7OMdUL3k80OaP4GubuNRvWrl3r4MHHkRrWb/tb+wOKL3G2zFY8P2o6LseAWbgchGfa/jkX4osIm6Kt5nbxPWq1Gs+XfhRqij96VbBjZCd/8dDfAtCZXXHbklIn6cgIcVSGVEOb03Gk9cygR1wZcR1ytDWM1iB2eTGxHUISM6q6GFadaLWMipUkpkZiU1cGqlzC2BhjDaq+K/LDF2ONQcQGdIbRCqmUl2DujgjITESkYrA1t62rugJO9dinMOMtaMtfXPgwT3/taUYMSLWWKEoRQvJ89cfgFc2751/jYx/7KNGQUCMAACAASURBVB/g/5vl+1q8FDXWtWskGxih0ZVJgxKUK0wQwPMC4krrisDzHPtQYIxcGW54NhW5+pJGawSGPXv38gsP3MHA1av89r42jh0+DEpy7OgxDq89xOYtWwgPaNOMKI6xNQ3lEro2hIpjxxyZhjhxUatJyeVFaw1eUmRZ6mpcaoOMJVmaumqnftyMMVjlwKW10b6kX+h1A7f4OpnICCGUL9BkIIqdTqkNUiVonSGEhTR1xoFxdQyBrVZJ0xQVKXZt38Fdd97Fqt5lvPjiixw+kIGMeO/QIW7dtYv7V+YDPTfva56olVDNwR4L0SbF8PrG9mH+T23rtWjNmoUyuyLDWovUrmpVrK/QJSp8yHyJrF1TeuSn+PyBb/Nmxw+SZhmj2TJqdjmH1J0Ya7gUb0UIwSb2ISwMlHoBuFk/h5CSs+JOMqu5rLYjI4nJhlFSsLH6CipWdOvzgCKtVYmlBFPGKoUUGdZUOVB6GCEEF1mDUhF7Rp9FIOiUAxhjeK/0KAB9dqXbKnIErQ270+9BzXClfTdpLeVIcjdSKdZWjyClYrCjg1qtxu3ps35U2gGnewlSnor+gY/cP8ztOytI+RZRlvHknSnPH3+Sq1evcI6bODTUDStVYVzfPzRzHeW6K+wzo0ZhaLQhzVKq1QoqihkcHHBWqtFRiGN6li8nSRIOHjjIN7/5Tc6JjUgh+OVP7+bZZ7/BexczPvroR7l5B6Rpyv533uDIkSO82V/GZAabDbN69Wo+uukKd999t7+59mg1Oh9DIQTWGI4cO8IzzzzLebMKpRQ/detlHnzwQYSUXO67xDNvfp1Tp05zZrQTIQS7Vo+w45Zb2L3FbY8rlQr/5fOf52jpXjKd8ZMPb+fY8eO8fa6f7du3cftDhcHInDK+afNmjNEo2YfWGUSCOEl8lV1LHEfzGnC4GGhCRqlXA16cVPcgO3LPA8pmSJtSK61iiGW8VP55hoaG+P2X4Zh8kHuip9m2dSu7ejNs5ThvRJ9in0w5XnoErOXf7Ovh6OBWtpT2sYo7WR0v46XXvsfvHLgV9EfYUf0mSZLQL7p47zJ84coONvZv5M8e/ybW4vwpBmiTYDIuyS30x9v4P/atpd/ewkbxBuvWruPjD+zD6hP84cj/yNeef5p9l1ch1H1sTb9JqVTi9698Gr5rGKp+lzvuuINRuYHD8T5eTH4YgKuXlnPk3BE6OMVAeQ/WPoMQIo9QsPEw1kIHB8gwqGoJFUe8ap7g1MmTnL8MRKvprH6Zrd23j4GQlgvVnjMPOftTUOZt/rGIeaaJhF8psyzj4MF3+d393yKOEw6beymVS9x22x7uv/9+GP1ThwNgrLNqeVPt0WPHMTrFYFFxxIH/n703D5Isue/7Pnm8qup7ZnqO7pme+9i59t7FntjFHlwsQIIAQZsQJJC2RIoOOyyLDMuWw7QdNkMRUki2FJJNSgasCBu0AJIgZfASRIiY3QWwF4DF7szuzh5zz/Qc3T3d02d1Vb2Xmf4jM1+9qu6e6Tn2GGB/G7PVVe+9fPnyZebv/v7eeotXf/waqK0k3T184mOPsfuWWzg63uB73/s+YxMwMjrCgQPP8Pjjj+GsxdoC3pmA559/nksTjyGUpLe7l0cfeRRrXkVKwTPPPMvY2BiqY5AN6zfwm5/6DUZGR3nrW4a00eC1gwe5+667fGR3gWWeOnUKnWjImvqJcw6hlNefiI8UOqIkGMPJ0yc4cOAAiF8Dk7F33z7WrVsHtabF7sNKrQj3lznxass+5ONatK7QphCFmHsXFPUW5T8qPHmnXOHa9p7caEdQe5nn9uOL1BEXAqhh7Twy6ccYS6eeJEsNneUGtjHP115fwQ9qjn13D6DLCVmifT2NLAWl+K/7/4D77r+PW1YZJif/mP/itf+IkwoG7Bm2r93B39v6l2C+zciqbezbeoj/cuJzZEbx7MhmhtSDGCfIlAI7D8byl+lneO3oqyAvIYTgt+84xPbOOS6yjdNnTvPi+C4o7WS7/RF/66lPUE5PsGllmW0bNe+88zZviX08e2Edd60NqbAG0Jqnyn/Oo48+ypPdw1Tn36VhO0l0grMN72ivd/lRSXyU27Olv87B117jdw7uArGdW+wz9PT28Ku3nGFl+i0yFayJAUfLXRHl5v2iwuJomZ+tE8KF32LUyQIdvm3exqkN11EfJYoxNyNFcTJNU+68405+/f41pGnGn5/dyYFnnsEIwbGjR3kxfYmPf/zjZFnmJ6CSYC0PPfwwPT3dGDdGT18v8/NVGo0G3YlgYGBdYeeBUqnkLV9CMDc3CwTrS3wFSvPm62/kCDa33347W7ecBsBYS6PR8J5mZ8gyw5e//GXW2+NkmeFY56dBCIwxTE9O4tas8G1qDcawc9cu1m9YTzk7QZIkmFBu2vtummXX/JjAc88+y9vvvANyC+DYvmM7jz/2OH3pV96P1/KhpqteKB9qpU60W7mC5zhHrNSAYE6sYF7V6Dfj9GZj3JN+Cyklq7dMMrTxJX73zC9CmvLjsS626+1UREIJDUiwhh2l10koQ+Z3sAYlVKWX2vxZlBZQUoAkEwkpKoh6FmcMAkOnK9PhEm9KVrCqIrg4NwNiG4ePz9DYU8EZhyt1Uk81mDmQmnknEUoxbx1WOPbW/ow0TVmvptlJP7PyfqqJ9TK6gK3JeTbY05DNESVHEfwtojBeL+lf5IXnX+DfHL8N2MsD8g+5447b+bu3HkPYt8hE1ftlQnldl0cOfIBzIXAOIeX70o2rWygf4jWybAoGCiEFwgmE9J5xYwxOOq9oK+X9D4HzGGOQQuYTMLaDEGAd3V3dXBy7SFIqcfr0aeyGDFnSyGCJcql3/PX29uQbjYiz1lr27d/HwYOHGJ+VNKYmefa5Z3nqqU+SISlXKj4KuVGnVC7xpV/+ZbYlp8JEsQgEfY3zKK2Y6uzw/QwcqBxweLMsRUuNKCVBnmgqu9Yazp+/wFtvvwX6bkg0Dz/0EHv27EGkJ8FkSCnJTIp2pZ+IIPFrMVAte6F8uESt2JElEBijnd91htNn/K+yE+ccvWaWqpllUnQwZjQ/Ln0RgD890s3L52tQmwZgd8cIG9JjmNJtzIs6khRrDTop4xxY1YET8PPrjvHMW8/ysv4046MV/vnwY+zauZO3Rrv53skutDI4m/HZLRfYm36fo91PUxcNH3KSpdxf/xMe2CP4+y9qlJT8L6c/w3ePPs4/2/Z/sWqjY1tplKnaNCONjXzzuWF+adclBtdv4PhsytGjx7it+lc89NCD1GYH6Uk1OnE4KXB1h7YayhW/+DNHcbdzZQVO8tUfreO4fgzMRXbu3MnOnWWMqfF99UuokqTbDSMR7Gk8j8MV8np+eqgAgEeLBt8akpyrN7l3s+m1LF7nwBU9yjR/v6G01Ipd0iWbfxjjFV5nvc5x+PBhfvf15zGZ4VjlY6RpBpVeelb18+ADD3oPvhDBOmTRSpEFDuMEpFnKjp07GT57jpeHE8x8lQMHDvC9736XCbYjpUCpXrZs2cqdd96Jc465uXnvrzEpCI/TvOuWXey6uJOjR4+gpOTFF59nYsUlenp7efChB70VKnOcPHGC/+/wd1BKMa460Sph1+aa77f2HCJrhDIbUmGsweKYm5+nU7cGr1lrMcZy9txZrM3AaE4cP85XDv8JxhkS3Y01lhXiPHv27OGWB2LJwQ+BaJF71v2c8z+FdIGisyyeE64pBmssHWZfTC3xc/4mR2G5EsWdz4sgEot1ljvcf+C8u8BM1oV1BikdIoHd6vtUujp4bPA59u/fz5aecYwZ5e75BpdmX2CtOk2lUkEpEVIPLE7Cw+5rPPxxxwOn5njjjTf40cgqZKbost9j7dq1fHrTd7j11v2sklMgFBvEYTbIt7lr7huUSiXWmBnW4/gfbz3HX5z5C47NbaRerfPN5y7xcz/3c/y3G/4fvvjYMF893MvFixep6W6kMmxWF1i9ejUPDtXZlpziSH2WAXWIjxmHQLBSJXSZCYRyJIlaAAonlcbajHtm/5JGo+GtyPOghEIaSKljjCPVklpmm+Ue8lChD42I8Z7TshbKYjvIzeiIdM6RlEp89rOfxTnHrOxGSklZGKwxpCGBanv2BpVSCVe7iFKSXbtuYdeuWzivNmKMQYj/F5wly0yI/ZpHaMW2bdvYtn0798r9Pl6LaaRU7M6e8xwkdZD4Xflv/9qvMSJvQwjB7uq30IlmVX8/X/obX2JE7cFZx5701VyH2jg0xKc2P4RWijRbCcAqdRFrDVvSF8iyjO7ubv7m3/qbXCzdA8Dg1LeQhSq57WSCL+VLX/plkiTBlbwom0iFtZa5TKC0otuO+AvS596zd/Nhp8suFFEArxMtYazvE+WcsM1PItpijWLGnmj73uZnkaIGjSp3y2/gbIg60Npn9lmDzhKfZCXqiLrIVZ0d6vvYRoOtZYkQgrRhSZIErQXU56GsSLOMre6HICVb7UEv1qgGEoVwGgykSKhnbBOvghBsc0e8KCsaSCRd8xcRUrHNvhXSGDKccQgNzlpvnTMSmbvIZeHxLOtnXwZr2Tb/FlIKbGcCTKNs2jR5OXCh1LS0EiElD+n/APUGhBx9IyJKjQv9Bq00Iog2jYD6WWozMi7y4pb1881Ay/IALiqT3oQcBQCtICkhlAz5G5YWKFgpvOdayOYzColMktw6prUkTVNoNEBKsizzopgQOGO81x2QSmGyDGN9zRi/uJT3x8Q4L3ydjyxthtvYzAdvIhXGBn0KQkRxDFRzYDKwhsxkwdPvfLmDRCGURArZTHEues9CWzHGDGN8VLJ1eZ6/t8opXGaQUmNu0vyjG0WF0nQs4ZkXWGtDSqjg/IULbO33v1NU6ONFwoUBZyEDikUo2+uFXDE2px3DNza8lEd+4fMAPt8DQviGDO06hGz4TBURqjDlHueQY5/5Sa3iM1qNlhJHChiPUmLAqUZIeA9pqcYhRQmnMpzLiBmQDuWtULYeuiFRYWG6iAXjHC4DJZL88fPhwzVDNKxFCZ805ly5zbjS8AEXsk23MBH1PXyqwBps4hdGjkqTgNTILH73RoIkK7cNb+ToAZvAtesybfhneQLqdSy+uO4L86/FJrXInMjdvK5plMobK/a7eH7wHV9eR7kcZvAHIIl9ICQVEYTC7xWXGRPnwFgMzjvjQ8ZhLjnmCK43QAaJonCxP/nfPw0v5v2lZSjzIryPNrOvlDcuHTh/16256I0QW1SKQXhBN3G5/8TPwBjzl+T17v11qq2SUnP+tOFqtWMU5wyrHJyCBN0liCQ5OHH0+MfryoBFk/pzIgeL6Cox3Db6IWS87xL9XAokof33nCPHcQp11yMOV7R2BXwxo1txzVT+PLHBWGOzDb9L9IbPaE2M6C3hPtFMGx87XKayyLnC5dddu/P9p6s2D8t817pJdZSroZg9KJTXXdq5aDGkWlCYwNZzoqg35Oz3J3DMPihdNeh3Hinove/D+4M9vOwbhM8wGUsxRiv+EDiYDem1JuxkSVOmAUC1M7q8wlVEPAxf46SPCRb5eIetz0ZdwCu7OB0MAI1cH/Ndk35hCP9nZjVYn0WJwKf8IvJc+uaGGjvqq9cKEZEiQyyVqC06TE0bTNyyZZOrOHB4Jd4FvLEsjFcifHyZsBkyQiSZrKCTtYlsSxitQslOZLi/CO/FWYHQKqQeK5QNVaBzjOW2dm+wFazF2HGDSededihq8OS5xTFfIWhOzfML2lTxOopKVpuVoKj0t1D7eZc/nnc3/97efvtjusW/LfDMFv6O+ogQELMRcWDCpwzGABu+Bx3G9yVM1BAB4IIxpBkm1n7fJcap/UHaxy82GEXgGIEQ76G9+delISweg7NehxLWNBndYtacRW7s2j5Rmixt5Lutc4D16DNY01RxFzzPUu/5WqnYrmuZry39L9xueQB4zfYvz1GsCyJHc8nnwXzvxcJdAsGwnWKskbJtW1E0tshWNJaIeOhCrnhEZlyAz5W/2EZ4Pr8jn+3qw1jHiWQtAI/OHAMLRiqcCLsNltR5f8V8ZYja/DzHuiokScI902N+MkczbxDenfTPYeWst5JlXaEDUQdYYocPz/P93vUA1ITGLwOwOMrheGfWwFrDvdHvZDKEkGjRDanBCg/G12y/NYarqQtGjuxj5mTEIq6l6ETzQsdqXnrpRY5Va9x33338ijSQZZ6FCEFTlwnN3IS2hqsSvez7bU2JKI7WXnMkgAgRvkVZ2rV+ZckD0vs70jTjwDPP8Eajk/7+1Txy2wCiVPIFM01zd7TOoRJJbX6eH7/6Ks+Oj7Jz5072D6yk0tXtE79uoD/im9/8JgB1qXHOkgnfj1JQ3rudYfWaNdxz2y6SJMmjkJEStEZGTniNJBIN1qG1TyXIsqz5nqRPc/Z/f3iscd7RfPXXXSFn/jLi4zUNcNzyF690tcD/6aKjLSjFuhx2ZgM4MgxSCLIo9GeOJElo4L3uJeuVhlT6SsWlIPMLg/dj5IzLkBmDkhWf9ksWrF3eynO+0slIuY9v9wxineWukQZbt21gd3XSY4cFFPoyGkj4qizz3Gyd+Y4+LlV6+E8SgU2rSFkGHPUwYcpZp3cQivkg5vl2jKujlHf2Ca28buMcWRLAHkwX4Pj40Cacc8yLWYx1/JNqJ1JKfrNc988ra3R1JpSwftJm1vuEOgXGpN5jD16HCuH5aaNBIvz9LA4VFpVLMwRlD80UxizWSfzY3AT37tmOkeDsrK/XKVwOxWzCzEyswxkDqgS4VuPHh5yuzFHaajD6ekA30DR8JbIWtK8b7tLM79pKgErQwpI1GhjnKJVKOEzuiW5i/RpkorE24GwliRcLjGkuVCVQTnnxRylIA5Qp3n8ihUAoga3XoFTiwsgIW7dtLQwI/l5pBlJy8vTJPOQny5qORn9P4ZVgGTR/5/LxjQxNVSohH6YoFnkvuk9UsqA1+/btA6CmPcBd3xujWGO56/Z9AURizjsy6/WAuCIhUVhrAnCeC8q8g5CPk5TLUM/AWFRHBy7NIM0QpRJkhrQ2T5KEKOQIqGf9glZhg2oPvnTWeZ+SFAjpudB7VgB3GXQtCn9As48tFBoLSpEME86G+vG5ohjNcm0KkojezMVdo5f/vliVXCk5JXsQQjJVliilmUwMzjluqWaIUg+QMussx3r6sdZhtBcBbp31qbfTdGKFZaJDIYVkT+MsWipmdT/WGY7pDpKuErdWh7FZykjZp9RelBqdaIRIyBqwNp1gy+AW/uz4BNNVxc4Yr2ABBKOdK5mbm+Pd4TOsGxzk4tgMs3RRl54D1oM1683OBCkEdVVCCsnts15H6XOeExyVnRhlOdPdg5SC/kYdqRR124Wxlt3ZSRIB2xseC9g1/ELsqzWwxnBLdQyJwAkf1OiCZ32mq5s0TXmzsw8pBanQWGvZOXsJXdIMVmewqWWq0oWxjpOlHkRZoALY+IXuMs45dtcmEUIwVJ1CKMUJEkqlEqlVSCUZmBtHComVfRhrOdTVhVKS6ZLGWcvuuTmchaF04jJT8xqoxUbgFsyvppIflfn2C8Xi57vrAukOC+W9pMz4XQjBgQMHODU1w3333cdrw8cYu3iRp9au5+677kZIOHTodV6crjMzM43VPmixe2iILVu3YqXlpZde5J3JS/zMk0+SJAk2MxhreP31Q3x3ZJy9e/dy60DZYwUDhw4d5JXhEZ548glst/IQp0qxefNmDh07x/DwMGKos6W7xhhOnDiBNY4dO3Zw5MKPSLRGKofJDEorhs8M8+LIMFPT08yknhOmPd3ce8+9nrNYmJ6a9uH60/M0Gg02lTT9q1Zh9ArOnj1H544+j2CpFRi/gRlrUVKipERLRZoZVOJj0hLpQ+yzLOPIkaMcGJ9iYmICqxI6OjoYTxy37r+Nwc4Swhqcg9cPHeLbwxe49557MbU6p0+f5s2ZWTo7OriQGO644w6GKgpnDLqS8MwzB5icqfPzn/15wCNyWgtjY2O89PohRkfHGA/Gk493dvKJT3zivZ07N5iuPmc+ss33g6T/d67SxblyJwcG+nlpdJp/vHaI9XfcxyrmENks/925WU6O13miU7Fzy2bO616OHj3Kb5+v8sCWXv6ObrC1t5Mv1zu5NJNw9wqNSBJ+0DvIv595jUN6BcfrCZ9Rfsc9vGo9B2bfYE3PapKufurCIJVg1+wkj/RVOLV5Ha+fOcKJtbfR091Nv6njrOOveof49tRhPq/qPKJSvmMSKrZE2dVBCX43TXjp5Ah7ZIXNGzfS5eaYnJzk5PwMWxNH3ZWYnprit4/NcKnaya+sNKxZs4GJVHLu3Fn+vLeL2d5OPlVZyWxHP93zo2GYUqSEmgg6hRUkuoTN6iRSUFU9NEyD/+z4KOdGZvmFBuzYspckSZidneV3ag26TlzkH2/dzIoVq5lhjvNS8u3+Hbw2l3D3mSOsW7uW/3j9RiYnL/Ev6obu46N8eddWOjs6GNO9DNsuTinLnkoXm6YvAY7fFoKXj5/intoUG7ds5Inubi5evEh2aRzlbgDaZFQJ2p2O74Ev5cOduKVUrtAba0mzBptuuYXBLolSEoEiazRIkoT7H7ifh7oTpFSs0710d3Vx8vBhzg4P09i4gh07dyDHj3Px4kXqHYLOzk4mxseZmZ2hb80GxicmsFu6UUpRrc4zN1dlz9BAyK/33bFh9x4YHODs2bOcPHWKvXv3YoxBKcXJkydJGw02b9+MUn53b9ZBsZw5c4ZarcbOO+9kw+AGupnF4bBT45jU4KTk3SNHmJrp4PY77uChQYvJDOt1Fxs3buTP3zpFxE02duFEk8Hh5gLusVACG9Bdzpw5w8XxGQYGB3hyxx6U1vgATMGhqRl+9MqPePPNN3jggYdAglIaIWB6ZoYHHniAlStXMlD3ouH2c6McP36MkydPcOttt6GVQimN1hpjvIJPZnjtzdfo6Ojg0fvuoK+vj7X1Bps2baKSNm66fKYr56MsffQGd2Ux8mgm0kmUk+yv13h69WpW1C4gbMq88yDYvzHQgRQpp5MKJjPMM0f/xpXMHOvkkkxIGg16OjpZsaaPsUsjsHmIWsPw6ugEcytWs2/LNg4ePMQ74zOsWbuWZy5N8na5wm/1K9bUR/lRaaX3PrtutFrBZ1fOsbKc8ofjozzdfQ+P13vI0owfnjuDW7GKT63tQcxfJKVK3c3iMq8LdKiMioSXp2a4Y2sHj82N4ZxjqFwGm/H9zpU8NzHJI8zys4Md7JwcRikNwTr1tRWrOT1dRbs6JRrYoNNFd5JKQUqFURIpJdL6sJu3ezt4fm6S7Zcu8cmP3c3t9jzMpWSmgk4SfqVnJevTOj9upAwkglVG0TAwOD/D3m2b+FSpgaiOktYzkiThV27ZxjcPH+SlyZROnWBNjZqtkaYWITRHu3t5/dAbqMkZbr11P09kdZLqNNg6NsuQ5TK2Pndjp0qYq+I9mpeXQbNv/mFN9KA472kuhEvkNuSCYtREwl8mC1zqtGAlEjR3y3KlDDUf+o/A565bx/FTJzhYM1y6NMEFpZidncOV1gA+d9way5o1q7k4NsbIyBgbNw4xPTVG/6pVDAwMcPDgQUZHx+jvX83Y2BhJUqKvdwVZlqE7JVIowJJlGR1SsWpVP4dOnOb0qVNk/Z2cOXOGqclpdu/eDaKRD0uiE5yz6HKZfft3MnJhlDOnh7lw/gJ93XU2DG1gw4pV3rnvHGmaMjQ4QJYZhJC4kBeC9QYMG1AmrV2Ixq5Vc9+z1nr/ofL5MvPz8/T19dHZ2YmbGgOlkU7hhF9Uq9es4ezJo0ilECYYc4DOjg6ybA4pBFIITJbRaDTo6e3B1es462vDWGOxJhiAhKJer6G1YsPQEMxewKYpLvhVGtV5b2RY3uy48rzJJ7Br/drm2SziqbWk5yzoiGs5313JM1/kKFKINtWkKBO2fs3/vlo/U9v5ebPC542UspQOZ1E0wFpmSh0opfj1d6Y5f8HwOSboX93Pmoahd+0G3h4eR+KtyzatcV9vD2mjyh/Pr2Vr1sPsmde44/bbuc9cYk7O8JxJSHv7mLp4hPVrh5DKiycSh8BSF/PU5TyPz49x785B/mC6wXfOjbF16BN8f/QcP9OY5dNDa6B6wTsqhcVI74iU1vLZ8cN89q71fO9ijeEzw/yLSyCnz/JLGxrs37ePhlMYUUG7Bgl177cwkLmqF+PKZeYtJFogMSgXayr68bJBWXbRE59UcM6ibDe2VkKUPIK9yRJUpYSRNTA1SLpJmcNJi3EpyA6gI1SRKJFmDToqFeYbl3y5Olmm1nCsMJpEVkjdHEpbnFKgE7J6DWtTOq1gTaUbU5OkzlGWftNNEk2aps14s5uArq6n7V5r8374UtrDOKKc4WXokydPMDKasX37dh7fcgdSSEqppVqdQ567hLUGk2UorVnZt4JypczMzAxTk1MoJdm2bRsqnWDt2rWcHhtjYmKCanWedWvXIsRkCysXMmYFer/A0NBGjh8/zsmTJxkdGWHnxnVoHbCzpMQY46tuBfwuIaW3nG3axJbNWzhdE/z4tdc4+u4R9uzegxN+95+enspxhIUQ6HIZl6YeI8yZ3L/SfB3NPtrcmes5uhC+H+VymersJNMzsygtcWmKDDVTsjRj/OI4nZ0dXreyMn/ORqNOpcebhROtkUIyMzPD7Mws5RUrm1JDQKqRwutFSZIAKUePHEENliHLkEkZaQzOGH/8PQpgfC/o8gslOu8+oNADG/McRIajgVJ1lKyHeWGZcYoZK7BakHSX6axLlNacLksOvfMuLlOUVCdK18A1uHPuEqqnzD+Yr7F6epzP9HayozbLpmyaUnfC/zmhGb1wnvvr5/ncakkyG40IHmquUwgqhQDMXxlYyXfemOLrx46QrF7FP93UR9f0MIgEZx0VqZGpQZoMZMKLegVSSjakJZTS3NVTQnR3M3zeUi+VGJyb5ra+Tn5flmkdPQAAIABJREFU9jIyI1nV1YGSmndKnZwZHub18Uu4ji4yIahZS4xVEzGKlxScQ1sPCxkX2q76BGpVmX+XdjF17DTbd28j0ZoEQb1e4xuTmlfUOv5u7zyb56aZVyVKrs6pSgez45d4ff1arLN0l1ZiMsPvvX2asa5V/J3+EltnR3mrqw/QCOaxpsGm1KH7+vnfx8e5dP48d6/cxIoVK1nVmENXNNm8plRKGKqdf9/n1LXStfO+D8BqESNygSBkOnp7emH0EseOHuVwSaISzTumzny1ipDa77CB8ymtWb1mDdnxYaanplndvzrsoF6W7rg4y8TEJdat88GPAi+XK+0noorlo51P1y2VK/Sv7sfMGtYPrqenp8NHDBvXGvItPRTr4bcOMzU5ya6OtfSvWsUr1VmGh4dZ09+Ptd73s2/fPuQ7wxw8+BovqznWrFnDC1PzjI6M0rlhJ3MT89Qbwtd8XMTC6hakVfvdfevWrQyIMc6dPc93R8/Qv6qf3konc3OzvD4n6e3pZf+t2ymVEmo29t3Hb333e9+lv7+fTqu4OHaREdfJ4OAgWzb3AV638mPl/TZaazZs2MCe8lpOnDjOSy+9yOrVq9nV28no6Ahzl1Ke+Jknb+TUeM+pCYAXAuoiNUNAyCPMZUhizUPwc/2peP0iAHjtYeGXC28vfI8BHIPzM6yvz9KdZWyqzuHwkKHr0zoDnRX+/sBK3nnnHZ5N56lUKjzVXWbnzl3MvvwyGyYttn8rolxm7dwsq1f08bB9g+lzp7hvy4P0VYfpCMaHn5WCs+fOcuvQajbPT4SQGFg5O82a2hzdNmX99ARCJbgs47aZcTau76f26mEe6t+KTGfBgVE+v+P+uSm2zU3j5DowGUMdK2mcn+TbMydxF06wtqOT/QP9fGn9Crqnz+OMYHtHwn+/cSVHjxzhQK2OmJhkZwJP7d5Javs4NTaB0hWMk7gQTBVD3e6aGUMrjVMDYDNciPLVjUkSCf9863rerk/x7y5d4vipY2AFPb09/EZHhbtu30mvqGOqM4yX19CgxK7GFHes34o8t5q3Tl3gUq1Kd3cX/7DbcvvmfrrdJDjYWHdszWboTiW7GxmkkygB/2BVH2er3fzJxDRvnj3OG2cqdHZ28mC3pYOZG5c74iDiDfjp5drmWFOBz78Xw+wXzEvR+vX6PPPvHwkheOqTn2S2EarvpmnO0ZRSbNmyhS1btjBR9hPn9jkfYvH5z3/eI5FMjOLqdUSpA5Uk/MxTTyGFpG96koj/i3Pceeed3HXPXeyrT4WYJb8765LiiSefoJamHkWl6kUcqSUD6wb4uZ/d5mOZ5s63GDU+99lf8PVJpk7jrGP7jh1s2rSJ3T0VhBBUGt4K1B3MxEoqjDFs3rSRjRs3srWrmyzNGExnEQjsu5MIoaiUyx4nrI0ef+wx//Jnz+XjFsk5kEqwd99e0o4QUeAE1jlunZ8Lw2CwuWjZtKTdeeddaKWokvmSebPTWOM3ShEsj48//gSTjVLhfg4lBRuGNvLQ3m04a9G6G+cc+6rj1Or1lrH6sNPlF0rgNC35KIhcd3nPqDiAzjGQZlCrs9pIVGoADyckQ9zi3vlRlJJQ95BCUlrA8uB0DZAYBUJJBAabpTw1VQ15Nda3JQEheKg2DkKQZXVKpYQMi5aSgXTOB2Mah5xv4FSMMnaYrMEt9RD1GziJCs7Ae2vDpDMZhhSVSHbNz4CS7J2c9Aq5q8Uo0/DMDZS0bJu/CMC22hxCCCa1L7V9cuo8aTll30qNrF/MYVlEyNC8b3rEg9qJxHuthW+/ZPz7KjGDSVMeyRrgDJl1PmFT1sGCogyZwQQOa4Sj4VI+NnXeo0pKH/OniaXCLQjJuuocQglWZRZtE/+7c6ywcyDhE1M1L56Vpmg0GlR0gpV2QWzVh5muKrfXvpeLYymS2kf7KhXih2wzajWwWClEwBR2yCTBpDEBqalT5ExVCISMqb4hfD+E7gvprT060d6kG4IyfQi+Qinp6xpafx/wPhqtNXqxqruOXMeJWF+23kCEcPZcrg1JXd5HhY/Yla0+kaNHj1Cdm2PVqlX+vovUpZdSkCS6FT3HNq1gWaOB0t4fhPD9ts7jMfv+WiiXvfjmHMZkSOkDSZHBouac1/miryxgliElutxWWEgCyo+TFF7fUUp5PY6C6HMT0JVrOC598Mb14rIpb8G6E5xVMrxk3wffOykyPzfcHKQgk7IXW43HmdIRY8xlUfoM97XgGvhwd1A52ogJyCseU6tDqGAQCH2QBkwDjU9Oiq3q+BihGU0VrcBRAiFxzHkgFGdIEnAojHVo4Ut6v9vRwRuvv8Efun66eyRC1tBKMz89xchog/+Uae4d3E5Hxac55PmZAS2lKWFHEajiw1RCJqUWScEb559RC4GTPmc/cyCMxWY1yomgrBVkDepJHTIoK03EBfBtVMjlL0sMo8YI5f1PwuBMhnK+P2WRho1BeRzjm4ehFErTQYtS3VwHovWQAIfwu48rHAgvYNGdor39JTyhi1IczByySLR3pnl9Ll63fl943/b+LdKxGG3g3MLz49kieoLblL+2GwYBacFxF3wl+W0QdHV1IeYkY2NjVKszGGPo7+lh27Zt3LNCs2LFSrL5Me9naev+gufO7xt/b5uZYUyj78UhkHiuLYQKSJPScx5jcZHziCI3EwuHM/xubZsSveT7v0YqOqhbQuiXuEchtL4F+JElxieeL67gmS9yFBfyUZoHl/MkN4Bi8F/BsdWeIdkIO3gp8/kewgQ0k2DOjfBaC4SVfGAC3pX0HMiFRCsdU/SWwDpu94zHDmVtyIg69je33OrwKBbtwMkMh2PH/BQ7Bvv5pCzhXA/Y9eG8kHFJBTtbRaYGSknzxm0p/80bRRE1cspYezGi0fgLZeiflCkurbNDGLZsW8dnN61GyxQyi3TgZNknjkVUmyWT94I5Pb66CNOav7dFamt+yOn66szfTLzzJiHrHCIg5SdJyW8UzoHSOEMI+0iu2M5yqGmkKRhrlI94VsrntWCs13mkuimB624UXVsNx/egjncLLbb+iibuXBzzH6Us4GWpkBNvg4wech7UAtYfd9j4HMEhmYfkxC06GAUiQmXOXlvRYmzoULyPjiwsR6ostzxXJgNel9UgFTor+UPSBvG/SqIIoo5ACBUAMuY9Hl8RodKBCfhdyrRP5Nj/yAG8WVi044Xl6cy+3XJEiIwcI0Iz5eg1cdq0vYi8vXhdPKsVITPijGl78yy8ZdeZ/8DpcjjIP8G0aKrDjXgledRAMzo5/32Bjmdb79nmmPtpoAKavWsZjNwx77ziY4OGlOcaOwfocI0AK7wn29lFlKRCo8XvyyVHi++maeqNO1V4YSagrOc7pm49v81AETmDU143EUEniVjG+Y6XYxPHiRF1liDbx262Y/jmukA75wr3dTGfxO+0RvkdW5toZjXeUBD6YUMojQz3adYpCbpSvrG37ug55UiUMk8D8I/i/MlR53KBM4vImXWYCFH3i8/ZLFVBbIbma7Y5kmSMIAjPn7XrdtdIxfnkmrkeLpqx2wbAFaxPC5z3hf43jS1xzl8PR1lMRXGu+fDvFUjeTxAtpiMsStFn0f7bdezoQoom3pmQS8yc4r1+umkZ+SiuJdR8zZo1zQ3V5Q6K8M/L1LgkpN3ZEOMQV37YmWIDS9XHWMK0l/er/XhulYqfrTrIAszb9sttqz1ML7DmLFMnW9C+ab3/khRCZUwbuj3kmz2AzCtc+aS1Unu3lhL53RInxLUmbGBHKSCa4xHR96NYlofNROTJ9gcL1q68X/G45zzCtHHk/L1cpc4rWiUID3lLMw9nCbL4aSmvYd0vg6NY8oDHK2xgQihcrrj5ZCv/d97Y1few2fhP385WxAxr/36949Fibi/sJJHTFHXCpfTD9t+XK0st0LuukTPG+8d9N98gb7zudF1BkU749FQZOIkTSZC7614MI4k+a3+BjDJtfJCFYRhL3+x6enqT0pIy9CLHrrppv/GJAMLnXACpg4WMx7nlgUEsu9pBe1vXaP0SUcfz6cwpAbvZqctu7FZcvefmygslxA1GKoI654MXYqJwLuSy+8DJHOnwp3GSf8hJtHGrloUQ/i7Wjiz+/lPH2Snmo9DKyl3b384V4HCClcx4mGe0U2AFOqtRlgrrQh323AxTAKNo/eMj+qCpKIIVF0JBuc/jMxZzOLprYHPFnd5F3TYeW8xoweLHI3qpK2ONoGJmw8/BSRtDbYKSaF1etZJs0VCrVmU2R4oU7lp53uKklQcNEB8QpuxHdBW0mJWrJURpib8/hBQ5ngixaSBuuJ6ybB1lsTrzuXUjRJOmNqVUSThpPk6plGBJwvuIYe/RqhOiXW/GQhk/AbRUeHuz9o3DLdM01NqWXCZDaJNcClavdlyudryG4nGLxAnnM1QBLTxyJjrceAkjWMHMtGy6oRmOUkpq9Tp//G//CGMsJje7xh4nLd/t9ZRP/ohuOEkhQlTy8qeRbVso7YawdvRd2bZQbJvoJdtWWnsOVPG4ReJwdISbGPlYOGA9Us6yn+LKdJ0LpdVTvoUXMDIjy0AKjZNNXCwA4XTLdbnoe013/Yiul0Sb7SfK74vRoovHBTGnQAtcK23kjxevERStXsu7PtxeBP05LJTNySsgBbW0G62TZtR28U5BHb/aRaQpiqrFThT+cIUFkSv//kte4gPgC1/4AgAdwUGVhuA9GYLzZEjgicGGmWhdaMuhmykr7sNOMjqEAxW5yZVEoNjCB0kOLy52hmDWuaQbk2Uk7jsBSbPVj1ec5pcv+xDmpWtec30cRWR4T65fbTvtcz5fId+pspDT0iZixa/5u/ho8r+3tMT+eaVhzzNJlzrx/RadF1uYIq/sJTN8waksRctmjFx+tfMGMEUhG3WZdOWFIheJ2XLRCRW/O7AOJ8FmBqXizhQdVUvFjhQa/IjeQ1pqofwEjLuzzQgb4cjqNVDKYyXfQI53+VivRQZ4UYAJIUAJJJfCou/0V7ool11pR7sKD/1HdANpGcGYl6UP6r1FHdeHV+lmuDK6XKGRZXCZZSKuHI21gJa/5NpabvXkLjz+Ed0MVIwhc4V/Nyl5SBmAHFf5RpHOofCDtz1STKrPlflwPP6H83kbQoTMOgG4PvwfrfkauVlYNML35dWT/4jeY4qZmg4+aMX82igq4UnTE29BySqYFJe7I6LVNZiMHYhFlP3mHwXPfPi89tFpt/B9RB/RB0kx3jDGqd1gzriM8tkyt1MDjI6MsLXfd0wiW3ItnPT4VFYahJKoLOSfhPomJnCSuDoXWMOWTQsD+C5PBb/N5fL9L5ekttjtXasDNQfcK2QSFimvjBXNkNGv1JYB2byu3VFbb/t+nZRnKOYIYeGz9YHzfTYGueZDvsQ+mw9x6KeaDbeptF1/vZM5tBcxCIyP8RI5DnHsSLyPRxB1QvhKCVdx++swD8eVG/QV5yvTSuGR1rMsQ6UOlHwPOE6BRS7LcrNUgthNLI+/T+QKWasRvkrkwZLR5xKOh8983ceFVUSibKHrFLlzkBDjeyEScL7mvXAsGcJyLXRdfhRpwuVJA2cd7yRP+KKXZgKVSKTqvq7OXUkuHBu7eE3tRolz9ZrV/oeYGRdkdrsgU26ple6fPwk55i7syLXQ8e6wYVdV8exmjFw9xHvINtlYulbdzea3D4pqjv7SStcsR7s21JkcZcZDq0obOZlHlLQy4IPF6PvQ/ZjAWBKt33P4sbbzYo+vNeQvYhEkroYUgnm6sVg2p3+FlBJ9A3VfnXso22IefbBaSOppU/J93n7TvxJFs2984xtkmfELRUik7bmuzl3pxV+rlz4HPYgvrG2hLEwpbQcpiOTPb18o9XB6V1woYYVEJ1ecMPWQWiuJKctx4rR5iNsWiihw8yJdC+NWQmHznTlEUDSXtE92dBFeyS8Uo2q+vmTbfXPTTduCiOctXCjimvvt2/UNlkL/qq4TrTW/+bk+dLIIMmcw6rnwpRlV3+6ZD19jFIq4yujhBVHZAdPWkeCAM/YhnHDsFd8BBA0pMdZ4u7UQzQy6xR7augXHRdvCbU8gaoq6ruX3K5EM59t8AcQMzHpoN6K3BNSZ2J8QXRtfuCPFOUcmVJDfvUxeCrpEXXudLea2N2SY5KJ516Jok4nwDEF30fjCsjLPMdd+gkYsAFo3i1wMXiYJ2nFkpMcEbmnRkckQehQxjON4hXubPMg1InO2KtSxerG4TAZk8f3HPuQldsNGvOC4kzhncxy3s/JelNN06DMBOCPlRtEylHmxbLw7KT1q+xe+8AWcg1QmfoHk8/gyC2WRdFN5hePtyWXLbT9+WkS+y/gbpkERVPk1zjlfBiFcJ4RAxYkQgOKaeRB+oYiwUCx+oUROEhdK0U3nF4of4AwZ9L2lFopqWSjtY1B8tqWOt1BupIk9ihwlinZeosjy/cmfn7i4cYaFECZIlouYrebVGMiYh8QuJnpFHIDCMzQxk1s3wuZxr6OWjH8P/+hPLmCDQo+1N9Qfel06Si65BKR5Yz2u+2D6AgBKhocPsWBNpMRwYRxAd+WJng9kMRNPQGue9lLXxwwE0TwvlFoglAZ3OJDCF+gp5GXkWX6xfxGGSQgcFmNtAVs4Bn3GPnn09hhyJMN1uRIqCTtfXAgBvrT4hlsSrBJvvyiIhpdbKCJe33oCoYaD/64kEVETl4RnL6CkOEeOOElAPZGhkJNttZLlqP555/xfmfBWLx1EtwVWr7aFssA60C4xFEQ35xxGeOtqajbinAVRBy0WiFLXQ1e9UPJ8gEUSuWy7V9SF1S3jBA9thPOL4yWKA1X4vfn3IsdtwbSx2PHmia0LrUhKFrvWbKuwm7kFx/A5Dy1rtLiACwuStlsWY9/CnG1+F63HF6PA1ZY+vMzJEcXcRbMcCxO4/Vh7unChjXw8wgR17dbu3FoW+tq+UJpP0dq3BVyxfcGQ90tKX+TIGYNQNy7dqqnM51pOoW9hUsSwehEQBpth9rGTAa3cJuSVrIQHe27WzWgq/8K2PqhruekSJFrODL+5yx8vHlxsArWhzuMaYB0ZZV8G2vnoaB12UOc01sZgUIHIvGfISY+YmTmDA5Ky8yW7nVd4RUSGjCnS0e7vPGpIip/82tTAWc5V9mGtY0LeDsAe8xxZltEhLgZuFrijSIMeEFD8rQxD6DcPIzMQoGz0NxCgiOI4WS8XhWI/yBScxTrpK4whQzR4h+eoLg505IiqyXGECNW2wLgZZKIL5rqos7Qie+YZrvnekLOQ4mULOVD8tH5RSNFACEHDdSJROFvy0821+bea2jvOLVZrtPWP/Li7QtmHIrVUub3MOX5XXIB3EzRHcfnFcNV0vW21DrxNU2RHp/frCXy5u3i40G9rHSpJAjBccwFqrUmzDJO1QY0W7+gcwsYUqaYC65wLPieJtY6vfOUrXFJ3IhH82oMZO3bs8A0swsmXTTlel2maqJTyz2AM4MtLSCmaO7O1OHylsQWMbjEjigiqtrFN8fW9pCKHdWBvpPOkQNfJm9p5ayBnw2KRfveLGLYyikABHX6p65dN1xuf5F+iCJi6rtzPXHWeX33+MUZGR5lhMJwXnsdMs2rVKp4aOsG+/ft4Wv3bcH3mnyvLSGSQja3HN/MvMWL4Vr2I6RLA4USKLzsdzZBlcJZhvZORyl5+JD4FUvN58VdMyG4G7Hkv+tqIju+VbRPw0nSMFAg7tQp22ExV/fGGhY4KtoYvrScULm0gdA2Uo2EkUsjCpPC6nRBVP9YRl80Fs7+LdVuKC0WEmpKCZjWBVtZgAke73rcnaMNicLHsYEaLSpr7hWz4J6/67je+KnCUXcMgeW9uUVFrDmxzJ7hxStfVUnG/szajXC57JBmEFy2sCbujf67JyUkOThzk4vg4Tz+ySIPWeVFTSi+S2oIhIVZntXLxndYav6Mr5Q8nGim9COurX4miTeTqSUnIMqQs+bqY0iHKZahXQSc+Zz5/Jx7B3nO8AJ1bnHxQeKfRA++IhWPfl6iH9vsU3Qs3+PbLWihXY5u/2UjgMEL68s5kCCGY15pZIaikb7N7927+t/3PUqvX+EeH7uHEyXd5q/Qp3rrg+NLpv2LTpo1U7FlfVhuw1gbzqMhl9ExFUayCkApFDZxDkIDSKKqQpfg6Ko5SVqaUlUF0YZVCWW9iNqIHIRTC1bypOjUIQMtQcChOlAi+nSSQZWhRAhN2WaQ3M1oDGDAZ1pWQaLS0YYOL0bgmLI4uMCaoBM4XWs0ynCgFs3jV31PVvAinV2IbKU5HjtKqC6o80yrqLNeDFOloSjaF2C7RvF8TmzpyEls4d3mkc+W8LW6q+FteZzD+V1D0i5Tn1rcbBdqtBDFXvqktXVWnbxRFq0t8Juts7kNwzvoqwEJQKpdQWvPxhx/m1MmTUK1CRwf1Wp0szZCJzBEyhZQ4RKhkXHg84eX+NE2RwoF1WOGwpoGORUDjPDcWEye+swghsMaSOYNSPpPPZMabpZX2iwy/oXu/lX9bwlpMo44ql5oxd5mBkvYnOwsYhC7jMlOYuG3vw3jR0hACDvPvFqXj5POLDuGfXUiRJ/kVleLmgDQ/rov7tEwtL724Bcea8y0PnefKAHi5MUtcN/Zw00PcSm2G8FzpCzqKi6JXe15KOy216tvPv8aYnhBCopzxE8n6fJkOK+i0XtwQQCko55eqKXUSUHWUs6zoEXQkdX7n+Cf4wQ9+wDviHlCK/+rTG3j++e8zNT7J/fffz69uewPrDP/62BO89dZbvFpfA3NzlBLFipUreHLDcfbt38+T7g8BSBNHph0Ib4VqoDA64f+48Nd45plnGBEDyCThtzZ9nbvuvJO58i5mZ2f5yjv7OXniBONuFdQb3L4hY2jTRv7zDd+ipEoc0x/j9772VV5Ifh6Az3+szPDwMOdHZ9iyeQv/6+3fAyDT3iqnw7z/e688xokTxznjVtPX38++IX/d6ek+SFMeHTzLx+69l890fxOlFKXqLDiXG9Pi+44FwVRu9r1RkkqxmoEDVJvRIx4vA2WssFc9Y268jnITUe5ElNL/y7F28zPIMkNmMqrVKq+8+WOcc5TKJXbu3MXgwDu+/LVW3jsdrGQ/+OHLjI2N+XrUwPz8PIcPv8mLb3fSSBvQtQo6OzG1KuMXJzh48SBnz53niSectzYBUimiIyKK4j/84Q/9F6lZs3ot999/HyazTE5OcuDAAd6eixuPN06cPHWS4bPDPH7rO9y6/1aEEGSZ8aKXMQwPj3F2eJg0mI9t4F6RpBSkjRQpJcZYdFcHtVqN119/1/vMhC91d+7cOV548UU+9XgUqWI/lrb+3Wx0fQtlQS3E/EDrV9EKi7PgtKsGwms7P7YT/QPRfh+/hxCHOJGjR1lIL6JEByKUwDlSIMXSEFs5eAYeOvFQ3o7q2M/fuOU8d99lKNUnPaMXnVhX8f6IWo3TZ89SKpXZZn7MprSHfzX+KZ57u5OG6CTp7OXL+/8NO3bs5OWJjbzwwvP8WeMX4JLgay8+wyOPPASiA0clSDSOQ+oRvvvKJY7NbAZn+Yz4lzx9+9P0mpRGlvJbL+9hanYVW9JDbN26lf/p/u9zcXycv/7806Rpyjfe2YTb/yRlOUejoACfPn0WJRW7s+9xSzpCXflFX0qzsIEIEi2ZsiWmKJHVFFkj5Z/d8X1uvfVWvvrmFD/4wQ84WPk0Ry6VOHjmONu2baNDH6eoozUdzTdaxA66YAxmzV+9xxszIupI8bjCobDi6o3IN5Sj5GAURe/tzUBt/XTO5QF5GAta+0+lMbU6r732GuPj49z9kEFJiTHG+06C53rb1u3cccft3FXey3y1yp/++DhKSKw1DAwOsX37DpRSDA4OcsuuW/iz1/2CPXf2nN+plSPLMkgkaKhW53j3yBFgMyC477776O3ro944y8Wxi0yNjoFUrFixgiefeAJVP8batetYv349w8PDVOeqnD13nh1b+0Ismd9o+np7eejhh3lwxS7qtRq4V8iyjLIOQaFp3ZuvlSBJEqindK1ayZ49ezHGsnv3Ht48fNgzDpNhjQ3VDqLY85NjBCrUcGSBzt2ibBW89PmxfKW2rk8XWa71A+ZixGy8bsH4LcVRFl9orr2SVt5MazSwy3WhUvjeDCcXQtCsk56EfkWrj8RZSa89zS3bd/M7t/8pKMFXju3khz/8Ea9VPs+hCcW2l07z8MMPMy0NM8p6RVkq/ocdL7MqeddblkqO/7n2ABOmzDoxyo7VG+nJRkGW6cteZ60+AtlOkJJj9Q4u6gGcrWPTeShXIc349ydWMZvdgWKY2267jYfXjZOYaS6pdQxPjgIVEIrXqjt57asHgfuD43cSRDcTsoeRtMwtRqCdgFDZ629vPsSujhoD5ixGGpTyCz5TJXAWFaLCpa1DNo8QNXorjoq8hHGWip6iu1KFuQyEpJRJZM16/5iUixh7Wj3z10+yRecNMy3MP4G08femyVs4i3QWyWK1Rlt162aCyQ1Gs/9Jo1xeDyLb3n372LF9uzeFNhpMjE+gpMLhfHybycBZ+nr7yLIMZ2xuWVFa4ayllCSeQ2UpUnirGiqU0ZYKa7yeIKKYqBWlpITUCq01586eQynlfS3Wei5uLS0h3lJBowE2y3832UJho1wu5zqRf9ZoYctQOjrxfPSAswYhBMYaTCi3kBnTfJ75GlIp/5zOFTahnwy6saLXAgYQrRChevBSO8mSdvTFB1vkCVatiU6TepA0yzhWuQeBYF/9FQCmk36sdVzSQ2RZxm3mBYQQSFkLE6moa8kA/iwRGhpZDXQFk2U4mWCkhrqP8q0nHczKhJITUE+h4gCDU1U/qRwY6xjqMJhsitnKZo5cKjG9uR8nHRfFZs42psHWQUo291RZYc4yptZhpABXAiH54vYzHDp4kO/Vf4aRccE/+UEvj37iE9xlvsWarhoqEZi0zo7yG/xcpsIEAAAOFklEQVTSF36JT83/HlppZmUnzjkaGXR0vsohHqQhATkfRncWqapkwvrFbn3QqxNgs7p3yziLtBWEq5CojJLMKOlObJpRLqU4NwtZAyRkDYMi8fk874vk1R4V7gq/QTNzMzi/RYYVBoFBuqvTUpa3UAoezyuGwhc/32dqpA3efPMw33z3CAjB5zfPcs+99zAzPcuzzz7D6yOCwcFBNn7Msnr1Gr9IXJPBLghedg6tNfVGAyUFb7/1NsePH4dkPzQadPf2YI1FCYkOViohFVI1ATm0kgwNbeTMmWHq9TonT57kZN8Jtu/YzsiFC7z77jsg7wCl2LplC1prpFbeOpX4F6+V5vbb7+B7r3hH39GjR1m9ZjW3bTFsHBpCK41JG1Tnqxz4zgEe2DvJ6v5+pqamOHr0KJmb5+6770F3amyMMvBP2MzRKWSsejUmOC2Dt14IQWYyjLVktRoq6DEm5sMn2m8OxhQG8ibRUZdBy+YoPhC46JByuW6yUOUo4HgVdZ0cyzY/se2znS4vGTakN2uW8Xb/KTHE4bOHedF+Dpxly+gfsV5u4qVRyw/HN3Co8iByWvHIyJ+xe8UG1igVFkkM1e/Au9U885uym3nluOPjRz8OpRKIeeAxtjReoLevjy/sbtBvX+UveBwrNSo4EFMr0CpBZxabZfz6xhfYe/p5/vXZx6BR49d/9POIVwSSLtJsG3vlXzK0fgO/uHcCmR5gVH6RkoxjKNjGj9i8YwsHRzo4ceIEh8u/wJHXNY+sGWd1/2r+mwdO8Owzz/Bj9Skmzjo+M/oUmAwpq1h7C7+x+bvMqCEkpVBRwL/2FI2RJXQW80vCy5GJj0pxXt/IpMEIg3UW4wy6IjBpDYMOyDp+UTWcxSoJRnt97WoBfq+WREputVyUgtgZHKmZcGTSXlO3ZO55b/8H+aenZoeiASDX6fPrbK4ANa+P3nyXh+gXPfwt7Sz4d4X/8r76/xKdMDA4iEoSVKnMwMAgAlg3MMCq/lWAo3/VSjZv3ux3/Xj/2I6NCl7oQR7LJ7zMn6Yk3d3cdtttfPKpp1i5ciUOEfwcFmO8HO+AzBqvXIa4rYcfeoiP3XsvA+vWYUPptDRt0N/fz6237ufRRx71ukDEzRXC60ZSMl+voZTizjvvpFwugzWk1Sovv/wyaZYytGEDjz/+OAMDg3R3deV6SUelzNCGDawf9OOQZWmI7AhGloJxxv/zdUViVEYefBH+F7mkSTN8VmfIT7LekKGUxliDyywOsXBO3fB/rfMnWJta5zAFW1Th5EXbWfC9Oe/F73/jn7qt5tkFAWa55KcUJ8WjfP3rX8c5w9NPP81dvT8GpbEhOtWFqNJf/aPbAMH//dk3QEmM8IF1Cp81aGWoIhxkx6ZOc42K3wKlKNaxb20vZlRqWzhvGdS0rsVccN9vxVw8IbRfbmu/HdernefGfqu2zxgNG8QaEfyL8TKLD0CMzUWFWcQgy1pbe+33aQWRaPYmvo/WevLREJEGXTBxUYJoRQLNwvnaiOb4C0FEbcnHIwdxiP25XiWmA/+M/rl/9Y/2US6V+J1P/xCR6Fz3deF5T6gn+frXvo7G8sW/9kU22efa+hX74687pR7h61//GuPizuXNmLzIafzBEV5Sa1KyEDHnmxAkd9VPfn10s/htroJcu1K8GIDBtT531E9y86loO9wa5b0QtD0eL3wXNKOJr9St6w22bWs/5gOJUnLDrW5XbfVqCXHI/RZ+Ry1JhbUWk3h0DIWvuOWEF0+kiQrjUh79q6T8xbYjNrZSc6dvxcu6EoloWs09y54awbhRMuWW9po4V/H34E8S7aEcUVdr7UezpqU/P+J/ubBj57AUuZXQxBuG3yOaTGxHtp2ftf4eex/eg2xHyQnXJTnel9cJ04DKkoQoYGXDcWmDaNO+Q0ZT81W+7yusIxvyeFTIw9E2WFlFSEaL6C/h/LKRlK2kIZtIMculZYfZO9wVd64o4ymlsFZceUf5iK6OCpGv0GZcupbNOegcORJk2+EcETLCBcXvudGsaT1r7WNrP4vHW7p5JU54pfnTZusRUoQYtBtvl9atCluTXAjHoOCJLyo8OL+i/aW+x2U3j3NwLrsPHDnMjQ2yvVYG5yAT7TLqda6oPLMv7pi+vchJInJjxINKlrxd64E0n0CBg+Tm7xgNG3f6oMPk92ntRy6iuHjchc9WsvkLDjhZwTwTawAIGfG0oijkj5et38nrwXkY8z+yyLFl0C3COKlYpTkPiVOh/42W8yL8UOx3KegCWdxfRQimzPM9XGFxNBmbzDl4MJAs0FUWt25ezoEvRIhCFs33mdgLRCOFT2Buy9FHhHdpg+Ep3qj1PTV/DnNfXHXOPLkndzFKQzDdH/z+HwCxLITECYnF+XB2igvl6kShpald9PLtRTPgfFTmwwRa2jzYZgSICz30s9QGK2LaHJ7NGMD2shdxQYVvoR3V1g8jWkWqKBI1hARnm6JXaC+2Uw47flwoEZI1i/klEYrVtdbUjGK0dNF4EAEAw0JpuRsk+UKJopRfKE34JD8BI+VGw3xK2pDolSfst92hla60faoQIZDE9aAfRQgwaRQFr9DAVdD/396V7MhRBNGXS3W3bczBFhYgQCAhPoIvQDI/YL5ysMSdD0AcuSCfkEFikeyDe1xLZnCIiKxlupaumm57Zioure6qrszKzMiIjOXFMKOkHY4zwowRwAWJ9U87pwzOJ/FXWGtAmUw03WOzLTiZiNJOL7FYshDibEmpQ9muu5KChuW5yhiKvxV7X7s9spqTrQxWqC6vQHekreat3tRnFD1DxNb1yijelbYkCzctHL0/a/TfpZ1T/6c77luvrfH/VfLtokoKvV8A+6TorHqnPTinPkoufCbfrZw9C1kHFX0o78P/2xFb/3LZ+DbRgCIhd7oR6HjWGoRpjHE0NQPNoWAKPtfJODzGLzAwcIJu07X65c4gtwbb2Dy3TqNJEqWZCTYEi/nDs2cAgC3+AwBUkq/gkwTUieIFoIwzv95893/8Oipy034qA6kLLU40x6lZMakiqsII0F0KwaRCrqN1HQ2VhJ+n7Xd3Bq2arKARpdzXHmuFZtV2YjIiiNFBjSpRJapKvtC6T9+nZhSWFAU+kO8a4sLvUaQENx03ZRRmqMQoxPn9uYJHJN2pNldbmKQi17M3R/Uy0MJUKpnfhId8Rtn8nLI++UG0+NzSZqyGqma0pyTpG9bAxoBtZsCYXahB62QCvqaf2k/vys4rsnSiGXEuLT0sdmksPOhYfp87d8cmU/S85+TX72kvdT+tG1k4Yw+e2vDofQcG3IH7a4BaJa8AEDK6REaXvBGZt0fNfy8AXsuQIR5rNpG7tpdztsnlHDTSr/e12zeErqyzYzeexeM/FnfYPKRL3Jq1MLAcBdGbgKnWvdrKN6J6NfM1PAw8rLkHkNSWR8d6NRWm5pBZ8broFiPG3DpaPP1DjNLwSxnDRiWJCg/0ACGdY6bR+BmF0CqZzVA17evpjbtM0l20LWwvYLm1a6VFtPq5JtOEsg+MUuIQGA4q33NueGb5sEpUe1xHZfFpZ+bYwkJ3XvYMGGZuBA3hgRmgint451HBgUIEUCDzQBUiYjyudsrRISzb7Y7NSFUFMuHK4hwDyzslmN5tBuo7Cd302LiR/jvnOFM0sFvDWMnzacYkTiSvYclXzhdEUCQ+ogBCxFv3JV5XT1DGbzmhScyYc0vEzaGxplZeOR8tVZyXy7PhJ3iXoShLbGyFGAn7+DFy9wV8/AtFbGzyKUCk7aFPBqvJnnl1dFUVLi4usC3/QIwBhQ2jx5KV3l8a8olNob49iyay0NwipzWN9d8gyzYw4ZJhDvznyPMcZEpkPquzGiaQZ3+JQMykWCnO/NMguEf0Ep9tX+FldZ9rA7kS0USYwIHXfZ71pROx0kpDpI7GOp1E82NIfvcoyyLddz/8jY2p8Mj9iwdvXqAS/+4UaTGphmOWbfD906f4x30F5yxc3DMKiITRR4od7/27ESvnVAFXeveql4bI1LiH3KNSIwMkJd2JmTaUhM1mi13+O7Isw5SaP0rDjBI9KETsqt+wcx4P3Z8IIcDDgoqQJA6ARsTfASaJPZ1ZLntXutOUEnbku2n9XIcOSejO5j7fssuBogAhckWxCZqPbyJ811onIUbiMtPOgrwDIqMXeu9TaUaKUc4kYkEwpi4BO4lOyCjrYWmcbosE7gmTT4zS+KW8zJH5MgH0pagUoBFcRumDJGKlV6JYa5CqxUpihjcEFBVghEFS6bYjB5zqjpyEzlXI5qbTIel/KurTKuZQ6nY7jaGWMPJVJE3aM02OzJYMEBik9oudZiY+DZr9dS3SVSqclq5z8fbROTasEYnSZgTN68dR68vbgSOVqn6l0TwP5itPijJSx9K0+tb8PtiXA4O4Msf56ByL+ATzqRqSJrrV1q/OmUTCnitBg/FUNtIuuZhr7S/EoGS5fomydFxWlWmlExApUwCsdhkznPDSIV9VD/EC3yGGAJ9ViDHAaPVXbAXGX02vHU8mYitHui77MLzYp2wyS/llMRLOHWj/mDYOmVH7HItT3QNmoYE4tV/nHA81duAnxbCWT0nMQ2QJ9Lp6gtfmG9zDHv7H589RlnvOPBPw5hBzjpPBtmaECFyFF4qtyGJAkAOv4ZQej4W26ZBd6Oy8E+0fw80HGGUsM/UqDlj3+jUxykxKjCKfdXkhZpS9+ZQxAIyFf1U+RqSP2BzsDAwMSpQsFBr26T4ve7ez3ZenBRO+aFeld7yr34D2lyxUEoDzZbRYT5/ZmoIOdHL6jWIvKBZ1BiCDsxX+Bx+IzLNVSDpzAAAAAElFTkSuQmCC;" parent="1" vertex="1">
          <mxGeometry x="433.06" y="113.72" width="142" height="513.17" as="geometry" />
        </mxCell>
        <mxCell id="FixOYD4-snbmeL3foWsd-3" value="" style="rounded=0;whiteSpace=wrap;html=1;rotation=90;fillColor=none;" parent="1" vertex="1">
          <mxGeometry x="250" y="300" width="508.12" height="140.62" as="geometry" />
        </mxCell>
        <mxCell id="FixOYD4-snbmeL3foWsd-5" value="" style="rounded=0;whiteSpace=wrap;html=1;rotation=90;fillColor=#dae8fc;strokeColor=#6c8ebf;" parent="1" vertex="1">
          <mxGeometry x="30" y="300" width="508.12" height="140.62" as="geometry" />
        </mxCell>
        <mxCell id="FixOYD4-snbmeL3foWsd-6" value="" style="rounded=0;whiteSpace=wrap;html=1;rotation=90;fillColor=#e1d5e7;strokeColor=#9673a6;" parent="1" vertex="1">
          <mxGeometry x="544.06" y="215.94" width="510" height="310.62" as="geometry" />
        </mxCell>
        <mxCell id="FixOYD4-snbmeL3foWsd-7" value="" style="rounded=0;whiteSpace=wrap;html=1;rotation=90;fillColor=#fff2cc;strokeColor=#d6b656;" parent="1" vertex="1">
          <mxGeometry x="1003.95" y="161.99" width="282.03" height="190.54" as="geometry" />
        </mxCell>
        <mxCell id="FixOYD4-snbmeL3foWsd-12" value="" style="shape=image;verticalLabelPosition=bottom;labelBackgroundColor=default;verticalAlign=top;aspect=fixed;imageAspect=0;image=https://upload.wikimedia.org/wikipedia/commons/thumb/f/f3/Apache_Spark_logo.svg/1200px-Apache_Spark_logo.svg.png;" parent="1" vertex="1">
          <mxGeometry x="675.94" y="414" width="268.12" height="139.2" as="geometry" />
        </mxCell>
        <mxCell id="FixOYD4-snbmeL3foWsd-13" value="&lt;b&gt;&lt;font style=&quot;font-size: 15px;&quot;&gt;Data Sources&lt;/font&gt;&lt;/b&gt;" style="text;html=1;strokeColor=none;fillColor=none;align=center;verticalAlign=middle;whiteSpace=wrap;rounded=0;" parent="1" vertex="1">
          <mxGeometry x="250" y="130" width="70" height="30" as="geometry" />
        </mxCell>
        <mxCell id="FixOYD4-snbmeL3foWsd-14" value="&lt;b&gt;&lt;font style=&quot;font-size: 15px;&quot;&gt;Data Processing&lt;/font&gt;&lt;/b&gt;" style="text;html=1;strokeColor=none;fillColor=none;align=center;verticalAlign=middle;whiteSpace=wrap;rounded=0;" parent="1" vertex="1">
          <mxGeometry x="730" y="130" width="160" height="30" as="geometry" />
        </mxCell>
        <mxCell id="FixOYD4-snbmeL3foWsd-15" value="&lt;b&gt;&lt;font style=&quot;font-size: 15px;&quot;&gt;Analytics and Visualization&lt;/font&gt;&lt;/b&gt;" style="text;html=1;strokeColor=none;fillColor=none;align=center;verticalAlign=middle;whiteSpace=wrap;rounded=0;" parent="1" vertex="1">
          <mxGeometry x="1100" y="140" width="90" height="30" as="geometry" />
        </mxCell>
        <mxCell id="FixOYD4-snbmeL3foWsd-18" value="" style="shape=flexArrow;endArrow=classic;startArrow=classic;html=1;rounded=0;width=36;startSize=8;fillColor=#d5e8d4;strokeColor=#82b366;" parent="1" edge="1">
          <mxGeometry width="100" height="100" relative="1" as="geometry">
            <mxPoint x="360" y="370.75" as="sourcePoint" />
            <mxPoint x="430" y="370.75" as="targetPoint" />
            <Array as="points">
              <mxPoint x="410" y="370.75" />
            </Array>
          </mxGeometry>
        </mxCell>
        <mxCell id="FixOYD4-snbmeL3foWsd-19" value="" style="shape=flexArrow;endArrow=classic;startArrow=classic;html=1;rounded=0;width=36;startSize=8;fillColor=#d5e8d4;strokeColor=#82b366;" parent="1" edge="1">
          <mxGeometry width="100" height="100" relative="1" as="geometry">
            <mxPoint x="575.06" y="369.81" as="sourcePoint" />
            <mxPoint x="645.06" y="369.81" as="targetPoint" />
            <Array as="points">
              <mxPoint x="625.06" y="369.81" />
            </Array>
          </mxGeometry>
        </mxCell>
        <mxCell id="FixOYD4-snbmeL3foWsd-20" value="" style="shape=flexArrow;endArrow=classic;startArrow=classic;html=1;rounded=0;width=36;startSize=8;fillColor=#d5e8d4;strokeColor=#82b366;" parent="1" edge="1">
          <mxGeometry width="100" height="100" relative="1" as="geometry">
            <mxPoint x="970" y="280" as="sourcePoint" />
            <mxPoint x="1040" y="280" as="targetPoint" />
            <Array as="points">
              <mxPoint x="1020" y="280" />
            </Array>
          </mxGeometry>
        </mxCell>
        <mxCell id="FixOYD4-snbmeL3foWsd-22" value="" style="shape=image;verticalLabelPosition=bottom;labelBackgroundColor=default;verticalAlign=top;aspect=fixed;imageAspect=0;image=https://spark.apache.org/docs/latest/img/streaming-arch.png;clipPath=inset(5.36% 34% 7.14% 31%);" parent="1" vertex="1">
          <mxGeometry x="707.56" y="200" width="183" height="170.8" as="geometry" />
        </mxCell>
        <mxCell id="FixOYD4-snbmeL3foWsd-24" value="" style="shape=image;verticalLabelPosition=bottom;labelBackgroundColor=default;verticalAlign=top;aspect=fixed;imageAspect=0;image=https://github.com/teoria/nyc_taxi_spark_streaming/raw/main/docs/ingestao.png;" parent="1" vertex="1">
          <mxGeometry x="300" y="740" width="427.96" height="180" as="geometry" />
        </mxCell>
        <mxCell id="FixOYD4-snbmeL3foWsd-25" value="&lt;h3 style=&quot;box-sizing: border-box; margin-top: 24px; margin-bottom: 16px; font-size: 1.25em; font-weight: var(--base-text-weight-semibold, 600); line-height: 1.25; color: rgb(31, 35, 40); font-family: -apple-system, BlinkMacSystemFont, &amp;quot;Segoe UI&amp;quot;, &amp;quot;Noto Sans&amp;quot;, Helvetica, Arial, sans-serif, &amp;quot;Apple Color Emoji&amp;quot;, &amp;quot;Segoe UI Emoji&amp;quot;; text-align: start; background-color: rgb(255, 255, 255);&quot; dir=&quot;auto&quot; tabindex=&quot;-1&quot;&gt;&lt;font style=&quot;box-sizing: border-box; vertical-align: inherit;&quot;&gt;Streaming intake&lt;/font&gt;&lt;/h3&gt;" style="text;html=1;strokeColor=none;fillColor=none;align=center;verticalAlign=middle;whiteSpace=wrap;rounded=0;" parent="1" vertex="1">
          <mxGeometry x="430.00000000000006" y="700" width="186.94" height="30" as="geometry" />
        </mxCell>
        <mxCell id="FixOYD4-snbmeL3foWsd-29" value="" style="shape=image;verticalLabelPosition=bottom;labelBackgroundColor=default;verticalAlign=top;aspect=fixed;imageAspect=0;image=https://github.com/teoria/nyc_taxi_spark_streaming/raw/main/docs/transformacao.png;" parent="1" vertex="1">
          <mxGeometry x="754.67" y="740" width="453.67" height="180" as="geometry" />
        </mxCell>
        <mxCell id="FixOYD4-snbmeL3foWsd-30" value="&lt;h3 style=&quot;box-sizing: border-box; margin-top: 24px; margin-bottom: 16px; font-size: 1.25em; font-weight: var(--base-text-weight-semibold, 600); line-height: 1.25; color: rgb(31, 35, 40); font-family: -apple-system, BlinkMacSystemFont, &amp;quot;Segoe UI&amp;quot;, &amp;quot;Noto Sans&amp;quot;, Helvetica, Arial, sans-serif, &amp;quot;Apple Color Emoji&amp;quot;, &amp;quot;Segoe UI Emoji&amp;quot;; text-align: start; background-color: rgb(255, 255, 255);&quot; dir=&quot;auto&quot; tabindex=&quot;-1&quot;&gt;&lt;font style=&quot;box-sizing: border-box; vertical-align: inherit;&quot;&gt;Batch transformation&lt;/font&gt;&lt;/h3&gt;" style="text;html=1;strokeColor=none;fillColor=none;align=center;verticalAlign=middle;whiteSpace=wrap;rounded=0;" parent="1" vertex="1">
          <mxGeometry x="910" y="700" width="180" height="30" as="geometry" />
        </mxCell>
        <mxCell id="f1MoQqK9mWmcgZpL6mPy-1" value="&lt;b style=&quot;font-size: 15px;&quot;&gt;Taxi Dispatch Systems&lt;/b&gt;" style="text;html=1;strokeColor=none;fillColor=none;align=center;verticalAlign=middle;whiteSpace=wrap;rounded=0;fontSize=15;fontFamily=Verdana;" vertex="1" parent="1">
          <mxGeometry x="237.5" y="200" width="95" height="30" as="geometry" />
        </mxCell>
        <mxCell id="f1MoQqK9mWmcgZpL6mPy-3" value="&lt;b style=&quot;font-size: 15px;&quot;&gt;Ride-Hailing Service APIs&lt;/b&gt;" style="text;html=1;strokeColor=none;fillColor=none;align=center;verticalAlign=middle;whiteSpace=wrap;rounded=0;fontSize=15;fontFamily=Verdana;" vertex="1" parent="1">
          <mxGeometry x="237.5" y="290.85" width="95" height="30" as="geometry" />
        </mxCell>
        <mxCell id="f1MoQqK9mWmcgZpL6mPy-4" value="&lt;b style=&quot;font-size: 15px;&quot;&gt;GPS Tracking Systems&lt;/b&gt;" style="text;html=1;strokeColor=none;fillColor=none;align=center;verticalAlign=middle;whiteSpace=wrap;rounded=0;fontSize=15;fontFamily=Verdana;" vertex="1" parent="1">
          <mxGeometry x="236.56" y="383.7" width="95" height="30" as="geometry" />
        </mxCell>
        <mxCell id="f1MoQqK9mWmcgZpL6mPy-5" value="&lt;b style=&quot;font-size: 15px;&quot;&gt;Mobile Applications&lt;/b&gt;" style="text;html=1;strokeColor=none;fillColor=none;align=center;verticalAlign=middle;whiteSpace=wrap;rounded=0;fontSize=15;fontFamily=Verdana;" vertex="1" parent="1">
          <mxGeometry x="236.56" y="468.2" width="95" height="30" as="geometry" />
        </mxCell>
        <mxCell id="f1MoQqK9mWmcgZpL6mPy-6" value="&lt;b style=&quot;font-size: 15px;&quot;&gt;Sensor Networks&lt;/b&gt;" style="text;html=1;strokeColor=none;fillColor=none;align=center;verticalAlign=middle;whiteSpace=wrap;rounded=0;fontSize=15;fontFamily=Verdana;" vertex="1" parent="1">
          <mxGeometry x="236.56" y="540" width="95" height="30" as="geometry" />
        </mxCell>
        <mxCell id="f1MoQqK9mWmcgZpL6mPy-7" value="" style="shape=flexArrow;endArrow=classic;startArrow=classic;html=1;rounded=0;width=36;startSize=8;fillColor=#d5e8d4;strokeColor=#82b366;" edge="1" parent="1">
          <mxGeometry width="100" height="100" relative="1" as="geometry">
            <mxPoint x="971.96" y="510" as="sourcePoint" />
            <mxPoint x="1041.96" y="510" as="targetPoint" />
            <Array as="points">
              <mxPoint x="1021.96" y="510" />
            </Array>
          </mxGeometry>
        </mxCell>
        <mxCell id="f1MoQqK9mWmcgZpL6mPy-8" value="" style="rounded=0;whiteSpace=wrap;html=1;rotation=90;fillColor=#fff2cc;strokeColor=#d6b656;" vertex="1" parent="1">
          <mxGeometry x="1106.47" y="365.84" width="208.04" height="321.57" as="geometry" />
        </mxCell>
        <mxCell id="f1MoQqK9mWmcgZpL6mPy-12" value="" style="shape=image;verticalLabelPosition=bottom;labelBackgroundColor=default;verticalAlign=top;aspect=fixed;imageAspect=0;image=https://www.marketing-automation.pl/wp-content/uploads/image2-min-min.png;" vertex="1" parent="1">
          <mxGeometry x="1050" y="210" width="190" height="136.8" as="geometry" />
        </mxCell>
        <mxCell id="f1MoQqK9mWmcgZpL6mPy-13" value="" style="shape=image;verticalLabelPosition=bottom;labelBackgroundColor=default;verticalAlign=top;aspect=fixed;imageAspect=0;image=https://www.guru99.com/images/tensorflow/082918_1504_ELKStackTut1.png;clipPath=inset(2.38% 0% 20.63% 0%);" vertex="1" parent="1">
          <mxGeometry x="1280" y="178.9" width="372" height="120.28" as="geometry" />
        </mxCell>
        <mxCell id="f1MoQqK9mWmcgZpL6mPy-14" value="&lt;b&gt;&lt;font style=&quot;font-size: 14px;&quot;&gt;ELK Stack&lt;/font&gt;&lt;/b&gt;" style="text;html=1;strokeColor=none;fillColor=none;align=center;verticalAlign=middle;whiteSpace=wrap;rounded=0;" vertex="1" parent="1">
          <mxGeometry x="1394" y="131.99" width="144" height="30" as="geometry" />
        </mxCell>
        <mxCell id="f1MoQqK9mWmcgZpL6mPy-15" value="" style="rounded=0;whiteSpace=wrap;html=1;fillColor=none;" vertex="1" parent="1">
          <mxGeometry x="290" y="690" width="930" height="240" as="geometry" />
        </mxCell>
        <mxCell id="f1MoQqK9mWmcgZpL6mPy-16" value="&lt;b&gt;&lt;font style=&quot;font-size: 15px;&quot;&gt;ML Pipeline&lt;/font&gt;&lt;/b&gt;" style="text;html=1;strokeColor=none;fillColor=none;align=center;verticalAlign=middle;whiteSpace=wrap;rounded=0;" vertex="1" parent="1">
          <mxGeometry x="1165.49" y="431.67" width="90" height="30" as="geometry" />
        </mxCell>
        <mxCell id="f1MoQqK9mWmcgZpL6mPy-18" value="&lt;b&gt;Train&lt;/b&gt;" style="shape=dataStorage;whiteSpace=wrap;html=1;fixedSize=1;fillColor=#e3c800;strokeColor=#B09500;fontColor=#000000;fontFamily=Verdana;" vertex="1" parent="1">
          <mxGeometry x="1070" y="496.63" width="90" height="60" as="geometry" />
        </mxCell>
        <mxCell id="f1MoQqK9mWmcgZpL6mPy-19" value="&lt;b&gt;Model&lt;/b&gt;" style="shape=dataStorage;whiteSpace=wrap;html=1;fixedSize=1;fillColor=#e3c800;fontColor=#000000;strokeColor=#B09500;fontFamily=Verdana;" vertex="1" parent="1">
          <mxGeometry x="1160" y="496.63" width="98" height="60" as="geometry" />
        </mxCell>
        <mxCell id="f1MoQqK9mWmcgZpL6mPy-20" value="&lt;b&gt;Predict&lt;/b&gt;" style="shape=dataStorage;whiteSpace=wrap;html=1;fixedSize=1;fillColor=#e3c800;fontColor=#000000;strokeColor=#B09500;fontFamily=Verdana;" vertex="1" parent="1">
          <mxGeometry x="1260" y="496.63" width="98" height="60" as="geometry" />
        </mxCell>
      </root>
    </mxGraphModel>
  </diagram>
</mxfile>
